M48
;DRILL file {KiCad 0.201509151501+6198~30~ubuntu14.04.1-product} date Sun 08 Nov 2015 02:29:12 PM EST
;FORMAT={2:4/ absolute / inch / suppress leading zeros}
FMAT,2
INCH,TZ
T1C0.012
T2C0.016
T3C0.030
T4C0.040
T5C0.118
%
G90
G05
M72
T1
X46803Y-28205
X46803Y-28795
X47000Y-28500
X47197Y-28205
X47197Y-28795
T2
X45442Y-26868
X45914Y-28744
X46400Y-29800
X48120Y-28332
X48200Y-34000
X48430Y-27612
T3
X42100Y-34000
X42100Y-35000
X42100Y-36000
X42100Y-37000
X42100Y-38000
X42100Y-39000
X43200Y-34000
X43200Y-35000
X43200Y-36000
X43200Y-37000
X43200Y-38000
X43200Y-39000
X44000Y-22600
X44000Y-23400
X44000Y-24200
X44200Y-34000
X44200Y-35000
X44200Y-36000
X44200Y-37000
X44200Y-38000
X44200Y-39000
X44200Y-40000
X44200Y-41000
X44800Y-22600
X44800Y-23400
X44800Y-24200
X45200Y-34000
X45200Y-35000
X45200Y-36000
X45200Y-37000
X45200Y-38000
X45200Y-39000
X45200Y-40000
X45200Y-41000
T4
X46834Y-22662
X46938Y-40468
X47834Y-22662
X47938Y-40468
T5
X42500Y-23500
X42600Y-40400
X51500Y-23500
X51500Y-40400
T0
M30
