G04 #@! TF.FileFunction,Copper,L1,Top,Signal*
%FSLAX46Y46*%
G04 Gerber Fmt 4.6, Leading zero omitted, Abs format (unit mm)*
G04 Created by KiCad (PCBNEW 0.201509151501+6198~30~ubuntu14.04.1-product) date Wed 04 Nov 2015 10:21:58 PM EST*
%MOMM*%
G01*
G04 APERTURE LIST*
%ADD10C,0.100000*%
%ADD11C,1.524000*%
%ADD12R,2.000000X1.600000*%
%ADD13R,1.500000X1.250000*%
%ADD14R,1.250000X1.500000*%
%ADD15R,3.600000X1.800000*%
%ADD16R,2.032000X2.032000*%
%ADD17O,2.032000X2.032000*%
%ADD18R,1.500000X1.300000*%
%ADD19R,1.300000X1.500000*%
%ADD20R,2.999740X2.999740*%
%ADD21C,0.400000*%
%ADD22O,0.850000X0.280000*%
%ADD23R,1.650000X2.400000*%
%ADD24R,0.280000X0.700000*%
%ADD25C,0.600000*%
%ADD26C,0.250000*%
%ADD27C,0.152400*%
G04 APERTURE END LIST*
D10*
D11*
X114808000Y-104140000D03*
X112268000Y-104140000D03*
X109728000Y-104140000D03*
X114808000Y-101600000D03*
X112268000Y-101600000D03*
X109728000Y-101600000D03*
X114808000Y-99060000D03*
X112268000Y-99060000D03*
X109728000Y-99060000D03*
X114808000Y-96520000D03*
X112268000Y-96520000D03*
X109728000Y-96520000D03*
X114808000Y-93980000D03*
X112268000Y-93980000D03*
X109728000Y-93980000D03*
X114808000Y-91440000D03*
X112268000Y-91440000D03*
X109728000Y-91440000D03*
X114808000Y-88900000D03*
X112268000Y-88900000D03*
X109728000Y-88900000D03*
X114808000Y-86360000D03*
X112268000Y-86360000D03*
X109728000Y-86360000D03*
X113792000Y-61468000D03*
X111760000Y-61468000D03*
X109728000Y-61468000D03*
X113792000Y-59436000D03*
X111760000Y-59436000D03*
X109728000Y-59436000D03*
X113792000Y-57404000D03*
X111760000Y-57404000D03*
D12*
X121893080Y-61605160D03*
X117893080Y-61605160D03*
X121937280Y-64582040D03*
X117937280Y-64582040D03*
D13*
X121747600Y-68686680D03*
X119247600Y-68686680D03*
D14*
X113863120Y-68184400D03*
X113863120Y-65684400D03*
X110342680Y-67915160D03*
X110342680Y-65415160D03*
D12*
X122633240Y-88402160D03*
X118633240Y-88402160D03*
X122546880Y-91887040D03*
X118546880Y-91887040D03*
X122538240Y-95260160D03*
X118538240Y-95260160D03*
X122465600Y-98907600D03*
X118465600Y-98907600D03*
D10*
G36*
X129419350Y-88521540D02*
X127120650Y-88521540D01*
X127720090Y-84919820D01*
X128819910Y-84919820D01*
X129419350Y-88521540D01*
X129419350Y-88521540D01*
G37*
G36*
X127120650Y-79118460D02*
X129419350Y-79118460D01*
X128819910Y-82720180D01*
X127720090Y-82720180D01*
X127120650Y-79118460D01*
X127120650Y-79118460D01*
G37*
D15*
X128524000Y-67200000D03*
X128524000Y-76200000D03*
D16*
X121498360Y-57561480D03*
D17*
X118958360Y-57561480D03*
D16*
X121762520Y-102788720D03*
D17*
X119222520Y-102788720D03*
D18*
X115023880Y-70891400D03*
X112323880Y-70891400D03*
X116737120Y-77282040D03*
X114037120Y-77282040D03*
D19*
X113441480Y-80956160D03*
X113441480Y-83656160D03*
D20*
X129032000Y-59436000D03*
X128524000Y-93980000D03*
D21*
X119880000Y-71640000D03*
X118880000Y-73140000D03*
X119880000Y-73140000D03*
X119380000Y-72390000D03*
X118880000Y-71640000D03*
D22*
X117905000Y-71390000D03*
X117905000Y-71890000D03*
X117905000Y-72390000D03*
X117905000Y-72890000D03*
X117905000Y-73390000D03*
X120855000Y-73390000D03*
X120855000Y-72890000D03*
X120855000Y-72390000D03*
X120855000Y-71890000D03*
X120855000Y-71390000D03*
D23*
X119380000Y-72390000D03*
D24*
X119630000Y-70840000D03*
X119130000Y-70840000D03*
X119630000Y-73940000D03*
X119130000Y-73940000D03*
D11*
X109728000Y-57404000D03*
D25*
X115422680Y-68244720D03*
X123012200Y-70134480D03*
X122224800Y-71963280D03*
X116621560Y-73009760D03*
X122428000Y-86360000D03*
X117856000Y-75692000D03*
D26*
X115422680Y-68244720D02*
X113923440Y-68244720D01*
X113923440Y-68244720D02*
X113863120Y-68184400D01*
X120855000Y-71390000D02*
X121756680Y-71390000D01*
X121756680Y-71390000D02*
X123012200Y-70134480D01*
X110342680Y-69184520D02*
X110342680Y-68719306D01*
X110342680Y-68719306D02*
X110342680Y-67915160D01*
X112323880Y-70891400D02*
X111323880Y-70891400D01*
X111323880Y-70891400D02*
X110342680Y-69910200D01*
X110342680Y-69910200D02*
X110342680Y-68719306D01*
X117905000Y-71390000D02*
X115522480Y-71390000D01*
X115522480Y-71390000D02*
X115023880Y-70891400D01*
X117905000Y-71390000D02*
X117620000Y-71390000D01*
X117620000Y-71390000D02*
X117619240Y-71389240D01*
X114037120Y-77282040D02*
X114037120Y-76382040D01*
X114037120Y-76382040D02*
X115798600Y-74620560D01*
X115798600Y-74620560D02*
X115798600Y-72918320D01*
X115798600Y-72918320D02*
X116826920Y-71890000D01*
X116826920Y-71890000D02*
X117905000Y-71890000D01*
X113441480Y-80956160D02*
X113441480Y-77877680D01*
X113441480Y-77877680D02*
X114037120Y-77282040D01*
X122224800Y-71963280D02*
X120928280Y-71963280D01*
X120928280Y-71963280D02*
X120855000Y-71890000D01*
X117905000Y-72390000D02*
X117241320Y-72390000D01*
X117241320Y-72390000D02*
X116621560Y-73009760D01*
X116737120Y-77282040D02*
X116737120Y-76810880D01*
X116737120Y-76810880D02*
X117856000Y-75692000D01*
D27*
G36*
X118317850Y-56377402D02*
X117913479Y-56712647D01*
X117668181Y-57177119D01*
X117706488Y-57383680D01*
X118780560Y-57383680D01*
X118780560Y-57363680D01*
X119136160Y-57363680D01*
X119136160Y-57383680D01*
X119156160Y-57383680D01*
X119156160Y-57739280D01*
X119136160Y-57739280D01*
X119136160Y-58812559D01*
X119342718Y-58851644D01*
X119598870Y-58745558D01*
X119809463Y-58570965D01*
X119776809Y-87304222D01*
X119698921Y-87271960D01*
X118893590Y-87271960D01*
X118811040Y-87354510D01*
X118811040Y-88224360D01*
X118831040Y-88224360D01*
X118831040Y-88579960D01*
X118811040Y-88579960D01*
X118811040Y-89449810D01*
X118893590Y-89532360D01*
X119698921Y-89532360D01*
X119774312Y-89501132D01*
X119772784Y-90845971D01*
X119733923Y-90807110D01*
X119612561Y-90756840D01*
X118807230Y-90756840D01*
X118724680Y-90839390D01*
X118724680Y-91709240D01*
X118744680Y-91709240D01*
X118744680Y-92064840D01*
X118724680Y-92064840D01*
X118724680Y-92934690D01*
X118807230Y-93017240D01*
X119612561Y-93017240D01*
X119733923Y-92966970D01*
X119770415Y-92930478D01*
X119768945Y-94223892D01*
X119725283Y-94180230D01*
X119603921Y-94129960D01*
X118798590Y-94129960D01*
X118716040Y-94212510D01*
X118716040Y-95082360D01*
X118736040Y-95082360D01*
X118736040Y-95437960D01*
X118716040Y-95437960D01*
X118716040Y-96307810D01*
X118798590Y-96390360D01*
X119603921Y-96390360D01*
X119725283Y-96340090D01*
X119766587Y-96298786D01*
X119764691Y-97966816D01*
X119745530Y-97920557D01*
X119652643Y-97827670D01*
X119531281Y-97777400D01*
X118725950Y-97777400D01*
X118643400Y-97859950D01*
X118643400Y-98729800D01*
X118663400Y-98729800D01*
X118663400Y-99085400D01*
X118643400Y-99085400D01*
X118643400Y-99955250D01*
X118725950Y-100037800D01*
X119531281Y-100037800D01*
X119652643Y-99987530D01*
X119745530Y-99894643D01*
X119762547Y-99853561D01*
X119760605Y-101562222D01*
X119606878Y-101498556D01*
X119400320Y-101537641D01*
X119400320Y-102610920D01*
X119420320Y-102610920D01*
X119420320Y-102966520D01*
X119400320Y-102966520D01*
X119400320Y-104039799D01*
X119606878Y-104078884D01*
X119757816Y-104016373D01*
X119756404Y-105258800D01*
X109117200Y-105258800D01*
X109117200Y-103173081D01*
X117932341Y-103173081D01*
X118177639Y-103637553D01*
X118582010Y-103972798D01*
X118838162Y-104078884D01*
X119044720Y-104039799D01*
X119044720Y-102966520D01*
X117970648Y-102966520D01*
X117932341Y-103173081D01*
X109117200Y-103173081D01*
X109117200Y-102404359D01*
X117932341Y-102404359D01*
X117970648Y-102610920D01*
X119044720Y-102610920D01*
X119044720Y-101537641D01*
X118838162Y-101498556D01*
X118582010Y-101604642D01*
X118177639Y-101939887D01*
X117932341Y-102404359D01*
X109117200Y-102404359D01*
X109117200Y-99167950D01*
X117135400Y-99167950D01*
X117135400Y-99773281D01*
X117185670Y-99894643D01*
X117278557Y-99987530D01*
X117399919Y-100037800D01*
X118205250Y-100037800D01*
X118287800Y-99955250D01*
X118287800Y-99085400D01*
X117217950Y-99085400D01*
X117135400Y-99167950D01*
X109117200Y-99167950D01*
X109117200Y-98041919D01*
X117135400Y-98041919D01*
X117135400Y-98647250D01*
X117217950Y-98729800D01*
X118287800Y-98729800D01*
X118287800Y-97859950D01*
X118205250Y-97777400D01*
X117399919Y-97777400D01*
X117278557Y-97827670D01*
X117185670Y-97920557D01*
X117135400Y-98041919D01*
X109117200Y-98041919D01*
X109117200Y-95520510D01*
X117208040Y-95520510D01*
X117208040Y-96125841D01*
X117258310Y-96247203D01*
X117351197Y-96340090D01*
X117472559Y-96390360D01*
X118277890Y-96390360D01*
X118360440Y-96307810D01*
X118360440Y-95437960D01*
X117290590Y-95437960D01*
X117208040Y-95520510D01*
X109117200Y-95520510D01*
X109117200Y-94394479D01*
X117208040Y-94394479D01*
X117208040Y-94999810D01*
X117290590Y-95082360D01*
X118360440Y-95082360D01*
X118360440Y-94212510D01*
X118277890Y-94129960D01*
X117472559Y-94129960D01*
X117351197Y-94180230D01*
X117258310Y-94273117D01*
X117208040Y-94394479D01*
X109117200Y-94394479D01*
X109117200Y-92147390D01*
X117216680Y-92147390D01*
X117216680Y-92752721D01*
X117266950Y-92874083D01*
X117359837Y-92966970D01*
X117481199Y-93017240D01*
X118286530Y-93017240D01*
X118369080Y-92934690D01*
X118369080Y-92064840D01*
X117299230Y-92064840D01*
X117216680Y-92147390D01*
X109117200Y-92147390D01*
X109117200Y-91021359D01*
X117216680Y-91021359D01*
X117216680Y-91626690D01*
X117299230Y-91709240D01*
X118369080Y-91709240D01*
X118369080Y-90839390D01*
X118286530Y-90756840D01*
X117481199Y-90756840D01*
X117359837Y-90807110D01*
X117266950Y-90899997D01*
X117216680Y-91021359D01*
X109117200Y-91021359D01*
X109117200Y-88662510D01*
X117303040Y-88662510D01*
X117303040Y-89267841D01*
X117353310Y-89389203D01*
X117446197Y-89482090D01*
X117567559Y-89532360D01*
X118372890Y-89532360D01*
X118455440Y-89449810D01*
X118455440Y-88579960D01*
X117385590Y-88579960D01*
X117303040Y-88662510D01*
X109117200Y-88662510D01*
X109117200Y-87536479D01*
X117303040Y-87536479D01*
X117303040Y-88141810D01*
X117385590Y-88224360D01*
X118455440Y-88224360D01*
X118455440Y-87354510D01*
X118372890Y-87271960D01*
X117567559Y-87271960D01*
X117446197Y-87322230D01*
X117353310Y-87415117D01*
X117303040Y-87536479D01*
X109117200Y-87536479D01*
X109117200Y-83916510D01*
X112461280Y-83916510D01*
X112461280Y-84471841D01*
X112511550Y-84593203D01*
X112604437Y-84686090D01*
X112725799Y-84736360D01*
X113181130Y-84736360D01*
X113263680Y-84653810D01*
X113263680Y-83833960D01*
X113619280Y-83833960D01*
X113619280Y-84653810D01*
X113701830Y-84736360D01*
X114157161Y-84736360D01*
X114278523Y-84686090D01*
X114371410Y-84593203D01*
X114421680Y-84471841D01*
X114421680Y-83916510D01*
X114339130Y-83833960D01*
X113619280Y-83833960D01*
X113263680Y-83833960D01*
X112543830Y-83833960D01*
X112461280Y-83916510D01*
X109117200Y-83916510D01*
X109117200Y-82829400D01*
X112465869Y-82829400D01*
X112461280Y-82840479D01*
X112461280Y-83395810D01*
X112543830Y-83478360D01*
X113263680Y-83478360D01*
X113263680Y-83458360D01*
X113619280Y-83458360D01*
X113619280Y-83478360D01*
X114339130Y-83478360D01*
X114421680Y-83395810D01*
X114421680Y-82840479D01*
X114417091Y-82829400D01*
X118739920Y-82829400D01*
X118769566Y-82823397D01*
X118794541Y-82806332D01*
X118810909Y-82780895D01*
X118816120Y-82753243D01*
X118821200Y-73660043D01*
X118815213Y-73630393D01*
X118798163Y-73605409D01*
X118772735Y-73589027D01*
X118745000Y-73583800D01*
X117424200Y-73583800D01*
X117424200Y-72850870D01*
X117427870Y-72847200D01*
X117539850Y-72847200D01*
X117605205Y-72860200D01*
X118204795Y-72860200D01*
X118270150Y-72847200D01*
X118745000Y-72847200D01*
X118774646Y-72841197D01*
X118799621Y-72824132D01*
X118815989Y-72798695D01*
X118821200Y-72771000D01*
X118821200Y-66675000D01*
X118815197Y-66645354D01*
X118798132Y-66620379D01*
X118772695Y-66604011D01*
X118745000Y-66598800D01*
X114777429Y-66598800D01*
X114818320Y-66500081D01*
X114818320Y-65944750D01*
X114735770Y-65862200D01*
X114040920Y-65862200D01*
X114040920Y-65882200D01*
X113685320Y-65882200D01*
X113685320Y-65862200D01*
X112990470Y-65862200D01*
X112907920Y-65944750D01*
X112907920Y-66500081D01*
X112948811Y-66598800D01*
X109117200Y-66598800D01*
X109117200Y-65675510D01*
X109387480Y-65675510D01*
X109387480Y-66230841D01*
X109437750Y-66352203D01*
X109530637Y-66445090D01*
X109651999Y-66495360D01*
X110082330Y-66495360D01*
X110164880Y-66412810D01*
X110164880Y-65592960D01*
X110520480Y-65592960D01*
X110520480Y-66412810D01*
X110603030Y-66495360D01*
X111033361Y-66495360D01*
X111154723Y-66445090D01*
X111247610Y-66352203D01*
X111297880Y-66230841D01*
X111297880Y-65675510D01*
X111215330Y-65592960D01*
X110520480Y-65592960D01*
X110164880Y-65592960D01*
X109470030Y-65592960D01*
X109387480Y-65675510D01*
X109117200Y-65675510D01*
X109117200Y-64599479D01*
X109387480Y-64599479D01*
X109387480Y-65154810D01*
X109470030Y-65237360D01*
X110164880Y-65237360D01*
X110164880Y-64417510D01*
X110520480Y-64417510D01*
X110520480Y-65237360D01*
X111215330Y-65237360D01*
X111297880Y-65154810D01*
X111297880Y-64868719D01*
X112907920Y-64868719D01*
X112907920Y-65424050D01*
X112990470Y-65506600D01*
X113685320Y-65506600D01*
X113685320Y-64686750D01*
X114040920Y-64686750D01*
X114040920Y-65506600D01*
X114735770Y-65506600D01*
X114818320Y-65424050D01*
X114818320Y-64868719D01*
X114807415Y-64842390D01*
X116607080Y-64842390D01*
X116607080Y-65447721D01*
X116657350Y-65569083D01*
X116750237Y-65661970D01*
X116871599Y-65712240D01*
X117676930Y-65712240D01*
X117759480Y-65629690D01*
X117759480Y-64759840D01*
X118115080Y-64759840D01*
X118115080Y-65629690D01*
X118197630Y-65712240D01*
X119002961Y-65712240D01*
X119124323Y-65661970D01*
X119217210Y-65569083D01*
X119267480Y-65447721D01*
X119267480Y-64842390D01*
X119184930Y-64759840D01*
X118115080Y-64759840D01*
X117759480Y-64759840D01*
X116689630Y-64759840D01*
X116607080Y-64842390D01*
X114807415Y-64842390D01*
X114768050Y-64747357D01*
X114675163Y-64654470D01*
X114553801Y-64604200D01*
X114123470Y-64604200D01*
X114040920Y-64686750D01*
X113685320Y-64686750D01*
X113602770Y-64604200D01*
X113172439Y-64604200D01*
X113051077Y-64654470D01*
X112958190Y-64747357D01*
X112907920Y-64868719D01*
X111297880Y-64868719D01*
X111297880Y-64599479D01*
X111247610Y-64478117D01*
X111154723Y-64385230D01*
X111033361Y-64334960D01*
X110603030Y-64334960D01*
X110520480Y-64417510D01*
X110164880Y-64417510D01*
X110082330Y-64334960D01*
X109651999Y-64334960D01*
X109530637Y-64385230D01*
X109437750Y-64478117D01*
X109387480Y-64599479D01*
X109117200Y-64599479D01*
X109117200Y-63716359D01*
X116607080Y-63716359D01*
X116607080Y-64321690D01*
X116689630Y-64404240D01*
X117759480Y-64404240D01*
X117759480Y-63534390D01*
X118115080Y-63534390D01*
X118115080Y-64404240D01*
X119184930Y-64404240D01*
X119267480Y-64321690D01*
X119267480Y-63716359D01*
X119217210Y-63594997D01*
X119124323Y-63502110D01*
X119002961Y-63451840D01*
X118197630Y-63451840D01*
X118115080Y-63534390D01*
X117759480Y-63534390D01*
X117676930Y-63451840D01*
X116871599Y-63451840D01*
X116750237Y-63502110D01*
X116657350Y-63594997D01*
X116607080Y-63716359D01*
X109117200Y-63716359D01*
X109117200Y-61865510D01*
X116562880Y-61865510D01*
X116562880Y-62470841D01*
X116613150Y-62592203D01*
X116706037Y-62685090D01*
X116827399Y-62735360D01*
X117632730Y-62735360D01*
X117715280Y-62652810D01*
X117715280Y-61782960D01*
X118070880Y-61782960D01*
X118070880Y-62652810D01*
X118153430Y-62735360D01*
X118958761Y-62735360D01*
X119080123Y-62685090D01*
X119173010Y-62592203D01*
X119223280Y-62470841D01*
X119223280Y-61865510D01*
X119140730Y-61782960D01*
X118070880Y-61782960D01*
X117715280Y-61782960D01*
X116645430Y-61782960D01*
X116562880Y-61865510D01*
X109117200Y-61865510D01*
X109117200Y-60739479D01*
X116562880Y-60739479D01*
X116562880Y-61344810D01*
X116645430Y-61427360D01*
X117715280Y-61427360D01*
X117715280Y-60557510D01*
X118070880Y-60557510D01*
X118070880Y-61427360D01*
X119140730Y-61427360D01*
X119223280Y-61344810D01*
X119223280Y-60739479D01*
X119173010Y-60618117D01*
X119080123Y-60525230D01*
X118958761Y-60474960D01*
X118153430Y-60474960D01*
X118070880Y-60557510D01*
X117715280Y-60557510D01*
X117632730Y-60474960D01*
X116827399Y-60474960D01*
X116706037Y-60525230D01*
X116613150Y-60618117D01*
X116562880Y-60739479D01*
X109117200Y-60739479D01*
X109117200Y-57945841D01*
X117668181Y-57945841D01*
X117913479Y-58410313D01*
X118317850Y-58745558D01*
X118574002Y-58851644D01*
X118780560Y-58812559D01*
X118780560Y-57739280D01*
X117706488Y-57739280D01*
X117668181Y-57945841D01*
X109117200Y-57945841D01*
X109117200Y-56285200D01*
X118540478Y-56285200D01*
X118317850Y-56377402D01*
X118317850Y-56377402D01*
G37*
X118317850Y-56377402D02*
X117913479Y-56712647D01*
X117668181Y-57177119D01*
X117706488Y-57383680D01*
X118780560Y-57383680D01*
X118780560Y-57363680D01*
X119136160Y-57363680D01*
X119136160Y-57383680D01*
X119156160Y-57383680D01*
X119156160Y-57739280D01*
X119136160Y-57739280D01*
X119136160Y-58812559D01*
X119342718Y-58851644D01*
X119598870Y-58745558D01*
X119809463Y-58570965D01*
X119776809Y-87304222D01*
X119698921Y-87271960D01*
X118893590Y-87271960D01*
X118811040Y-87354510D01*
X118811040Y-88224360D01*
X118831040Y-88224360D01*
X118831040Y-88579960D01*
X118811040Y-88579960D01*
X118811040Y-89449810D01*
X118893590Y-89532360D01*
X119698921Y-89532360D01*
X119774312Y-89501132D01*
X119772784Y-90845971D01*
X119733923Y-90807110D01*
X119612561Y-90756840D01*
X118807230Y-90756840D01*
X118724680Y-90839390D01*
X118724680Y-91709240D01*
X118744680Y-91709240D01*
X118744680Y-92064840D01*
X118724680Y-92064840D01*
X118724680Y-92934690D01*
X118807230Y-93017240D01*
X119612561Y-93017240D01*
X119733923Y-92966970D01*
X119770415Y-92930478D01*
X119768945Y-94223892D01*
X119725283Y-94180230D01*
X119603921Y-94129960D01*
X118798590Y-94129960D01*
X118716040Y-94212510D01*
X118716040Y-95082360D01*
X118736040Y-95082360D01*
X118736040Y-95437960D01*
X118716040Y-95437960D01*
X118716040Y-96307810D01*
X118798590Y-96390360D01*
X119603921Y-96390360D01*
X119725283Y-96340090D01*
X119766587Y-96298786D01*
X119764691Y-97966816D01*
X119745530Y-97920557D01*
X119652643Y-97827670D01*
X119531281Y-97777400D01*
X118725950Y-97777400D01*
X118643400Y-97859950D01*
X118643400Y-98729800D01*
X118663400Y-98729800D01*
X118663400Y-99085400D01*
X118643400Y-99085400D01*
X118643400Y-99955250D01*
X118725950Y-100037800D01*
X119531281Y-100037800D01*
X119652643Y-99987530D01*
X119745530Y-99894643D01*
X119762547Y-99853561D01*
X119760605Y-101562222D01*
X119606878Y-101498556D01*
X119400320Y-101537641D01*
X119400320Y-102610920D01*
X119420320Y-102610920D01*
X119420320Y-102966520D01*
X119400320Y-102966520D01*
X119400320Y-104039799D01*
X119606878Y-104078884D01*
X119757816Y-104016373D01*
X119756404Y-105258800D01*
X109117200Y-105258800D01*
X109117200Y-103173081D01*
X117932341Y-103173081D01*
X118177639Y-103637553D01*
X118582010Y-103972798D01*
X118838162Y-104078884D01*
X119044720Y-104039799D01*
X119044720Y-102966520D01*
X117970648Y-102966520D01*
X117932341Y-103173081D01*
X109117200Y-103173081D01*
X109117200Y-102404359D01*
X117932341Y-102404359D01*
X117970648Y-102610920D01*
X119044720Y-102610920D01*
X119044720Y-101537641D01*
X118838162Y-101498556D01*
X118582010Y-101604642D01*
X118177639Y-101939887D01*
X117932341Y-102404359D01*
X109117200Y-102404359D01*
X109117200Y-99167950D01*
X117135400Y-99167950D01*
X117135400Y-99773281D01*
X117185670Y-99894643D01*
X117278557Y-99987530D01*
X117399919Y-100037800D01*
X118205250Y-100037800D01*
X118287800Y-99955250D01*
X118287800Y-99085400D01*
X117217950Y-99085400D01*
X117135400Y-99167950D01*
X109117200Y-99167950D01*
X109117200Y-98041919D01*
X117135400Y-98041919D01*
X117135400Y-98647250D01*
X117217950Y-98729800D01*
X118287800Y-98729800D01*
X118287800Y-97859950D01*
X118205250Y-97777400D01*
X117399919Y-97777400D01*
X117278557Y-97827670D01*
X117185670Y-97920557D01*
X117135400Y-98041919D01*
X109117200Y-98041919D01*
X109117200Y-95520510D01*
X117208040Y-95520510D01*
X117208040Y-96125841D01*
X117258310Y-96247203D01*
X117351197Y-96340090D01*
X117472559Y-96390360D01*
X118277890Y-96390360D01*
X118360440Y-96307810D01*
X118360440Y-95437960D01*
X117290590Y-95437960D01*
X117208040Y-95520510D01*
X109117200Y-95520510D01*
X109117200Y-94394479D01*
X117208040Y-94394479D01*
X117208040Y-94999810D01*
X117290590Y-95082360D01*
X118360440Y-95082360D01*
X118360440Y-94212510D01*
X118277890Y-94129960D01*
X117472559Y-94129960D01*
X117351197Y-94180230D01*
X117258310Y-94273117D01*
X117208040Y-94394479D01*
X109117200Y-94394479D01*
X109117200Y-92147390D01*
X117216680Y-92147390D01*
X117216680Y-92752721D01*
X117266950Y-92874083D01*
X117359837Y-92966970D01*
X117481199Y-93017240D01*
X118286530Y-93017240D01*
X118369080Y-92934690D01*
X118369080Y-92064840D01*
X117299230Y-92064840D01*
X117216680Y-92147390D01*
X109117200Y-92147390D01*
X109117200Y-91021359D01*
X117216680Y-91021359D01*
X117216680Y-91626690D01*
X117299230Y-91709240D01*
X118369080Y-91709240D01*
X118369080Y-90839390D01*
X118286530Y-90756840D01*
X117481199Y-90756840D01*
X117359837Y-90807110D01*
X117266950Y-90899997D01*
X117216680Y-91021359D01*
X109117200Y-91021359D01*
X109117200Y-88662510D01*
X117303040Y-88662510D01*
X117303040Y-89267841D01*
X117353310Y-89389203D01*
X117446197Y-89482090D01*
X117567559Y-89532360D01*
X118372890Y-89532360D01*
X118455440Y-89449810D01*
X118455440Y-88579960D01*
X117385590Y-88579960D01*
X117303040Y-88662510D01*
X109117200Y-88662510D01*
X109117200Y-87536479D01*
X117303040Y-87536479D01*
X117303040Y-88141810D01*
X117385590Y-88224360D01*
X118455440Y-88224360D01*
X118455440Y-87354510D01*
X118372890Y-87271960D01*
X117567559Y-87271960D01*
X117446197Y-87322230D01*
X117353310Y-87415117D01*
X117303040Y-87536479D01*
X109117200Y-87536479D01*
X109117200Y-83916510D01*
X112461280Y-83916510D01*
X112461280Y-84471841D01*
X112511550Y-84593203D01*
X112604437Y-84686090D01*
X112725799Y-84736360D01*
X113181130Y-84736360D01*
X113263680Y-84653810D01*
X113263680Y-83833960D01*
X113619280Y-83833960D01*
X113619280Y-84653810D01*
X113701830Y-84736360D01*
X114157161Y-84736360D01*
X114278523Y-84686090D01*
X114371410Y-84593203D01*
X114421680Y-84471841D01*
X114421680Y-83916510D01*
X114339130Y-83833960D01*
X113619280Y-83833960D01*
X113263680Y-83833960D01*
X112543830Y-83833960D01*
X112461280Y-83916510D01*
X109117200Y-83916510D01*
X109117200Y-82829400D01*
X112465869Y-82829400D01*
X112461280Y-82840479D01*
X112461280Y-83395810D01*
X112543830Y-83478360D01*
X113263680Y-83478360D01*
X113263680Y-83458360D01*
X113619280Y-83458360D01*
X113619280Y-83478360D01*
X114339130Y-83478360D01*
X114421680Y-83395810D01*
X114421680Y-82840479D01*
X114417091Y-82829400D01*
X118739920Y-82829400D01*
X118769566Y-82823397D01*
X118794541Y-82806332D01*
X118810909Y-82780895D01*
X118816120Y-82753243D01*
X118821200Y-73660043D01*
X118815213Y-73630393D01*
X118798163Y-73605409D01*
X118772735Y-73589027D01*
X118745000Y-73583800D01*
X117424200Y-73583800D01*
X117424200Y-72850870D01*
X117427870Y-72847200D01*
X117539850Y-72847200D01*
X117605205Y-72860200D01*
X118204795Y-72860200D01*
X118270150Y-72847200D01*
X118745000Y-72847200D01*
X118774646Y-72841197D01*
X118799621Y-72824132D01*
X118815989Y-72798695D01*
X118821200Y-72771000D01*
X118821200Y-66675000D01*
X118815197Y-66645354D01*
X118798132Y-66620379D01*
X118772695Y-66604011D01*
X118745000Y-66598800D01*
X114777429Y-66598800D01*
X114818320Y-66500081D01*
X114818320Y-65944750D01*
X114735770Y-65862200D01*
X114040920Y-65862200D01*
X114040920Y-65882200D01*
X113685320Y-65882200D01*
X113685320Y-65862200D01*
X112990470Y-65862200D01*
X112907920Y-65944750D01*
X112907920Y-66500081D01*
X112948811Y-66598800D01*
X109117200Y-66598800D01*
X109117200Y-65675510D01*
X109387480Y-65675510D01*
X109387480Y-66230841D01*
X109437750Y-66352203D01*
X109530637Y-66445090D01*
X109651999Y-66495360D01*
X110082330Y-66495360D01*
X110164880Y-66412810D01*
X110164880Y-65592960D01*
X110520480Y-65592960D01*
X110520480Y-66412810D01*
X110603030Y-66495360D01*
X111033361Y-66495360D01*
X111154723Y-66445090D01*
X111247610Y-66352203D01*
X111297880Y-66230841D01*
X111297880Y-65675510D01*
X111215330Y-65592960D01*
X110520480Y-65592960D01*
X110164880Y-65592960D01*
X109470030Y-65592960D01*
X109387480Y-65675510D01*
X109117200Y-65675510D01*
X109117200Y-64599479D01*
X109387480Y-64599479D01*
X109387480Y-65154810D01*
X109470030Y-65237360D01*
X110164880Y-65237360D01*
X110164880Y-64417510D01*
X110520480Y-64417510D01*
X110520480Y-65237360D01*
X111215330Y-65237360D01*
X111297880Y-65154810D01*
X111297880Y-64868719D01*
X112907920Y-64868719D01*
X112907920Y-65424050D01*
X112990470Y-65506600D01*
X113685320Y-65506600D01*
X113685320Y-64686750D01*
X114040920Y-64686750D01*
X114040920Y-65506600D01*
X114735770Y-65506600D01*
X114818320Y-65424050D01*
X114818320Y-64868719D01*
X114807415Y-64842390D01*
X116607080Y-64842390D01*
X116607080Y-65447721D01*
X116657350Y-65569083D01*
X116750237Y-65661970D01*
X116871599Y-65712240D01*
X117676930Y-65712240D01*
X117759480Y-65629690D01*
X117759480Y-64759840D01*
X118115080Y-64759840D01*
X118115080Y-65629690D01*
X118197630Y-65712240D01*
X119002961Y-65712240D01*
X119124323Y-65661970D01*
X119217210Y-65569083D01*
X119267480Y-65447721D01*
X119267480Y-64842390D01*
X119184930Y-64759840D01*
X118115080Y-64759840D01*
X117759480Y-64759840D01*
X116689630Y-64759840D01*
X116607080Y-64842390D01*
X114807415Y-64842390D01*
X114768050Y-64747357D01*
X114675163Y-64654470D01*
X114553801Y-64604200D01*
X114123470Y-64604200D01*
X114040920Y-64686750D01*
X113685320Y-64686750D01*
X113602770Y-64604200D01*
X113172439Y-64604200D01*
X113051077Y-64654470D01*
X112958190Y-64747357D01*
X112907920Y-64868719D01*
X111297880Y-64868719D01*
X111297880Y-64599479D01*
X111247610Y-64478117D01*
X111154723Y-64385230D01*
X111033361Y-64334960D01*
X110603030Y-64334960D01*
X110520480Y-64417510D01*
X110164880Y-64417510D01*
X110082330Y-64334960D01*
X109651999Y-64334960D01*
X109530637Y-64385230D01*
X109437750Y-64478117D01*
X109387480Y-64599479D01*
X109117200Y-64599479D01*
X109117200Y-63716359D01*
X116607080Y-63716359D01*
X116607080Y-64321690D01*
X116689630Y-64404240D01*
X117759480Y-64404240D01*
X117759480Y-63534390D01*
X118115080Y-63534390D01*
X118115080Y-64404240D01*
X119184930Y-64404240D01*
X119267480Y-64321690D01*
X119267480Y-63716359D01*
X119217210Y-63594997D01*
X119124323Y-63502110D01*
X119002961Y-63451840D01*
X118197630Y-63451840D01*
X118115080Y-63534390D01*
X117759480Y-63534390D01*
X117676930Y-63451840D01*
X116871599Y-63451840D01*
X116750237Y-63502110D01*
X116657350Y-63594997D01*
X116607080Y-63716359D01*
X109117200Y-63716359D01*
X109117200Y-61865510D01*
X116562880Y-61865510D01*
X116562880Y-62470841D01*
X116613150Y-62592203D01*
X116706037Y-62685090D01*
X116827399Y-62735360D01*
X117632730Y-62735360D01*
X117715280Y-62652810D01*
X117715280Y-61782960D01*
X118070880Y-61782960D01*
X118070880Y-62652810D01*
X118153430Y-62735360D01*
X118958761Y-62735360D01*
X119080123Y-62685090D01*
X119173010Y-62592203D01*
X119223280Y-62470841D01*
X119223280Y-61865510D01*
X119140730Y-61782960D01*
X118070880Y-61782960D01*
X117715280Y-61782960D01*
X116645430Y-61782960D01*
X116562880Y-61865510D01*
X109117200Y-61865510D01*
X109117200Y-60739479D01*
X116562880Y-60739479D01*
X116562880Y-61344810D01*
X116645430Y-61427360D01*
X117715280Y-61427360D01*
X117715280Y-60557510D01*
X118070880Y-60557510D01*
X118070880Y-61427360D01*
X119140730Y-61427360D01*
X119223280Y-61344810D01*
X119223280Y-60739479D01*
X119173010Y-60618117D01*
X119080123Y-60525230D01*
X118958761Y-60474960D01*
X118153430Y-60474960D01*
X118070880Y-60557510D01*
X117715280Y-60557510D01*
X117632730Y-60474960D01*
X116827399Y-60474960D01*
X116706037Y-60525230D01*
X116613150Y-60618117D01*
X116562880Y-60739479D01*
X109117200Y-60739479D01*
X109117200Y-57945841D01*
X117668181Y-57945841D01*
X117913479Y-58410313D01*
X118317850Y-58745558D01*
X118574002Y-58851644D01*
X118780560Y-58812559D01*
X118780560Y-57739280D01*
X117706488Y-57739280D01*
X117668181Y-57945841D01*
X109117200Y-57945841D01*
X109117200Y-56285200D01*
X118540478Y-56285200D01*
X118317850Y-56377402D01*
G36*
X133497540Y-73003778D02*
X133527573Y-83235062D01*
X120472200Y-83109530D01*
X120472200Y-80970120D01*
X127087525Y-80970120D01*
X127387989Y-82775452D01*
X127406446Y-82842545D01*
X127478763Y-82954929D01*
X127589107Y-83030324D01*
X127720090Y-83056849D01*
X128219200Y-83056849D01*
X128219200Y-80970120D01*
X128320800Y-80970120D01*
X128320800Y-83056849D01*
X128819910Y-83056849D01*
X128889122Y-83049658D01*
X129011855Y-82996772D01*
X129104342Y-82900303D01*
X129152011Y-82775452D01*
X129452475Y-80970120D01*
X128320800Y-80970120D01*
X128219200Y-80970120D01*
X127087525Y-80970120D01*
X120472200Y-80970120D01*
X120472200Y-79173732D01*
X126788549Y-79173732D01*
X127070615Y-80868520D01*
X128219200Y-80868520D01*
X128219200Y-78781791D01*
X128320800Y-78781791D01*
X128320800Y-80868520D01*
X129469385Y-80868520D01*
X129751451Y-79173732D01*
X129732994Y-78996095D01*
X129660677Y-78883711D01*
X129550333Y-78808316D01*
X129419350Y-78781791D01*
X128320800Y-78781791D01*
X128219200Y-78781791D01*
X127120650Y-78781791D01*
X126948453Y-78829160D01*
X126849466Y-78918947D01*
X126793210Y-79040172D01*
X126788549Y-79173732D01*
X120472200Y-79173732D01*
X120472200Y-76333350D01*
X126393800Y-76333350D01*
X126393800Y-77165681D01*
X126444070Y-77287043D01*
X126536957Y-77379930D01*
X126658319Y-77430200D01*
X128390650Y-77430200D01*
X128473200Y-77347650D01*
X128473200Y-76250800D01*
X128574800Y-76250800D01*
X128574800Y-77347650D01*
X128657350Y-77430200D01*
X130389681Y-77430200D01*
X130511043Y-77379930D01*
X130603930Y-77287043D01*
X130654200Y-77165681D01*
X130654200Y-76333350D01*
X130571650Y-76250800D01*
X128574800Y-76250800D01*
X128473200Y-76250800D01*
X126476350Y-76250800D01*
X126393800Y-76333350D01*
X120472200Y-76333350D01*
X120472200Y-75234319D01*
X126393800Y-75234319D01*
X126393800Y-76066650D01*
X126476350Y-76149200D01*
X128473200Y-76149200D01*
X128473200Y-75052350D01*
X128574800Y-75052350D01*
X128574800Y-76149200D01*
X130571650Y-76149200D01*
X130654200Y-76066650D01*
X130654200Y-75234319D01*
X130603930Y-75112957D01*
X130511043Y-75020070D01*
X130389681Y-74969800D01*
X128657350Y-74969800D01*
X128574800Y-75052350D01*
X128473200Y-75052350D01*
X128390650Y-74969800D01*
X126658319Y-74969800D01*
X126536957Y-75020070D01*
X126444070Y-75112957D01*
X126393800Y-75234319D01*
X120472200Y-75234319D01*
X120472200Y-73783833D01*
X120515144Y-73720983D01*
X120541669Y-73590000D01*
X120541669Y-72857508D01*
X120555205Y-72860200D01*
X121154795Y-72860200D01*
X121173412Y-72856497D01*
X133497540Y-73003778D01*
X133497540Y-73003778D01*
G37*
X133497540Y-73003778D02*
X133527573Y-83235062D01*
X120472200Y-83109530D01*
X120472200Y-80970120D01*
X127087525Y-80970120D01*
X127387989Y-82775452D01*
X127406446Y-82842545D01*
X127478763Y-82954929D01*
X127589107Y-83030324D01*
X127720090Y-83056849D01*
X128219200Y-83056849D01*
X128219200Y-80970120D01*
X128320800Y-80970120D01*
X128320800Y-83056849D01*
X128819910Y-83056849D01*
X128889122Y-83049658D01*
X129011855Y-82996772D01*
X129104342Y-82900303D01*
X129152011Y-82775452D01*
X129452475Y-80970120D01*
X128320800Y-80970120D01*
X128219200Y-80970120D01*
X127087525Y-80970120D01*
X120472200Y-80970120D01*
X120472200Y-79173732D01*
X126788549Y-79173732D01*
X127070615Y-80868520D01*
X128219200Y-80868520D01*
X128219200Y-78781791D01*
X128320800Y-78781791D01*
X128320800Y-80868520D01*
X129469385Y-80868520D01*
X129751451Y-79173732D01*
X129732994Y-78996095D01*
X129660677Y-78883711D01*
X129550333Y-78808316D01*
X129419350Y-78781791D01*
X128320800Y-78781791D01*
X128219200Y-78781791D01*
X127120650Y-78781791D01*
X126948453Y-78829160D01*
X126849466Y-78918947D01*
X126793210Y-79040172D01*
X126788549Y-79173732D01*
X120472200Y-79173732D01*
X120472200Y-76333350D01*
X126393800Y-76333350D01*
X126393800Y-77165681D01*
X126444070Y-77287043D01*
X126536957Y-77379930D01*
X126658319Y-77430200D01*
X128390650Y-77430200D01*
X128473200Y-77347650D01*
X128473200Y-76250800D01*
X128574800Y-76250800D01*
X128574800Y-77347650D01*
X128657350Y-77430200D01*
X130389681Y-77430200D01*
X130511043Y-77379930D01*
X130603930Y-77287043D01*
X130654200Y-77165681D01*
X130654200Y-76333350D01*
X130571650Y-76250800D01*
X128574800Y-76250800D01*
X128473200Y-76250800D01*
X126476350Y-76250800D01*
X126393800Y-76333350D01*
X120472200Y-76333350D01*
X120472200Y-75234319D01*
X126393800Y-75234319D01*
X126393800Y-76066650D01*
X126476350Y-76149200D01*
X128473200Y-76149200D01*
X128473200Y-75052350D01*
X128574800Y-75052350D01*
X128574800Y-76149200D01*
X130571650Y-76149200D01*
X130654200Y-76066650D01*
X130654200Y-75234319D01*
X130603930Y-75112957D01*
X130511043Y-75020070D01*
X130389681Y-74969800D01*
X128657350Y-74969800D01*
X128574800Y-75052350D01*
X128473200Y-75052350D01*
X128390650Y-74969800D01*
X126658319Y-74969800D01*
X126536957Y-75020070D01*
X126444070Y-75112957D01*
X126393800Y-75234319D01*
X120472200Y-75234319D01*
X120472200Y-73783833D01*
X120515144Y-73720983D01*
X120541669Y-73590000D01*
X120541669Y-72857508D01*
X120555205Y-72860200D01*
X121154795Y-72860200D01*
X121173412Y-72856497D01*
X133497540Y-73003778D01*
G36*
X133527800Y-105258800D02*
X120716280Y-105258800D01*
X120703485Y-104134920D01*
X121629170Y-104134920D01*
X121711720Y-104052370D01*
X121711720Y-102839520D01*
X121813320Y-102839520D01*
X121813320Y-104052370D01*
X121895870Y-104134920D01*
X122844201Y-104134920D01*
X122965563Y-104084650D01*
X123058450Y-103991763D01*
X123108720Y-103870401D01*
X123108720Y-102922070D01*
X123026170Y-102839520D01*
X121813320Y-102839520D01*
X121711720Y-102839520D01*
X121691720Y-102839520D01*
X121691720Y-102737920D01*
X121711720Y-102737920D01*
X121711720Y-101525070D01*
X121813320Y-101525070D01*
X121813320Y-102737920D01*
X123026170Y-102737920D01*
X123108720Y-102655370D01*
X123108720Y-101707039D01*
X123058450Y-101585677D01*
X122965563Y-101492790D01*
X122844201Y-101442520D01*
X121895870Y-101442520D01*
X121813320Y-101525070D01*
X121711720Y-101525070D01*
X121629170Y-101442520D01*
X120680839Y-101442520D01*
X120672871Y-101445821D01*
X120645493Y-99040950D01*
X121135400Y-99040950D01*
X121135400Y-99773281D01*
X121185670Y-99894643D01*
X121278557Y-99987530D01*
X121399919Y-100037800D01*
X122332250Y-100037800D01*
X122414800Y-99955250D01*
X122414800Y-98958400D01*
X122516400Y-98958400D01*
X122516400Y-99955250D01*
X122598950Y-100037800D01*
X123531281Y-100037800D01*
X123652643Y-99987530D01*
X123745530Y-99894643D01*
X123795800Y-99773281D01*
X123795800Y-99040950D01*
X123713250Y-98958400D01*
X122516400Y-98958400D01*
X122414800Y-98958400D01*
X121217950Y-98958400D01*
X121135400Y-99040950D01*
X120645493Y-99040950D01*
X120634120Y-98041919D01*
X121135400Y-98041919D01*
X121135400Y-98774250D01*
X121217950Y-98856800D01*
X122414800Y-98856800D01*
X122414800Y-97859950D01*
X122516400Y-97859950D01*
X122516400Y-98856800D01*
X123713250Y-98856800D01*
X123795800Y-98774250D01*
X123795800Y-98041919D01*
X123745530Y-97920557D01*
X123652643Y-97827670D01*
X123531281Y-97777400D01*
X122598950Y-97777400D01*
X122516400Y-97859950D01*
X122414800Y-97859950D01*
X122332250Y-97777400D01*
X121399919Y-97777400D01*
X121278557Y-97827670D01*
X121185670Y-97920557D01*
X121135400Y-98041919D01*
X120634120Y-98041919D01*
X120603969Y-95393510D01*
X121208040Y-95393510D01*
X121208040Y-96125841D01*
X121258310Y-96247203D01*
X121351197Y-96340090D01*
X121472559Y-96390360D01*
X122404890Y-96390360D01*
X122487440Y-96307810D01*
X122487440Y-95310960D01*
X122589040Y-95310960D01*
X122589040Y-96307810D01*
X122671590Y-96390360D01*
X123603921Y-96390360D01*
X123725283Y-96340090D01*
X123818170Y-96247203D01*
X123868440Y-96125841D01*
X123868440Y-95393510D01*
X123785890Y-95310960D01*
X122589040Y-95310960D01*
X122487440Y-95310960D01*
X121290590Y-95310960D01*
X121208040Y-95393510D01*
X120603969Y-95393510D01*
X120592596Y-94394479D01*
X121208040Y-94394479D01*
X121208040Y-95126810D01*
X121290590Y-95209360D01*
X122487440Y-95209360D01*
X122487440Y-94212510D01*
X122589040Y-94212510D01*
X122589040Y-95209360D01*
X123785890Y-95209360D01*
X123868440Y-95126810D01*
X123868440Y-94394479D01*
X123818170Y-94273117D01*
X123725283Y-94180230D01*
X123603921Y-94129960D01*
X122671590Y-94129960D01*
X122589040Y-94212510D01*
X122487440Y-94212510D01*
X122404890Y-94129960D01*
X121472559Y-94129960D01*
X121351197Y-94180230D01*
X121258310Y-94273117D01*
X121208040Y-94394479D01*
X120592596Y-94394479D01*
X120589396Y-94113350D01*
X126693930Y-94113350D01*
X126693930Y-95545551D01*
X126744200Y-95666913D01*
X126837087Y-95759800D01*
X126958449Y-95810070D01*
X128390650Y-95810070D01*
X128473200Y-95727520D01*
X128473200Y-94030800D01*
X128574800Y-94030800D01*
X128574800Y-95727520D01*
X128657350Y-95810070D01*
X130089551Y-95810070D01*
X130210913Y-95759800D01*
X130303800Y-95666913D01*
X130354070Y-95545551D01*
X130354070Y-94113350D01*
X130271520Y-94030800D01*
X128574800Y-94030800D01*
X128473200Y-94030800D01*
X126776480Y-94030800D01*
X126693930Y-94113350D01*
X120589396Y-94113350D01*
X120565567Y-92020390D01*
X121216680Y-92020390D01*
X121216680Y-92752721D01*
X121266950Y-92874083D01*
X121359837Y-92966970D01*
X121481199Y-93017240D01*
X122413530Y-93017240D01*
X122496080Y-92934690D01*
X122496080Y-91937840D01*
X122597680Y-91937840D01*
X122597680Y-92934690D01*
X122680230Y-93017240D01*
X123612561Y-93017240D01*
X123733923Y-92966970D01*
X123826810Y-92874083D01*
X123877080Y-92752721D01*
X123877080Y-92414449D01*
X126693930Y-92414449D01*
X126693930Y-93846650D01*
X126776480Y-93929200D01*
X128473200Y-93929200D01*
X128473200Y-92232480D01*
X128574800Y-92232480D01*
X128574800Y-93929200D01*
X130271520Y-93929200D01*
X130354070Y-93846650D01*
X130354070Y-92414449D01*
X130303800Y-92293087D01*
X130210913Y-92200200D01*
X130089551Y-92149930D01*
X128657350Y-92149930D01*
X128574800Y-92232480D01*
X128473200Y-92232480D01*
X128390650Y-92149930D01*
X126958449Y-92149930D01*
X126837087Y-92200200D01*
X126744200Y-92293087D01*
X126693930Y-92414449D01*
X123877080Y-92414449D01*
X123877080Y-92020390D01*
X123794530Y-91937840D01*
X122597680Y-91937840D01*
X122496080Y-91937840D01*
X121299230Y-91937840D01*
X121216680Y-92020390D01*
X120565567Y-92020390D01*
X120554193Y-91021359D01*
X121216680Y-91021359D01*
X121216680Y-91753690D01*
X121299230Y-91836240D01*
X122496080Y-91836240D01*
X122496080Y-90839390D01*
X122597680Y-90839390D01*
X122597680Y-91836240D01*
X123794530Y-91836240D01*
X123877080Y-91753690D01*
X123877080Y-91021359D01*
X123826810Y-90899997D01*
X123733923Y-90807110D01*
X123612561Y-90756840D01*
X122680230Y-90756840D01*
X122597680Y-90839390D01*
X122496080Y-90839390D01*
X122413530Y-90756840D01*
X121481199Y-90756840D01*
X121359837Y-90807110D01*
X121266950Y-90899997D01*
X121216680Y-91021359D01*
X120554193Y-91021359D01*
X120525892Y-88535510D01*
X121303040Y-88535510D01*
X121303040Y-89267841D01*
X121353310Y-89389203D01*
X121446197Y-89482090D01*
X121567559Y-89532360D01*
X122499890Y-89532360D01*
X122582440Y-89449810D01*
X122582440Y-88452960D01*
X122684040Y-88452960D01*
X122684040Y-89449810D01*
X122766590Y-89532360D01*
X123698921Y-89532360D01*
X123820283Y-89482090D01*
X123913170Y-89389203D01*
X123963440Y-89267841D01*
X123963440Y-88535510D01*
X123894198Y-88466268D01*
X126788549Y-88466268D01*
X126807006Y-88643905D01*
X126879323Y-88756289D01*
X126989667Y-88831684D01*
X127120650Y-88858209D01*
X128219200Y-88858209D01*
X128219200Y-86771480D01*
X128320800Y-86771480D01*
X128320800Y-88858209D01*
X129419350Y-88858209D01*
X129591547Y-88810840D01*
X129690534Y-88721053D01*
X129746790Y-88599828D01*
X129751451Y-88466268D01*
X129469385Y-86771480D01*
X128320800Y-86771480D01*
X128219200Y-86771480D01*
X127070615Y-86771480D01*
X126788549Y-88466268D01*
X123894198Y-88466268D01*
X123880890Y-88452960D01*
X122684040Y-88452960D01*
X122582440Y-88452960D01*
X121385590Y-88452960D01*
X121303040Y-88535510D01*
X120525892Y-88535510D01*
X120514518Y-87536479D01*
X121303040Y-87536479D01*
X121303040Y-88268810D01*
X121385590Y-88351360D01*
X122582440Y-88351360D01*
X122582440Y-87354510D01*
X122684040Y-87354510D01*
X122684040Y-88351360D01*
X123880890Y-88351360D01*
X123963440Y-88268810D01*
X123963440Y-87536479D01*
X123913170Y-87415117D01*
X123820283Y-87322230D01*
X123698921Y-87271960D01*
X122766590Y-87271960D01*
X122684040Y-87354510D01*
X122582440Y-87354510D01*
X122499890Y-87271960D01*
X121567559Y-87271960D01*
X121446197Y-87322230D01*
X121353310Y-87415117D01*
X121303040Y-87536479D01*
X120514518Y-87536479D01*
X120504652Y-86669880D01*
X127087525Y-86669880D01*
X128219200Y-86669880D01*
X128219200Y-84583151D01*
X128320800Y-84583151D01*
X128320800Y-86669880D01*
X129452475Y-86669880D01*
X129152011Y-84864548D01*
X129133554Y-84797455D01*
X129061237Y-84685071D01*
X128950893Y-84609676D01*
X128819910Y-84583151D01*
X128320800Y-84583151D01*
X128219200Y-84583151D01*
X127720090Y-84583151D01*
X127650878Y-84590342D01*
X127528145Y-84643228D01*
X127435658Y-84739697D01*
X127387989Y-84864548D01*
X127087525Y-86669880D01*
X120504652Y-86669880D01*
X120473070Y-83895993D01*
X133527800Y-83860846D01*
X133527800Y-105258800D01*
X133527800Y-105258800D01*
G37*
X133527800Y-105258800D02*
X120716280Y-105258800D01*
X120703485Y-104134920D01*
X121629170Y-104134920D01*
X121711720Y-104052370D01*
X121711720Y-102839520D01*
X121813320Y-102839520D01*
X121813320Y-104052370D01*
X121895870Y-104134920D01*
X122844201Y-104134920D01*
X122965563Y-104084650D01*
X123058450Y-103991763D01*
X123108720Y-103870401D01*
X123108720Y-102922070D01*
X123026170Y-102839520D01*
X121813320Y-102839520D01*
X121711720Y-102839520D01*
X121691720Y-102839520D01*
X121691720Y-102737920D01*
X121711720Y-102737920D01*
X121711720Y-101525070D01*
X121813320Y-101525070D01*
X121813320Y-102737920D01*
X123026170Y-102737920D01*
X123108720Y-102655370D01*
X123108720Y-101707039D01*
X123058450Y-101585677D01*
X122965563Y-101492790D01*
X122844201Y-101442520D01*
X121895870Y-101442520D01*
X121813320Y-101525070D01*
X121711720Y-101525070D01*
X121629170Y-101442520D01*
X120680839Y-101442520D01*
X120672871Y-101445821D01*
X120645493Y-99040950D01*
X121135400Y-99040950D01*
X121135400Y-99773281D01*
X121185670Y-99894643D01*
X121278557Y-99987530D01*
X121399919Y-100037800D01*
X122332250Y-100037800D01*
X122414800Y-99955250D01*
X122414800Y-98958400D01*
X122516400Y-98958400D01*
X122516400Y-99955250D01*
X122598950Y-100037800D01*
X123531281Y-100037800D01*
X123652643Y-99987530D01*
X123745530Y-99894643D01*
X123795800Y-99773281D01*
X123795800Y-99040950D01*
X123713250Y-98958400D01*
X122516400Y-98958400D01*
X122414800Y-98958400D01*
X121217950Y-98958400D01*
X121135400Y-99040950D01*
X120645493Y-99040950D01*
X120634120Y-98041919D01*
X121135400Y-98041919D01*
X121135400Y-98774250D01*
X121217950Y-98856800D01*
X122414800Y-98856800D01*
X122414800Y-97859950D01*
X122516400Y-97859950D01*
X122516400Y-98856800D01*
X123713250Y-98856800D01*
X123795800Y-98774250D01*
X123795800Y-98041919D01*
X123745530Y-97920557D01*
X123652643Y-97827670D01*
X123531281Y-97777400D01*
X122598950Y-97777400D01*
X122516400Y-97859950D01*
X122414800Y-97859950D01*
X122332250Y-97777400D01*
X121399919Y-97777400D01*
X121278557Y-97827670D01*
X121185670Y-97920557D01*
X121135400Y-98041919D01*
X120634120Y-98041919D01*
X120603969Y-95393510D01*
X121208040Y-95393510D01*
X121208040Y-96125841D01*
X121258310Y-96247203D01*
X121351197Y-96340090D01*
X121472559Y-96390360D01*
X122404890Y-96390360D01*
X122487440Y-96307810D01*
X122487440Y-95310960D01*
X122589040Y-95310960D01*
X122589040Y-96307810D01*
X122671590Y-96390360D01*
X123603921Y-96390360D01*
X123725283Y-96340090D01*
X123818170Y-96247203D01*
X123868440Y-96125841D01*
X123868440Y-95393510D01*
X123785890Y-95310960D01*
X122589040Y-95310960D01*
X122487440Y-95310960D01*
X121290590Y-95310960D01*
X121208040Y-95393510D01*
X120603969Y-95393510D01*
X120592596Y-94394479D01*
X121208040Y-94394479D01*
X121208040Y-95126810D01*
X121290590Y-95209360D01*
X122487440Y-95209360D01*
X122487440Y-94212510D01*
X122589040Y-94212510D01*
X122589040Y-95209360D01*
X123785890Y-95209360D01*
X123868440Y-95126810D01*
X123868440Y-94394479D01*
X123818170Y-94273117D01*
X123725283Y-94180230D01*
X123603921Y-94129960D01*
X122671590Y-94129960D01*
X122589040Y-94212510D01*
X122487440Y-94212510D01*
X122404890Y-94129960D01*
X121472559Y-94129960D01*
X121351197Y-94180230D01*
X121258310Y-94273117D01*
X121208040Y-94394479D01*
X120592596Y-94394479D01*
X120589396Y-94113350D01*
X126693930Y-94113350D01*
X126693930Y-95545551D01*
X126744200Y-95666913D01*
X126837087Y-95759800D01*
X126958449Y-95810070D01*
X128390650Y-95810070D01*
X128473200Y-95727520D01*
X128473200Y-94030800D01*
X128574800Y-94030800D01*
X128574800Y-95727520D01*
X128657350Y-95810070D01*
X130089551Y-95810070D01*
X130210913Y-95759800D01*
X130303800Y-95666913D01*
X130354070Y-95545551D01*
X130354070Y-94113350D01*
X130271520Y-94030800D01*
X128574800Y-94030800D01*
X128473200Y-94030800D01*
X126776480Y-94030800D01*
X126693930Y-94113350D01*
X120589396Y-94113350D01*
X120565567Y-92020390D01*
X121216680Y-92020390D01*
X121216680Y-92752721D01*
X121266950Y-92874083D01*
X121359837Y-92966970D01*
X121481199Y-93017240D01*
X122413530Y-93017240D01*
X122496080Y-92934690D01*
X122496080Y-91937840D01*
X122597680Y-91937840D01*
X122597680Y-92934690D01*
X122680230Y-93017240D01*
X123612561Y-93017240D01*
X123733923Y-92966970D01*
X123826810Y-92874083D01*
X123877080Y-92752721D01*
X123877080Y-92414449D01*
X126693930Y-92414449D01*
X126693930Y-93846650D01*
X126776480Y-93929200D01*
X128473200Y-93929200D01*
X128473200Y-92232480D01*
X128574800Y-92232480D01*
X128574800Y-93929200D01*
X130271520Y-93929200D01*
X130354070Y-93846650D01*
X130354070Y-92414449D01*
X130303800Y-92293087D01*
X130210913Y-92200200D01*
X130089551Y-92149930D01*
X128657350Y-92149930D01*
X128574800Y-92232480D01*
X128473200Y-92232480D01*
X128390650Y-92149930D01*
X126958449Y-92149930D01*
X126837087Y-92200200D01*
X126744200Y-92293087D01*
X126693930Y-92414449D01*
X123877080Y-92414449D01*
X123877080Y-92020390D01*
X123794530Y-91937840D01*
X122597680Y-91937840D01*
X122496080Y-91937840D01*
X121299230Y-91937840D01*
X121216680Y-92020390D01*
X120565567Y-92020390D01*
X120554193Y-91021359D01*
X121216680Y-91021359D01*
X121216680Y-91753690D01*
X121299230Y-91836240D01*
X122496080Y-91836240D01*
X122496080Y-90839390D01*
X122597680Y-90839390D01*
X122597680Y-91836240D01*
X123794530Y-91836240D01*
X123877080Y-91753690D01*
X123877080Y-91021359D01*
X123826810Y-90899997D01*
X123733923Y-90807110D01*
X123612561Y-90756840D01*
X122680230Y-90756840D01*
X122597680Y-90839390D01*
X122496080Y-90839390D01*
X122413530Y-90756840D01*
X121481199Y-90756840D01*
X121359837Y-90807110D01*
X121266950Y-90899997D01*
X121216680Y-91021359D01*
X120554193Y-91021359D01*
X120525892Y-88535510D01*
X121303040Y-88535510D01*
X121303040Y-89267841D01*
X121353310Y-89389203D01*
X121446197Y-89482090D01*
X121567559Y-89532360D01*
X122499890Y-89532360D01*
X122582440Y-89449810D01*
X122582440Y-88452960D01*
X122684040Y-88452960D01*
X122684040Y-89449810D01*
X122766590Y-89532360D01*
X123698921Y-89532360D01*
X123820283Y-89482090D01*
X123913170Y-89389203D01*
X123963440Y-89267841D01*
X123963440Y-88535510D01*
X123894198Y-88466268D01*
X126788549Y-88466268D01*
X126807006Y-88643905D01*
X126879323Y-88756289D01*
X126989667Y-88831684D01*
X127120650Y-88858209D01*
X128219200Y-88858209D01*
X128219200Y-86771480D01*
X128320800Y-86771480D01*
X128320800Y-88858209D01*
X129419350Y-88858209D01*
X129591547Y-88810840D01*
X129690534Y-88721053D01*
X129746790Y-88599828D01*
X129751451Y-88466268D01*
X129469385Y-86771480D01*
X128320800Y-86771480D01*
X128219200Y-86771480D01*
X127070615Y-86771480D01*
X126788549Y-88466268D01*
X123894198Y-88466268D01*
X123880890Y-88452960D01*
X122684040Y-88452960D01*
X122582440Y-88452960D01*
X121385590Y-88452960D01*
X121303040Y-88535510D01*
X120525892Y-88535510D01*
X120514518Y-87536479D01*
X121303040Y-87536479D01*
X121303040Y-88268810D01*
X121385590Y-88351360D01*
X122582440Y-88351360D01*
X122582440Y-87354510D01*
X122684040Y-87354510D01*
X122684040Y-88351360D01*
X123880890Y-88351360D01*
X123963440Y-88268810D01*
X123963440Y-87536479D01*
X123913170Y-87415117D01*
X123820283Y-87322230D01*
X123698921Y-87271960D01*
X122766590Y-87271960D01*
X122684040Y-87354510D01*
X122582440Y-87354510D01*
X122499890Y-87271960D01*
X121567559Y-87271960D01*
X121446197Y-87322230D01*
X121353310Y-87415117D01*
X121303040Y-87536479D01*
X120514518Y-87536479D01*
X120504652Y-86669880D01*
X127087525Y-86669880D01*
X128219200Y-86669880D01*
X128219200Y-84583151D01*
X128320800Y-84583151D01*
X128320800Y-86669880D01*
X129452475Y-86669880D01*
X129152011Y-84864548D01*
X129133554Y-84797455D01*
X129061237Y-84685071D01*
X128950893Y-84609676D01*
X128819910Y-84583151D01*
X128320800Y-84583151D01*
X128219200Y-84583151D01*
X127720090Y-84583151D01*
X127650878Y-84590342D01*
X127528145Y-84643228D01*
X127435658Y-84739697D01*
X127387989Y-84864548D01*
X127087525Y-86669880D01*
X120504652Y-86669880D01*
X120473070Y-83895993D01*
X133527800Y-83860846D01*
X133527800Y-105258800D01*
G36*
X133527871Y-72566997D02*
X121247459Y-72438232D01*
X121154795Y-72419800D01*
X120599227Y-72419800D01*
X120599399Y-71860200D01*
X121154795Y-71860200D01*
X121230205Y-71845200D01*
X121756680Y-71845200D01*
X121930878Y-71810550D01*
X122078555Y-71711875D01*
X123025738Y-70764692D01*
X123137005Y-70764789D01*
X123368713Y-70669049D01*
X123546146Y-70491926D01*
X123642290Y-70260384D01*
X123642509Y-70009675D01*
X123546769Y-69777967D01*
X123369646Y-69600534D01*
X123138104Y-69504390D01*
X122887395Y-69504171D01*
X122690886Y-69585367D01*
X122777530Y-69498723D01*
X122827800Y-69377361D01*
X122827800Y-68947030D01*
X122745250Y-68864480D01*
X121925400Y-68864480D01*
X121925400Y-69559330D01*
X122007950Y-69641880D01*
X122563281Y-69641880D01*
X122649364Y-69606223D01*
X122478254Y-69777034D01*
X122382110Y-70008576D01*
X122382012Y-70120918D01*
X121568130Y-70934800D01*
X121230205Y-70934800D01*
X121154795Y-70919800D01*
X120599689Y-70919800D01*
X120600297Y-68947030D01*
X120667400Y-68947030D01*
X120667400Y-69377361D01*
X120717670Y-69498723D01*
X120810557Y-69591610D01*
X120931919Y-69641880D01*
X121487250Y-69641880D01*
X121569800Y-69559330D01*
X121569800Y-68864480D01*
X120749950Y-68864480D01*
X120667400Y-68947030D01*
X120600297Y-68947030D01*
X120600590Y-67995999D01*
X120667400Y-67995999D01*
X120667400Y-68426330D01*
X120749950Y-68508880D01*
X121569800Y-68508880D01*
X121569800Y-67814030D01*
X121925400Y-67814030D01*
X121925400Y-68508880D01*
X122745250Y-68508880D01*
X122827800Y-68426330D01*
X122827800Y-67995999D01*
X122777530Y-67874637D01*
X122684643Y-67781750D01*
X122563281Y-67731480D01*
X122007950Y-67731480D01*
X121925400Y-67814030D01*
X121569800Y-67814030D01*
X121487250Y-67731480D01*
X120931919Y-67731480D01*
X120810557Y-67781750D01*
X120717670Y-67874637D01*
X120667400Y-67995999D01*
X120600590Y-67995999D01*
X120600755Y-67460350D01*
X126393800Y-67460350D01*
X126393800Y-68165681D01*
X126444070Y-68287043D01*
X126536957Y-68379930D01*
X126658319Y-68430200D01*
X128263650Y-68430200D01*
X128346200Y-68347650D01*
X128346200Y-67377800D01*
X128701800Y-67377800D01*
X128701800Y-68347650D01*
X128784350Y-68430200D01*
X130389681Y-68430200D01*
X130511043Y-68379930D01*
X130603930Y-68287043D01*
X130654200Y-68165681D01*
X130654200Y-67460350D01*
X130571650Y-67377800D01*
X128701800Y-67377800D01*
X128346200Y-67377800D01*
X126476350Y-67377800D01*
X126393800Y-67460350D01*
X120600755Y-67460350D01*
X120601133Y-66234319D01*
X126393800Y-66234319D01*
X126393800Y-66939650D01*
X126476350Y-67022200D01*
X128346200Y-67022200D01*
X128346200Y-66052350D01*
X128701800Y-66052350D01*
X128701800Y-67022200D01*
X130571650Y-67022200D01*
X130654200Y-66939650D01*
X130654200Y-66234319D01*
X130603930Y-66112957D01*
X130511043Y-66020070D01*
X130389681Y-65969800D01*
X128784350Y-65969800D01*
X128701800Y-66052350D01*
X128346200Y-66052350D01*
X128263650Y-65969800D01*
X126658319Y-65969800D01*
X126536957Y-66020070D01*
X126444070Y-66112957D01*
X126393800Y-66234319D01*
X120601133Y-66234319D01*
X120601563Y-64842390D01*
X120607080Y-64842390D01*
X120607080Y-65447721D01*
X120657350Y-65569083D01*
X120750237Y-65661970D01*
X120871599Y-65712240D01*
X121676930Y-65712240D01*
X121759480Y-65629690D01*
X121759480Y-64759840D01*
X122115080Y-64759840D01*
X122115080Y-65629690D01*
X122197630Y-65712240D01*
X123002961Y-65712240D01*
X123124323Y-65661970D01*
X123217210Y-65569083D01*
X123267480Y-65447721D01*
X123267480Y-64842390D01*
X123184930Y-64759840D01*
X122115080Y-64759840D01*
X121759480Y-64759840D01*
X120689630Y-64759840D01*
X120607080Y-64842390D01*
X120601563Y-64842390D01*
X120601910Y-63716359D01*
X120607080Y-63716359D01*
X120607080Y-64321690D01*
X120689630Y-64404240D01*
X121759480Y-64404240D01*
X121759480Y-63534390D01*
X122115080Y-63534390D01*
X122115080Y-64404240D01*
X123184930Y-64404240D01*
X123267480Y-64321690D01*
X123267480Y-63716359D01*
X123217210Y-63594997D01*
X123124323Y-63502110D01*
X123002961Y-63451840D01*
X122197630Y-63451840D01*
X122115080Y-63534390D01*
X121759480Y-63534390D01*
X121676930Y-63451840D01*
X120871599Y-63451840D01*
X120750237Y-63502110D01*
X120657350Y-63594997D01*
X120607080Y-63716359D01*
X120601910Y-63716359D01*
X120602266Y-62565927D01*
X120613150Y-62592203D01*
X120706037Y-62685090D01*
X120827399Y-62735360D01*
X121632730Y-62735360D01*
X121715280Y-62652810D01*
X121715280Y-61782960D01*
X122070880Y-61782960D01*
X122070880Y-62652810D01*
X122153430Y-62735360D01*
X122958761Y-62735360D01*
X123080123Y-62685090D01*
X123173010Y-62592203D01*
X123223280Y-62470841D01*
X123223280Y-61865510D01*
X123140730Y-61782960D01*
X122070880Y-61782960D01*
X121715280Y-61782960D01*
X121695280Y-61782960D01*
X121695280Y-61427360D01*
X121715280Y-61427360D01*
X121715280Y-60557510D01*
X122070880Y-60557510D01*
X122070880Y-61427360D01*
X123140730Y-61427360D01*
X123223280Y-61344810D01*
X123223280Y-60739479D01*
X123173010Y-60618117D01*
X123080123Y-60525230D01*
X122958761Y-60474960D01*
X122153430Y-60474960D01*
X122070880Y-60557510D01*
X121715280Y-60557510D01*
X121632730Y-60474960D01*
X120827399Y-60474960D01*
X120706037Y-60525230D01*
X120613150Y-60618117D01*
X120602859Y-60642961D01*
X120603151Y-59696350D01*
X127201930Y-59696350D01*
X127201930Y-61001551D01*
X127252200Y-61122913D01*
X127345087Y-61215800D01*
X127466449Y-61266070D01*
X128771650Y-61266070D01*
X128854200Y-61183520D01*
X128854200Y-59613800D01*
X129209800Y-59613800D01*
X129209800Y-61183520D01*
X129292350Y-61266070D01*
X130597551Y-61266070D01*
X130718913Y-61215800D01*
X130811800Y-61122913D01*
X130862070Y-61001551D01*
X130862070Y-59696350D01*
X130779520Y-59613800D01*
X129209800Y-59613800D01*
X128854200Y-59613800D01*
X127284480Y-59613800D01*
X127201930Y-59696350D01*
X120603151Y-59696350D01*
X120603395Y-58907680D01*
X121238010Y-58907680D01*
X121320560Y-58825130D01*
X121320560Y-57739280D01*
X121676160Y-57739280D01*
X121676160Y-58825130D01*
X121758710Y-58907680D01*
X122580041Y-58907680D01*
X122701403Y-58857410D01*
X122794290Y-58764523D01*
X122844560Y-58643161D01*
X122844560Y-57870449D01*
X127201930Y-57870449D01*
X127201930Y-59175650D01*
X127284480Y-59258200D01*
X128854200Y-59258200D01*
X128854200Y-57688480D01*
X129209800Y-57688480D01*
X129209800Y-59258200D01*
X130779520Y-59258200D01*
X130862070Y-59175650D01*
X130862070Y-57870449D01*
X130811800Y-57749087D01*
X130718913Y-57656200D01*
X130597551Y-57605930D01*
X129292350Y-57605930D01*
X129209800Y-57688480D01*
X128854200Y-57688480D01*
X128771650Y-57605930D01*
X127466449Y-57605930D01*
X127345087Y-57656200D01*
X127252200Y-57749087D01*
X127201930Y-57870449D01*
X122844560Y-57870449D01*
X122844560Y-57821830D01*
X122762010Y-57739280D01*
X121676160Y-57739280D01*
X121320560Y-57739280D01*
X121300560Y-57739280D01*
X121300560Y-57383680D01*
X121320560Y-57383680D01*
X121320560Y-57363680D01*
X121676160Y-57363680D01*
X121676160Y-57383680D01*
X122762010Y-57383680D01*
X122844560Y-57301130D01*
X122844560Y-56479799D01*
X122794290Y-56358437D01*
X122721053Y-56285200D01*
X133542803Y-56285200D01*
X133527871Y-72566997D01*
X133527871Y-72566997D01*
G37*
X133527871Y-72566997D02*
X121247459Y-72438232D01*
X121154795Y-72419800D01*
X120599227Y-72419800D01*
X120599399Y-71860200D01*
X121154795Y-71860200D01*
X121230205Y-71845200D01*
X121756680Y-71845200D01*
X121930878Y-71810550D01*
X122078555Y-71711875D01*
X123025738Y-70764692D01*
X123137005Y-70764789D01*
X123368713Y-70669049D01*
X123546146Y-70491926D01*
X123642290Y-70260384D01*
X123642509Y-70009675D01*
X123546769Y-69777967D01*
X123369646Y-69600534D01*
X123138104Y-69504390D01*
X122887395Y-69504171D01*
X122690886Y-69585367D01*
X122777530Y-69498723D01*
X122827800Y-69377361D01*
X122827800Y-68947030D01*
X122745250Y-68864480D01*
X121925400Y-68864480D01*
X121925400Y-69559330D01*
X122007950Y-69641880D01*
X122563281Y-69641880D01*
X122649364Y-69606223D01*
X122478254Y-69777034D01*
X122382110Y-70008576D01*
X122382012Y-70120918D01*
X121568130Y-70934800D01*
X121230205Y-70934800D01*
X121154795Y-70919800D01*
X120599689Y-70919800D01*
X120600297Y-68947030D01*
X120667400Y-68947030D01*
X120667400Y-69377361D01*
X120717670Y-69498723D01*
X120810557Y-69591610D01*
X120931919Y-69641880D01*
X121487250Y-69641880D01*
X121569800Y-69559330D01*
X121569800Y-68864480D01*
X120749950Y-68864480D01*
X120667400Y-68947030D01*
X120600297Y-68947030D01*
X120600590Y-67995999D01*
X120667400Y-67995999D01*
X120667400Y-68426330D01*
X120749950Y-68508880D01*
X121569800Y-68508880D01*
X121569800Y-67814030D01*
X121925400Y-67814030D01*
X121925400Y-68508880D01*
X122745250Y-68508880D01*
X122827800Y-68426330D01*
X122827800Y-67995999D01*
X122777530Y-67874637D01*
X122684643Y-67781750D01*
X122563281Y-67731480D01*
X122007950Y-67731480D01*
X121925400Y-67814030D01*
X121569800Y-67814030D01*
X121487250Y-67731480D01*
X120931919Y-67731480D01*
X120810557Y-67781750D01*
X120717670Y-67874637D01*
X120667400Y-67995999D01*
X120600590Y-67995999D01*
X120600755Y-67460350D01*
X126393800Y-67460350D01*
X126393800Y-68165681D01*
X126444070Y-68287043D01*
X126536957Y-68379930D01*
X126658319Y-68430200D01*
X128263650Y-68430200D01*
X128346200Y-68347650D01*
X128346200Y-67377800D01*
X128701800Y-67377800D01*
X128701800Y-68347650D01*
X128784350Y-68430200D01*
X130389681Y-68430200D01*
X130511043Y-68379930D01*
X130603930Y-68287043D01*
X130654200Y-68165681D01*
X130654200Y-67460350D01*
X130571650Y-67377800D01*
X128701800Y-67377800D01*
X128346200Y-67377800D01*
X126476350Y-67377800D01*
X126393800Y-67460350D01*
X120600755Y-67460350D01*
X120601133Y-66234319D01*
X126393800Y-66234319D01*
X126393800Y-66939650D01*
X126476350Y-67022200D01*
X128346200Y-67022200D01*
X128346200Y-66052350D01*
X128701800Y-66052350D01*
X128701800Y-67022200D01*
X130571650Y-67022200D01*
X130654200Y-66939650D01*
X130654200Y-66234319D01*
X130603930Y-66112957D01*
X130511043Y-66020070D01*
X130389681Y-65969800D01*
X128784350Y-65969800D01*
X128701800Y-66052350D01*
X128346200Y-66052350D01*
X128263650Y-65969800D01*
X126658319Y-65969800D01*
X126536957Y-66020070D01*
X126444070Y-66112957D01*
X126393800Y-66234319D01*
X120601133Y-66234319D01*
X120601563Y-64842390D01*
X120607080Y-64842390D01*
X120607080Y-65447721D01*
X120657350Y-65569083D01*
X120750237Y-65661970D01*
X120871599Y-65712240D01*
X121676930Y-65712240D01*
X121759480Y-65629690D01*
X121759480Y-64759840D01*
X122115080Y-64759840D01*
X122115080Y-65629690D01*
X122197630Y-65712240D01*
X123002961Y-65712240D01*
X123124323Y-65661970D01*
X123217210Y-65569083D01*
X123267480Y-65447721D01*
X123267480Y-64842390D01*
X123184930Y-64759840D01*
X122115080Y-64759840D01*
X121759480Y-64759840D01*
X120689630Y-64759840D01*
X120607080Y-64842390D01*
X120601563Y-64842390D01*
X120601910Y-63716359D01*
X120607080Y-63716359D01*
X120607080Y-64321690D01*
X120689630Y-64404240D01*
X121759480Y-64404240D01*
X121759480Y-63534390D01*
X122115080Y-63534390D01*
X122115080Y-64404240D01*
X123184930Y-64404240D01*
X123267480Y-64321690D01*
X123267480Y-63716359D01*
X123217210Y-63594997D01*
X123124323Y-63502110D01*
X123002961Y-63451840D01*
X122197630Y-63451840D01*
X122115080Y-63534390D01*
X121759480Y-63534390D01*
X121676930Y-63451840D01*
X120871599Y-63451840D01*
X120750237Y-63502110D01*
X120657350Y-63594997D01*
X120607080Y-63716359D01*
X120601910Y-63716359D01*
X120602266Y-62565927D01*
X120613150Y-62592203D01*
X120706037Y-62685090D01*
X120827399Y-62735360D01*
X121632730Y-62735360D01*
X121715280Y-62652810D01*
X121715280Y-61782960D01*
X122070880Y-61782960D01*
X122070880Y-62652810D01*
X122153430Y-62735360D01*
X122958761Y-62735360D01*
X123080123Y-62685090D01*
X123173010Y-62592203D01*
X123223280Y-62470841D01*
X123223280Y-61865510D01*
X123140730Y-61782960D01*
X122070880Y-61782960D01*
X121715280Y-61782960D01*
X121695280Y-61782960D01*
X121695280Y-61427360D01*
X121715280Y-61427360D01*
X121715280Y-60557510D01*
X122070880Y-60557510D01*
X122070880Y-61427360D01*
X123140730Y-61427360D01*
X123223280Y-61344810D01*
X123223280Y-60739479D01*
X123173010Y-60618117D01*
X123080123Y-60525230D01*
X122958761Y-60474960D01*
X122153430Y-60474960D01*
X122070880Y-60557510D01*
X121715280Y-60557510D01*
X121632730Y-60474960D01*
X120827399Y-60474960D01*
X120706037Y-60525230D01*
X120613150Y-60618117D01*
X120602859Y-60642961D01*
X120603151Y-59696350D01*
X127201930Y-59696350D01*
X127201930Y-61001551D01*
X127252200Y-61122913D01*
X127345087Y-61215800D01*
X127466449Y-61266070D01*
X128771650Y-61266070D01*
X128854200Y-61183520D01*
X128854200Y-59613800D01*
X129209800Y-59613800D01*
X129209800Y-61183520D01*
X129292350Y-61266070D01*
X130597551Y-61266070D01*
X130718913Y-61215800D01*
X130811800Y-61122913D01*
X130862070Y-61001551D01*
X130862070Y-59696350D01*
X130779520Y-59613800D01*
X129209800Y-59613800D01*
X128854200Y-59613800D01*
X127284480Y-59613800D01*
X127201930Y-59696350D01*
X120603151Y-59696350D01*
X120603395Y-58907680D01*
X121238010Y-58907680D01*
X121320560Y-58825130D01*
X121320560Y-57739280D01*
X121676160Y-57739280D01*
X121676160Y-58825130D01*
X121758710Y-58907680D01*
X122580041Y-58907680D01*
X122701403Y-58857410D01*
X122794290Y-58764523D01*
X122844560Y-58643161D01*
X122844560Y-57870449D01*
X127201930Y-57870449D01*
X127201930Y-59175650D01*
X127284480Y-59258200D01*
X128854200Y-59258200D01*
X128854200Y-57688480D01*
X129209800Y-57688480D01*
X129209800Y-59258200D01*
X130779520Y-59258200D01*
X130862070Y-59175650D01*
X130862070Y-57870449D01*
X130811800Y-57749087D01*
X130718913Y-57656200D01*
X130597551Y-57605930D01*
X129292350Y-57605930D01*
X129209800Y-57688480D01*
X128854200Y-57688480D01*
X128771650Y-57605930D01*
X127466449Y-57605930D01*
X127345087Y-57656200D01*
X127252200Y-57749087D01*
X127201930Y-57870449D01*
X122844560Y-57870449D01*
X122844560Y-57821830D01*
X122762010Y-57739280D01*
X121676160Y-57739280D01*
X121320560Y-57739280D01*
X121300560Y-57739280D01*
X121300560Y-57383680D01*
X121320560Y-57383680D01*
X121320560Y-57363680D01*
X121676160Y-57363680D01*
X121676160Y-57383680D01*
X122762010Y-57383680D01*
X122844560Y-57301130D01*
X122844560Y-56479799D01*
X122794290Y-56358437D01*
X122721053Y-56285200D01*
X133542803Y-56285200D01*
X133527871Y-72566997D01*
M02*
