G04 #@! TF.FileFunction,Legend,Top*
%FSLAX46Y46*%
G04 Gerber Fmt 4.6, Leading zero omitted, Abs format (unit mm)*
G04 Created by KiCad (PCBNEW 0.201509151501+6198~30~ubuntu14.04.1-product) date Wed 04 Nov 2015 10:21:58 PM EST*
%MOMM*%
G01*
G04 APERTURE LIST*
%ADD10C,0.100000*%
%ADD11C,0.300000*%
%ADD12C,0.150000*%
G04 APERTURE END LIST*
D10*
D11*
X110723823Y-56923240D02*
X110580966Y-56851811D01*
X110366680Y-56851811D01*
X110152395Y-56923240D01*
X110009537Y-57066097D01*
X109938109Y-57208954D01*
X109866680Y-57494669D01*
X109866680Y-57708954D01*
X109938109Y-57994669D01*
X110009537Y-58137526D01*
X110152395Y-58280383D01*
X110366680Y-58351811D01*
X110509537Y-58351811D01*
X110723823Y-58280383D01*
X110795252Y-58208954D01*
X110795252Y-57708954D01*
X110509537Y-57708954D01*
X111438109Y-58351811D02*
X111438109Y-56851811D01*
X112295252Y-58351811D01*
X112295252Y-56851811D01*
X113009538Y-58351811D02*
X113009538Y-56851811D01*
X113366681Y-56851811D01*
X113580966Y-56923240D01*
X113723824Y-57066097D01*
X113795252Y-57208954D01*
X113866681Y-57494669D01*
X113866681Y-57708954D01*
X113795252Y-57994669D01*
X113723824Y-58137526D01*
X113580966Y-58280383D01*
X113366681Y-58351811D01*
X113009538Y-58351811D01*
X127389143Y-61662571D02*
X127889143Y-63162571D01*
X128389143Y-61662571D01*
X128889143Y-63162571D02*
X128889143Y-61662571D01*
X129603429Y-63162571D02*
X129603429Y-61662571D01*
X130460572Y-63162571D01*
X130460572Y-61662571D01*
X125881143Y-96206571D02*
X126381143Y-97706571D01*
X126881143Y-96206571D01*
X127666857Y-96206571D02*
X127952571Y-96206571D01*
X128095429Y-96278000D01*
X128238286Y-96420857D01*
X128309714Y-96706571D01*
X128309714Y-97206571D01*
X128238286Y-97492286D01*
X128095429Y-97635143D01*
X127952571Y-97706571D01*
X127666857Y-97706571D01*
X127524000Y-97635143D01*
X127381143Y-97492286D01*
X127309714Y-97206571D01*
X127309714Y-96706571D01*
X127381143Y-96420857D01*
X127524000Y-96278000D01*
X127666857Y-96206571D01*
X128952572Y-96206571D02*
X128952572Y-97420857D01*
X129024000Y-97563714D01*
X129095429Y-97635143D01*
X129238286Y-97706571D01*
X129524000Y-97706571D01*
X129666858Y-97635143D01*
X129738286Y-97563714D01*
X129809715Y-97420857D01*
X129809715Y-96206571D01*
X130309715Y-96206571D02*
X131166858Y-96206571D01*
X130738287Y-97706571D02*
X130738287Y-96206571D01*
D12*
X118893080Y-62630160D02*
X120893080Y-62630160D01*
X120893080Y-60580160D02*
X118893080Y-60580160D01*
X118937280Y-65607040D02*
X120937280Y-65607040D01*
X120937280Y-63557040D02*
X118937280Y-63557040D01*
X119997600Y-69536680D02*
X120997600Y-69536680D01*
X120997600Y-67836680D02*
X119997600Y-67836680D01*
X113013120Y-66434400D02*
X113013120Y-67434400D01*
X114713120Y-67434400D02*
X114713120Y-66434400D01*
X109492680Y-66165160D02*
X109492680Y-67165160D01*
X111192680Y-67165160D02*
X111192680Y-66165160D01*
X119633240Y-89427160D02*
X121633240Y-89427160D01*
X121633240Y-87377160D02*
X119633240Y-87377160D01*
X119546880Y-92912040D02*
X121546880Y-92912040D01*
X121546880Y-90862040D02*
X119546880Y-90862040D01*
X119538240Y-96285160D02*
X121538240Y-96285160D01*
X121538240Y-94235160D02*
X119538240Y-94235160D01*
X119465600Y-99932600D02*
X121465600Y-99932600D01*
X121465600Y-97882600D02*
X119465600Y-97882600D01*
X128270000Y-84319580D02*
X127568960Y-83369620D01*
X127568960Y-83369620D02*
X128971040Y-83369620D01*
X128971040Y-83369620D02*
X128270000Y-84319580D01*
X127568960Y-84319580D02*
X128971040Y-84319580D01*
X129669540Y-86070440D02*
X129519680Y-86070440D01*
X126870460Y-86070440D02*
X127020320Y-86070440D01*
X129669540Y-85619140D02*
X129468880Y-85619140D01*
X129618740Y-81569560D02*
X129519680Y-81569560D01*
X126921260Y-85619140D02*
X127071120Y-85619140D01*
X126870460Y-81569560D02*
X127020320Y-81569560D01*
X130020060Y-85619140D02*
X129669540Y-85619140D01*
X126519940Y-85619140D02*
X126870460Y-85619140D01*
X130020060Y-81569560D02*
X129669540Y-81569560D01*
X130020060Y-86070440D02*
X129669540Y-86070440D01*
X126519940Y-86070440D02*
X126870460Y-86070440D01*
X126519940Y-81569560D02*
X126870460Y-81569560D01*
X130020060Y-86070440D02*
X130020060Y-81569560D01*
X126519940Y-86070440D02*
X126519940Y-81569560D01*
X133604000Y-69668000D02*
X133604000Y-73732000D01*
X133604000Y-73732000D02*
X130556000Y-77288000D01*
X130556000Y-77288000D02*
X126492000Y-77288000D01*
X126492000Y-77288000D02*
X123444000Y-73732000D01*
X123444000Y-73732000D02*
X123444000Y-69668000D01*
X123444000Y-69668000D02*
X126492000Y-66112000D01*
X126492000Y-66112000D02*
X130556000Y-66112000D01*
X130556000Y-66112000D02*
X133604000Y-69668000D01*
X120228360Y-58831480D02*
X117688360Y-58831480D01*
X123048360Y-59111480D02*
X121498360Y-59111480D01*
X120228360Y-58831480D02*
X120228360Y-56291480D01*
X121498360Y-56011480D02*
X123048360Y-56011480D01*
X123048360Y-56011480D02*
X123048360Y-59111480D01*
X120228360Y-56291480D02*
X117688360Y-56291480D01*
X117688360Y-56291480D02*
X117688360Y-58831480D01*
X120492520Y-104058720D02*
X117952520Y-104058720D01*
X123312520Y-104338720D02*
X121762520Y-104338720D01*
X120492520Y-104058720D02*
X120492520Y-101518720D01*
X121762520Y-101238720D02*
X123312520Y-101238720D01*
X123312520Y-101238720D02*
X123312520Y-104338720D01*
X120492520Y-101518720D02*
X117952520Y-101518720D01*
X117952520Y-101518720D02*
X117952520Y-104058720D01*
X113073880Y-70016400D02*
X114273880Y-70016400D01*
X114273880Y-71766400D02*
X113073880Y-71766400D01*
X114787120Y-76407040D02*
X115987120Y-76407040D01*
X115987120Y-78157040D02*
X114787120Y-78157040D01*
X112566480Y-82906160D02*
X112566480Y-81706160D01*
X114316480Y-81706160D02*
X114316480Y-82906160D01*
X117980000Y-70790000D02*
X117980000Y-73890000D01*
X117980000Y-73890000D02*
X120880000Y-73890000D01*
X120880000Y-73890000D02*
X120880000Y-70790000D01*
X120880000Y-70790000D02*
X117980000Y-70790000D01*
X117821421Y-70390000D02*
G75*
G03X117821421Y-70390000I-141421J0D01*
G01*
X124435574Y-62008023D02*
X124387955Y-62055642D01*
X124245098Y-62103261D01*
X124149860Y-62103261D01*
X124007002Y-62055642D01*
X123911764Y-61960404D01*
X123864145Y-61865166D01*
X123816526Y-61674690D01*
X123816526Y-61531832D01*
X123864145Y-61341356D01*
X123911764Y-61246118D01*
X124007002Y-61150880D01*
X124149860Y-61103261D01*
X124245098Y-61103261D01*
X124387955Y-61150880D01*
X124435574Y-61198499D01*
X125387955Y-62103261D02*
X124816526Y-62103261D01*
X125102240Y-62103261D02*
X125102240Y-61103261D01*
X125007002Y-61246118D01*
X124911764Y-61341356D01*
X124816526Y-61388975D01*
X124572734Y-64852823D02*
X124525115Y-64900442D01*
X124382258Y-64948061D01*
X124287020Y-64948061D01*
X124144162Y-64900442D01*
X124048924Y-64805204D01*
X124001305Y-64709966D01*
X123953686Y-64519490D01*
X123953686Y-64376632D01*
X124001305Y-64186156D01*
X124048924Y-64090918D01*
X124144162Y-63995680D01*
X124287020Y-63948061D01*
X124382258Y-63948061D01*
X124525115Y-63995680D01*
X124572734Y-64043299D01*
X124953686Y-64043299D02*
X125001305Y-63995680D01*
X125096543Y-63948061D01*
X125334639Y-63948061D01*
X125429877Y-63995680D01*
X125477496Y-64043299D01*
X125525115Y-64138537D01*
X125525115Y-64233775D01*
X125477496Y-64376632D01*
X124906067Y-64948061D01*
X125525115Y-64948061D01*
X117181334Y-68429143D02*
X117133715Y-68476762D01*
X116990858Y-68524381D01*
X116895620Y-68524381D01*
X116752762Y-68476762D01*
X116657524Y-68381524D01*
X116609905Y-68286286D01*
X116562286Y-68095810D01*
X116562286Y-67952952D01*
X116609905Y-67762476D01*
X116657524Y-67667238D01*
X116752762Y-67572000D01*
X116895620Y-67524381D01*
X116990858Y-67524381D01*
X117133715Y-67572000D01*
X117181334Y-67619619D01*
X117514667Y-67524381D02*
X118133715Y-67524381D01*
X117800381Y-67905333D01*
X117943239Y-67905333D01*
X118038477Y-67952952D01*
X118086096Y-68000571D01*
X118133715Y-68095810D01*
X118133715Y-68333905D01*
X118086096Y-68429143D01*
X118038477Y-68476762D01*
X117943239Y-68524381D01*
X117657524Y-68524381D01*
X117562286Y-68476762D01*
X117514667Y-68429143D01*
X114194863Y-63448866D02*
X114242482Y-63496485D01*
X114290101Y-63639342D01*
X114290101Y-63734580D01*
X114242482Y-63877438D01*
X114147244Y-63972676D01*
X114052006Y-64020295D01*
X113861530Y-64067914D01*
X113718672Y-64067914D01*
X113528196Y-64020295D01*
X113432958Y-63972676D01*
X113337720Y-63877438D01*
X113290101Y-63734580D01*
X113290101Y-63639342D01*
X113337720Y-63496485D01*
X113385339Y-63448866D01*
X113623434Y-62591723D02*
X114290101Y-62591723D01*
X113242482Y-62829819D02*
X113956768Y-63067914D01*
X113956768Y-62448866D01*
X110867463Y-63432986D02*
X110915082Y-63480605D01*
X110962701Y-63623462D01*
X110962701Y-63718700D01*
X110915082Y-63861558D01*
X110819844Y-63956796D01*
X110724606Y-64004415D01*
X110534130Y-64052034D01*
X110391272Y-64052034D01*
X110200796Y-64004415D01*
X110105558Y-63956796D01*
X110010320Y-63861558D01*
X109962701Y-63718700D01*
X109962701Y-63623462D01*
X110010320Y-63480605D01*
X110057939Y-63432986D01*
X109962701Y-62528224D02*
X109962701Y-63004415D01*
X110438891Y-63052034D01*
X110391272Y-63004415D01*
X110343653Y-62909177D01*
X110343653Y-62671081D01*
X110391272Y-62575843D01*
X110438891Y-62528224D01*
X110534130Y-62480605D01*
X110772225Y-62480605D01*
X110867463Y-62528224D01*
X110915082Y-62575843D01*
X110962701Y-62671081D01*
X110962701Y-62909177D01*
X110915082Y-63004415D01*
X110867463Y-63052034D01*
X116165334Y-88241143D02*
X116117715Y-88288762D01*
X115974858Y-88336381D01*
X115879620Y-88336381D01*
X115736762Y-88288762D01*
X115641524Y-88193524D01*
X115593905Y-88098286D01*
X115546286Y-87907810D01*
X115546286Y-87764952D01*
X115593905Y-87574476D01*
X115641524Y-87479238D01*
X115736762Y-87384000D01*
X115879620Y-87336381D01*
X115974858Y-87336381D01*
X116117715Y-87384000D01*
X116165334Y-87431619D01*
X117022477Y-87336381D02*
X116832000Y-87336381D01*
X116736762Y-87384000D01*
X116689143Y-87431619D01*
X116593905Y-87574476D01*
X116546286Y-87764952D01*
X116546286Y-88145905D01*
X116593905Y-88241143D01*
X116641524Y-88288762D01*
X116736762Y-88336381D01*
X116927239Y-88336381D01*
X117022477Y-88288762D01*
X117070096Y-88241143D01*
X117117715Y-88145905D01*
X117117715Y-87907810D01*
X117070096Y-87812571D01*
X117022477Y-87764952D01*
X116927239Y-87717333D01*
X116736762Y-87717333D01*
X116641524Y-87764952D01*
X116593905Y-87812571D01*
X116546286Y-87907810D01*
X116165334Y-92813143D02*
X116117715Y-92860762D01*
X115974858Y-92908381D01*
X115879620Y-92908381D01*
X115736762Y-92860762D01*
X115641524Y-92765524D01*
X115593905Y-92670286D01*
X115546286Y-92479810D01*
X115546286Y-92336952D01*
X115593905Y-92146476D01*
X115641524Y-92051238D01*
X115736762Y-91956000D01*
X115879620Y-91908381D01*
X115974858Y-91908381D01*
X116117715Y-91956000D01*
X116165334Y-92003619D01*
X116498667Y-91908381D02*
X117165334Y-91908381D01*
X116736762Y-92908381D01*
X116165334Y-95530943D02*
X116117715Y-95578562D01*
X115974858Y-95626181D01*
X115879620Y-95626181D01*
X115736762Y-95578562D01*
X115641524Y-95483324D01*
X115593905Y-95388086D01*
X115546286Y-95197610D01*
X115546286Y-95054752D01*
X115593905Y-94864276D01*
X115641524Y-94769038D01*
X115736762Y-94673800D01*
X115879620Y-94626181D01*
X115974858Y-94626181D01*
X116117715Y-94673800D01*
X116165334Y-94721419D01*
X116736762Y-95054752D02*
X116641524Y-95007133D01*
X116593905Y-94959514D01*
X116546286Y-94864276D01*
X116546286Y-94816657D01*
X116593905Y-94721419D01*
X116641524Y-94673800D01*
X116736762Y-94626181D01*
X116927239Y-94626181D01*
X117022477Y-94673800D01*
X117070096Y-94721419D01*
X117117715Y-94816657D01*
X117117715Y-94864276D01*
X117070096Y-94959514D01*
X117022477Y-95007133D01*
X116927239Y-95054752D01*
X116736762Y-95054752D01*
X116641524Y-95102371D01*
X116593905Y-95149990D01*
X116546286Y-95245229D01*
X116546286Y-95435705D01*
X116593905Y-95530943D01*
X116641524Y-95578562D01*
X116736762Y-95626181D01*
X116927239Y-95626181D01*
X117022477Y-95578562D01*
X117070096Y-95530943D01*
X117117715Y-95435705D01*
X117117715Y-95245229D01*
X117070096Y-95149990D01*
X117022477Y-95102371D01*
X116927239Y-95054752D01*
X116165334Y-98401143D02*
X116117715Y-98448762D01*
X115974858Y-98496381D01*
X115879620Y-98496381D01*
X115736762Y-98448762D01*
X115641524Y-98353524D01*
X115593905Y-98258286D01*
X115546286Y-98067810D01*
X115546286Y-97924952D01*
X115593905Y-97734476D01*
X115641524Y-97639238D01*
X115736762Y-97544000D01*
X115879620Y-97496381D01*
X115974858Y-97496381D01*
X116117715Y-97544000D01*
X116165334Y-97591619D01*
X116641524Y-98496381D02*
X116832000Y-98496381D01*
X116927239Y-98448762D01*
X116974858Y-98401143D01*
X117070096Y-98258286D01*
X117117715Y-98067810D01*
X117117715Y-97686857D01*
X117070096Y-97591619D01*
X117022477Y-97544000D01*
X116927239Y-97496381D01*
X116736762Y-97496381D01*
X116641524Y-97544000D01*
X116593905Y-97591619D01*
X116546286Y-97686857D01*
X116546286Y-97924952D01*
X116593905Y-98020190D01*
X116641524Y-98067810D01*
X116736762Y-98115429D01*
X116927239Y-98115429D01*
X117022477Y-98067810D01*
X117070096Y-98020190D01*
X117117715Y-97924952D01*
X131341905Y-82240381D02*
X131341905Y-81240381D01*
X131580000Y-81240381D01*
X131722858Y-81288000D01*
X131818096Y-81383238D01*
X131865715Y-81478476D01*
X131913334Y-81668952D01*
X131913334Y-81811810D01*
X131865715Y-82002286D01*
X131818096Y-82097524D01*
X131722858Y-82192762D01*
X131580000Y-82240381D01*
X131341905Y-82240381D01*
X132865715Y-82240381D02*
X132294286Y-82240381D01*
X132580000Y-82240381D02*
X132580000Y-81240381D01*
X132484762Y-81383238D01*
X132389524Y-81478476D01*
X132294286Y-81526095D01*
X130422381Y-87381905D02*
X129422381Y-87381905D01*
X130422381Y-86810476D02*
X129850952Y-87239048D01*
X129422381Y-86810476D02*
X129993810Y-87381905D01*
X130135927Y-81058355D02*
X130135927Y-80582164D01*
X130421641Y-81153593D02*
X129421641Y-80820260D01*
X130421641Y-80486926D01*
X132929334Y-67508381D02*
X132453143Y-67508381D01*
X132453143Y-66508381D01*
X133786477Y-67508381D02*
X133215048Y-67508381D01*
X133500762Y-67508381D02*
X133500762Y-66508381D01*
X133405524Y-66651238D01*
X133310286Y-66746476D01*
X133215048Y-66794095D01*
X123472985Y-57841141D02*
X123472985Y-56841141D01*
X123853938Y-56841141D01*
X123949176Y-56888760D01*
X123996795Y-56936379D01*
X124044414Y-57031617D01*
X124044414Y-57174474D01*
X123996795Y-57269712D01*
X123949176Y-57317331D01*
X123853938Y-57364950D01*
X123472985Y-57364950D01*
X124996795Y-57841141D02*
X124425366Y-57841141D01*
X124711080Y-57841141D02*
X124711080Y-56841141D01*
X124615842Y-56983998D01*
X124520604Y-57079236D01*
X124425366Y-57126855D01*
X124118145Y-103444301D02*
X124118145Y-102444301D01*
X124499098Y-102444301D01*
X124594336Y-102491920D01*
X124641955Y-102539539D01*
X124689574Y-102634777D01*
X124689574Y-102777634D01*
X124641955Y-102872872D01*
X124594336Y-102920491D01*
X124499098Y-102968110D01*
X124118145Y-102968110D01*
X125070526Y-102539539D02*
X125118145Y-102491920D01*
X125213383Y-102444301D01*
X125451479Y-102444301D01*
X125546717Y-102491920D01*
X125594336Y-102539539D01*
X125641955Y-102634777D01*
X125641955Y-102730015D01*
X125594336Y-102872872D01*
X125022907Y-103444301D01*
X125641955Y-103444301D01*
X113507214Y-73443781D02*
X113173880Y-72967590D01*
X112935785Y-73443781D02*
X112935785Y-72443781D01*
X113316738Y-72443781D01*
X113411976Y-72491400D01*
X113459595Y-72539019D01*
X113507214Y-72634257D01*
X113507214Y-72777114D01*
X113459595Y-72872352D01*
X113411976Y-72919971D01*
X113316738Y-72967590D01*
X112935785Y-72967590D01*
X114459595Y-73443781D02*
X113888166Y-73443781D01*
X114173880Y-73443781D02*
X114173880Y-72443781D01*
X114078642Y-72586638D01*
X113983404Y-72681876D01*
X113888166Y-72729495D01*
X116759694Y-79918821D02*
X116426360Y-79442630D01*
X116188265Y-79918821D02*
X116188265Y-78918821D01*
X116569218Y-78918821D01*
X116664456Y-78966440D01*
X116712075Y-79014059D01*
X116759694Y-79109297D01*
X116759694Y-79252154D01*
X116712075Y-79347392D01*
X116664456Y-79395011D01*
X116569218Y-79442630D01*
X116188265Y-79442630D01*
X117140646Y-79014059D02*
X117188265Y-78966440D01*
X117283503Y-78918821D01*
X117521599Y-78918821D01*
X117616837Y-78966440D01*
X117664456Y-79014059D01*
X117712075Y-79109297D01*
X117712075Y-79204535D01*
X117664456Y-79347392D01*
X117093027Y-79918821D01*
X117712075Y-79918821D01*
X115423654Y-83363061D02*
X115090320Y-82886870D01*
X114852225Y-83363061D02*
X114852225Y-82363061D01*
X115233178Y-82363061D01*
X115328416Y-82410680D01*
X115376035Y-82458299D01*
X115423654Y-82553537D01*
X115423654Y-82696394D01*
X115376035Y-82791632D01*
X115328416Y-82839251D01*
X115233178Y-82886870D01*
X114852225Y-82886870D01*
X115756987Y-82363061D02*
X116376035Y-82363061D01*
X116042701Y-82744013D01*
X116185559Y-82744013D01*
X116280797Y-82791632D01*
X116328416Y-82839251D01*
X116376035Y-82934490D01*
X116376035Y-83172585D01*
X116328416Y-83267823D01*
X116280797Y-83315442D01*
X116185559Y-83363061D01*
X115899844Y-83363061D01*
X115804606Y-83315442D01*
X115756987Y-83267823D01*
X130310095Y-56348381D02*
X130881524Y-56348381D01*
X130595809Y-57348381D02*
X130595809Y-56348381D01*
X131214857Y-57348381D02*
X131214857Y-56348381D01*
X131595810Y-56348381D01*
X131691048Y-56396000D01*
X131738667Y-56443619D01*
X131786286Y-56538857D01*
X131786286Y-56681714D01*
X131738667Y-56776952D01*
X131691048Y-56824571D01*
X131595810Y-56872190D01*
X131214857Y-56872190D01*
X132738667Y-57348381D02*
X132167238Y-57348381D01*
X132452952Y-57348381D02*
X132452952Y-56348381D01*
X132357714Y-56491238D01*
X132262476Y-56586476D01*
X132167238Y-56634095D01*
X125738095Y-90892381D02*
X126309524Y-90892381D01*
X126023809Y-91892381D02*
X126023809Y-90892381D01*
X126642857Y-91892381D02*
X126642857Y-90892381D01*
X127023810Y-90892381D01*
X127119048Y-90940000D01*
X127166667Y-90987619D01*
X127214286Y-91082857D01*
X127214286Y-91225714D01*
X127166667Y-91320952D01*
X127119048Y-91368571D01*
X127023810Y-91416190D01*
X126642857Y-91416190D01*
X127595238Y-90987619D02*
X127642857Y-90940000D01*
X127738095Y-90892381D01*
X127976191Y-90892381D01*
X128071429Y-90940000D01*
X128119048Y-90987619D01*
X128166667Y-91082857D01*
X128166667Y-91178095D01*
X128119048Y-91320952D01*
X127547619Y-91892381D01*
X128166667Y-91892381D01*
X120142095Y-74128381D02*
X120142095Y-74937905D01*
X120189714Y-75033143D01*
X120237333Y-75080762D01*
X120332571Y-75128381D01*
X120523048Y-75128381D01*
X120618286Y-75080762D01*
X120665905Y-75033143D01*
X120713524Y-74937905D01*
X120713524Y-74128381D01*
X121713524Y-75128381D02*
X121142095Y-75128381D01*
X121427809Y-75128381D02*
X121427809Y-74128381D01*
X121332571Y-74271238D01*
X121237333Y-74366476D01*
X121142095Y-74414095D01*
M02*
