G04 #@! TF.FileFunction,Copper,L1,Top,Signal*
%FSLAX46Y46*%
G04 Gerber Fmt 4.6, Leading zero omitted, Abs format (unit mm)*
G04 Created by KiCad (PCBNEW 0.201509151501+6198~30~ubuntu14.04.1-product) date Sun 08 Nov 2015 02:29:05 PM EST*
%MOMM*%
G01*
G04 APERTURE LIST*
%ADD10C,0.100000*%
%ADD11C,1.524000*%
%ADD12R,2.000000X1.600000*%
%ADD13R,1.500000X1.250000*%
%ADD14R,1.250000X1.500000*%
%ADD15R,3.600000X1.800000*%
%ADD16R,2.032000X2.032000*%
%ADD17O,2.032000X2.032000*%
%ADD18R,1.500000X1.300000*%
%ADD19R,1.300000X1.500000*%
%ADD20R,2.999740X2.999740*%
%ADD21C,0.400000*%
%ADD22O,0.850000X0.280000*%
%ADD23R,1.650000X2.400000*%
%ADD24R,0.280000X0.700000*%
%ADD25R,1.198880X1.198880*%
%ADD26C,0.600000*%
%ADD27C,0.250000*%
%ADD28C,0.152400*%
G04 APERTURE END LIST*
D10*
D11*
X106934000Y-93980000D03*
X106934000Y-96520000D03*
X106934000Y-99060000D03*
X106934000Y-88900000D03*
X106934000Y-91440000D03*
X106934000Y-86360000D03*
X114808000Y-104140000D03*
X112268000Y-104140000D03*
X114808000Y-101600000D03*
X112268000Y-101600000D03*
X114808000Y-99060000D03*
X112268000Y-99060000D03*
X109728000Y-99060000D03*
X114808000Y-96520000D03*
X112268000Y-96520000D03*
X109728000Y-96520000D03*
X114808000Y-93980000D03*
X112268000Y-93980000D03*
X109728000Y-93980000D03*
X114808000Y-91440000D03*
X112268000Y-91440000D03*
X109728000Y-91440000D03*
X114808000Y-88900000D03*
X112268000Y-88900000D03*
X109728000Y-88900000D03*
X114808000Y-86360000D03*
X112268000Y-86360000D03*
X109728000Y-86360000D03*
X113792000Y-61468000D03*
X111760000Y-61468000D03*
X113792000Y-59436000D03*
X111760000Y-59436000D03*
X113792000Y-57404000D03*
X111760000Y-57404000D03*
D12*
X121893080Y-61605160D03*
X117893080Y-61605160D03*
X121937280Y-64582040D03*
X117937280Y-64582040D03*
D13*
X121747600Y-68686680D03*
X119247600Y-68686680D03*
D14*
X113863120Y-68184400D03*
X113863120Y-65684400D03*
X110342680Y-67915160D03*
X110342680Y-65415160D03*
D12*
X122396000Y-88138000D03*
X118396000Y-88138000D03*
X122142000Y-90932000D03*
X118142000Y-90932000D03*
X122110000Y-93472000D03*
X118110000Y-93472000D03*
X122110000Y-96266000D03*
X118110000Y-96266000D03*
D10*
G36*
X129419350Y-88521540D02*
X127120650Y-88521540D01*
X127720090Y-84919820D01*
X128819910Y-84919820D01*
X129419350Y-88521540D01*
X129419350Y-88521540D01*
G37*
G36*
X127120650Y-79118460D02*
X129419350Y-79118460D01*
X128819910Y-82720180D01*
X127720090Y-82720180D01*
X127120650Y-79118460D01*
X127120650Y-79118460D01*
G37*
D15*
X128524000Y-67200000D03*
X128524000Y-76200000D03*
D16*
X121498360Y-57561480D03*
D17*
X118958360Y-57561480D03*
D16*
X121762520Y-102788720D03*
D17*
X119222520Y-102788720D03*
D18*
X115023880Y-70891400D03*
X112323880Y-70891400D03*
X116737120Y-77282040D03*
X114037120Y-77282040D03*
D19*
X113441480Y-80956160D03*
X113441480Y-83656160D03*
D20*
X125730000Y-59690000D03*
X130302000Y-91694000D03*
D21*
X119880000Y-71640000D03*
X118880000Y-73140000D03*
X119880000Y-73140000D03*
X119380000Y-72390000D03*
X118880000Y-71640000D03*
D22*
X117905000Y-71390000D03*
X117905000Y-71890000D03*
X117905000Y-72390000D03*
X117905000Y-72890000D03*
X117905000Y-73390000D03*
X120855000Y-73390000D03*
X120855000Y-72890000D03*
X120855000Y-72390000D03*
X120855000Y-71890000D03*
X120855000Y-71390000D03*
D23*
X119380000Y-72390000D03*
D24*
X119630000Y-70840000D03*
X119130000Y-70840000D03*
X119630000Y-73940000D03*
X119130000Y-73940000D03*
D25*
X125542040Y-99314000D03*
X123444000Y-99314000D03*
D18*
X121158000Y-99314000D03*
X118458000Y-99314000D03*
D26*
X115422680Y-68244720D03*
X123012200Y-70134480D03*
X122224800Y-71963280D03*
X116621560Y-73009760D03*
X122428000Y-86360000D03*
X117856000Y-75692000D03*
D27*
X115422680Y-68244720D02*
X113923440Y-68244720D01*
X113923440Y-68244720D02*
X113863120Y-68184400D01*
X120855000Y-71390000D02*
X121756680Y-71390000D01*
X121756680Y-71390000D02*
X123012200Y-70134480D01*
X110342680Y-69184520D02*
X110342680Y-68719306D01*
X110342680Y-68719306D02*
X110342680Y-67915160D01*
X112323880Y-70891400D02*
X111323880Y-70891400D01*
X111323880Y-70891400D02*
X110342680Y-69910200D01*
X110342680Y-69910200D02*
X110342680Y-68719306D01*
X117905000Y-71390000D02*
X115522480Y-71390000D01*
X115522480Y-71390000D02*
X115023880Y-70891400D01*
X117905000Y-71390000D02*
X117620000Y-71390000D01*
X117620000Y-71390000D02*
X117619240Y-71389240D01*
X114037120Y-77282040D02*
X114037120Y-76382040D01*
X114037120Y-76382040D02*
X115798600Y-74620560D01*
X115798600Y-74620560D02*
X115798600Y-72918320D01*
X115798600Y-72918320D02*
X116826920Y-71890000D01*
X116826920Y-71890000D02*
X117905000Y-71890000D01*
X113441480Y-80956160D02*
X113441480Y-77877680D01*
X113441480Y-77877680D02*
X114037120Y-77282040D01*
X122224800Y-71963280D02*
X120928280Y-71963280D01*
X120928280Y-71963280D02*
X120855000Y-71890000D01*
X117905000Y-72390000D02*
X117241320Y-72390000D01*
X117241320Y-72390000D02*
X116621560Y-73009760D01*
X116737120Y-77282040D02*
X116737120Y-76810880D01*
X116737120Y-76810880D02*
X117856000Y-75692000D01*
X121158000Y-99314000D02*
X123444000Y-99314000D01*
X122000000Y-99060000D02*
X121746000Y-99314000D01*
D28*
G36*
X118317850Y-56377402D02*
X117913479Y-56712647D01*
X117668181Y-57177119D01*
X117706488Y-57383680D01*
X118780560Y-57383680D01*
X118780560Y-57363680D01*
X119136160Y-57363680D01*
X119136160Y-57383680D01*
X119156160Y-57383680D01*
X119156160Y-57739280D01*
X119136160Y-57739280D01*
X119136160Y-58812559D01*
X119342718Y-58851644D01*
X119598870Y-58745558D01*
X119809463Y-58570965D01*
X119760605Y-101562222D01*
X119606878Y-101498556D01*
X119400320Y-101537641D01*
X119400320Y-102610920D01*
X119420320Y-102610920D01*
X119420320Y-102966520D01*
X119400320Y-102966520D01*
X119400320Y-104039799D01*
X119606878Y-104078884D01*
X119757816Y-104016373D01*
X119756404Y-105258800D01*
X105561200Y-105258800D01*
X105561200Y-102978452D01*
X106373483Y-102978452D01*
X106651527Y-103651371D01*
X107165921Y-104166664D01*
X107838354Y-104445882D01*
X108566452Y-104446517D01*
X109239371Y-104168473D01*
X109754664Y-103654079D01*
X109954391Y-103173081D01*
X117932341Y-103173081D01*
X118177639Y-103637553D01*
X118582010Y-103972798D01*
X118838162Y-104078884D01*
X119044720Y-104039799D01*
X119044720Y-102966520D01*
X117970648Y-102966520D01*
X117932341Y-103173081D01*
X109954391Y-103173081D01*
X110033882Y-102981646D01*
X110034385Y-102404359D01*
X117932341Y-102404359D01*
X117970648Y-102610920D01*
X119044720Y-102610920D01*
X119044720Y-101537641D01*
X118838162Y-101498556D01*
X118582010Y-101604642D01*
X118177639Y-101939887D01*
X117932341Y-102404359D01*
X110034385Y-102404359D01*
X110034517Y-102253548D01*
X109756473Y-101580629D01*
X109242079Y-101065336D01*
X108569646Y-100786118D01*
X107841548Y-100785483D01*
X107168629Y-101063527D01*
X106653336Y-101577921D01*
X106374118Y-102250354D01*
X106373483Y-102978452D01*
X105561200Y-102978452D01*
X105561200Y-99574350D01*
X117377800Y-99574350D01*
X117377800Y-100029681D01*
X117428070Y-100151043D01*
X117520957Y-100243930D01*
X117642319Y-100294200D01*
X118197650Y-100294200D01*
X118280200Y-100211650D01*
X118280200Y-99491800D01*
X118635800Y-99491800D01*
X118635800Y-100211650D01*
X118718350Y-100294200D01*
X119273681Y-100294200D01*
X119395043Y-100243930D01*
X119487930Y-100151043D01*
X119538200Y-100029681D01*
X119538200Y-99574350D01*
X119455650Y-99491800D01*
X118635800Y-99491800D01*
X118280200Y-99491800D01*
X117460350Y-99491800D01*
X117377800Y-99574350D01*
X105561200Y-99574350D01*
X105561200Y-98598319D01*
X117377800Y-98598319D01*
X117377800Y-99053650D01*
X117460350Y-99136200D01*
X118280200Y-99136200D01*
X118280200Y-98416350D01*
X118635800Y-98416350D01*
X118635800Y-99136200D01*
X119455650Y-99136200D01*
X119538200Y-99053650D01*
X119538200Y-98598319D01*
X119487930Y-98476957D01*
X119395043Y-98384070D01*
X119273681Y-98333800D01*
X118718350Y-98333800D01*
X118635800Y-98416350D01*
X118280200Y-98416350D01*
X118197650Y-98333800D01*
X117642319Y-98333800D01*
X117520957Y-98384070D01*
X117428070Y-98476957D01*
X117377800Y-98598319D01*
X105561200Y-98598319D01*
X105561200Y-96526350D01*
X116779800Y-96526350D01*
X116779800Y-97131681D01*
X116830070Y-97253043D01*
X116922957Y-97345930D01*
X117044319Y-97396200D01*
X117849650Y-97396200D01*
X117932200Y-97313650D01*
X117932200Y-96443800D01*
X118287800Y-96443800D01*
X118287800Y-97313650D01*
X118370350Y-97396200D01*
X119175681Y-97396200D01*
X119297043Y-97345930D01*
X119389930Y-97253043D01*
X119440200Y-97131681D01*
X119440200Y-96526350D01*
X119357650Y-96443800D01*
X118287800Y-96443800D01*
X117932200Y-96443800D01*
X116862350Y-96443800D01*
X116779800Y-96526350D01*
X105561200Y-96526350D01*
X105561200Y-95400319D01*
X116779800Y-95400319D01*
X116779800Y-96005650D01*
X116862350Y-96088200D01*
X117932200Y-96088200D01*
X117932200Y-95218350D01*
X118287800Y-95218350D01*
X118287800Y-96088200D01*
X119357650Y-96088200D01*
X119440200Y-96005650D01*
X119440200Y-95400319D01*
X119389930Y-95278957D01*
X119297043Y-95186070D01*
X119175681Y-95135800D01*
X118370350Y-95135800D01*
X118287800Y-95218350D01*
X117932200Y-95218350D01*
X117849650Y-95135800D01*
X117044319Y-95135800D01*
X116922957Y-95186070D01*
X116830070Y-95278957D01*
X116779800Y-95400319D01*
X105561200Y-95400319D01*
X105561200Y-93732350D01*
X116779800Y-93732350D01*
X116779800Y-94337681D01*
X116830070Y-94459043D01*
X116922957Y-94551930D01*
X117044319Y-94602200D01*
X117849650Y-94602200D01*
X117932200Y-94519650D01*
X117932200Y-93649800D01*
X118287800Y-93649800D01*
X118287800Y-94519650D01*
X118370350Y-94602200D01*
X119175681Y-94602200D01*
X119297043Y-94551930D01*
X119389930Y-94459043D01*
X119440200Y-94337681D01*
X119440200Y-93732350D01*
X119357650Y-93649800D01*
X118287800Y-93649800D01*
X117932200Y-93649800D01*
X116862350Y-93649800D01*
X116779800Y-93732350D01*
X105561200Y-93732350D01*
X105561200Y-92606319D01*
X116779800Y-92606319D01*
X116779800Y-93211650D01*
X116862350Y-93294200D01*
X117932200Y-93294200D01*
X117932200Y-92424350D01*
X118287800Y-92424350D01*
X118287800Y-93294200D01*
X119357650Y-93294200D01*
X119440200Y-93211650D01*
X119440200Y-92606319D01*
X119389930Y-92484957D01*
X119297043Y-92392070D01*
X119175681Y-92341800D01*
X118370350Y-92341800D01*
X118287800Y-92424350D01*
X117932200Y-92424350D01*
X117849650Y-92341800D01*
X117044319Y-92341800D01*
X116922957Y-92392070D01*
X116830070Y-92484957D01*
X116779800Y-92606319D01*
X105561200Y-92606319D01*
X105561200Y-91192350D01*
X116811800Y-91192350D01*
X116811800Y-91797681D01*
X116862070Y-91919043D01*
X116954957Y-92011930D01*
X117076319Y-92062200D01*
X117881650Y-92062200D01*
X117964200Y-91979650D01*
X117964200Y-91109800D01*
X118319800Y-91109800D01*
X118319800Y-91979650D01*
X118402350Y-92062200D01*
X119207681Y-92062200D01*
X119329043Y-92011930D01*
X119421930Y-91919043D01*
X119472200Y-91797681D01*
X119472200Y-91192350D01*
X119389650Y-91109800D01*
X118319800Y-91109800D01*
X117964200Y-91109800D01*
X116894350Y-91109800D01*
X116811800Y-91192350D01*
X105561200Y-91192350D01*
X105561200Y-90066319D01*
X116811800Y-90066319D01*
X116811800Y-90671650D01*
X116894350Y-90754200D01*
X117964200Y-90754200D01*
X117964200Y-89884350D01*
X118319800Y-89884350D01*
X118319800Y-90754200D01*
X119389650Y-90754200D01*
X119472200Y-90671650D01*
X119472200Y-90066319D01*
X119421930Y-89944957D01*
X119329043Y-89852070D01*
X119207681Y-89801800D01*
X118402350Y-89801800D01*
X118319800Y-89884350D01*
X117964200Y-89884350D01*
X117881650Y-89801800D01*
X117076319Y-89801800D01*
X116954957Y-89852070D01*
X116862070Y-89944957D01*
X116811800Y-90066319D01*
X105561200Y-90066319D01*
X105561200Y-88398350D01*
X117065800Y-88398350D01*
X117065800Y-89003681D01*
X117116070Y-89125043D01*
X117208957Y-89217930D01*
X117330319Y-89268200D01*
X118135650Y-89268200D01*
X118218200Y-89185650D01*
X118218200Y-88315800D01*
X118573800Y-88315800D01*
X118573800Y-89185650D01*
X118656350Y-89268200D01*
X119461681Y-89268200D01*
X119583043Y-89217930D01*
X119675930Y-89125043D01*
X119726200Y-89003681D01*
X119726200Y-88398350D01*
X119643650Y-88315800D01*
X118573800Y-88315800D01*
X118218200Y-88315800D01*
X117148350Y-88315800D01*
X117065800Y-88398350D01*
X105561200Y-88398350D01*
X105561200Y-87272319D01*
X117065800Y-87272319D01*
X117065800Y-87877650D01*
X117148350Y-87960200D01*
X118218200Y-87960200D01*
X118218200Y-87090350D01*
X118573800Y-87090350D01*
X118573800Y-87960200D01*
X119643650Y-87960200D01*
X119726200Y-87877650D01*
X119726200Y-87272319D01*
X119675930Y-87150957D01*
X119583043Y-87058070D01*
X119461681Y-87007800D01*
X118656350Y-87007800D01*
X118573800Y-87090350D01*
X118218200Y-87090350D01*
X118135650Y-87007800D01*
X117330319Y-87007800D01*
X117208957Y-87058070D01*
X117116070Y-87150957D01*
X117065800Y-87272319D01*
X105561200Y-87272319D01*
X105561200Y-83916510D01*
X112461280Y-83916510D01*
X112461280Y-84471841D01*
X112511550Y-84593203D01*
X112604437Y-84686090D01*
X112725799Y-84736360D01*
X113181130Y-84736360D01*
X113263680Y-84653810D01*
X113263680Y-83833960D01*
X113619280Y-83833960D01*
X113619280Y-84653810D01*
X113701830Y-84736360D01*
X114157161Y-84736360D01*
X114278523Y-84686090D01*
X114371410Y-84593203D01*
X114421680Y-84471841D01*
X114421680Y-83916510D01*
X114339130Y-83833960D01*
X113619280Y-83833960D01*
X113263680Y-83833960D01*
X112543830Y-83833960D01*
X112461280Y-83916510D01*
X105561200Y-83916510D01*
X105561200Y-82632269D01*
X112504502Y-82736133D01*
X112461280Y-82840479D01*
X112461280Y-83395810D01*
X112543830Y-83478360D01*
X113263680Y-83478360D01*
X113263680Y-83458360D01*
X113619280Y-83458360D01*
X113619280Y-83478360D01*
X114339130Y-83478360D01*
X114421680Y-83395810D01*
X114421680Y-82840479D01*
X114390142Y-82764340D01*
X118738780Y-82829391D01*
X118768513Y-82823832D01*
X118793740Y-82807143D01*
X118810487Y-82781954D01*
X118816120Y-82753243D01*
X118821200Y-73660043D01*
X118815213Y-73630393D01*
X118798163Y-73605409D01*
X118772735Y-73589027D01*
X118745000Y-73583800D01*
X117424200Y-73583800D01*
X117424200Y-72850870D01*
X117427870Y-72847200D01*
X117539850Y-72847200D01*
X117605205Y-72860200D01*
X118204795Y-72860200D01*
X118270150Y-72847200D01*
X118745000Y-72847200D01*
X118774646Y-72841197D01*
X118799621Y-72824132D01*
X118815989Y-72798695D01*
X118821200Y-72771000D01*
X118821200Y-66675000D01*
X118815197Y-66645354D01*
X118798132Y-66620379D01*
X118772695Y-66604011D01*
X118744288Y-66598803D01*
X114753392Y-66636101D01*
X114768050Y-66621443D01*
X114818320Y-66500081D01*
X114818320Y-65944750D01*
X114735770Y-65862200D01*
X114040920Y-65862200D01*
X114040920Y-65882200D01*
X113685320Y-65882200D01*
X113685320Y-65862200D01*
X112990470Y-65862200D01*
X112907920Y-65944750D01*
X112907920Y-66500081D01*
X112958190Y-66621443D01*
X112989335Y-66652588D01*
X105561200Y-66722009D01*
X105561200Y-65675510D01*
X109387480Y-65675510D01*
X109387480Y-66230841D01*
X109437750Y-66352203D01*
X109530637Y-66445090D01*
X109651999Y-66495360D01*
X110082330Y-66495360D01*
X110164880Y-66412810D01*
X110164880Y-65592960D01*
X110520480Y-65592960D01*
X110520480Y-66412810D01*
X110603030Y-66495360D01*
X111033361Y-66495360D01*
X111154723Y-66445090D01*
X111247610Y-66352203D01*
X111297880Y-66230841D01*
X111297880Y-65675510D01*
X111215330Y-65592960D01*
X110520480Y-65592960D01*
X110164880Y-65592960D01*
X109470030Y-65592960D01*
X109387480Y-65675510D01*
X105561200Y-65675510D01*
X105561200Y-64599479D01*
X109387480Y-64599479D01*
X109387480Y-65154810D01*
X109470030Y-65237360D01*
X110164880Y-65237360D01*
X110164880Y-64417510D01*
X110520480Y-64417510D01*
X110520480Y-65237360D01*
X111215330Y-65237360D01*
X111297880Y-65154810D01*
X111297880Y-64868719D01*
X112907920Y-64868719D01*
X112907920Y-65424050D01*
X112990470Y-65506600D01*
X113685320Y-65506600D01*
X113685320Y-64686750D01*
X114040920Y-64686750D01*
X114040920Y-65506600D01*
X114735770Y-65506600D01*
X114818320Y-65424050D01*
X114818320Y-64868719D01*
X114807415Y-64842390D01*
X116607080Y-64842390D01*
X116607080Y-65447721D01*
X116657350Y-65569083D01*
X116750237Y-65661970D01*
X116871599Y-65712240D01*
X117676930Y-65712240D01*
X117759480Y-65629690D01*
X117759480Y-64759840D01*
X118115080Y-64759840D01*
X118115080Y-65629690D01*
X118197630Y-65712240D01*
X119002961Y-65712240D01*
X119124323Y-65661970D01*
X119217210Y-65569083D01*
X119267480Y-65447721D01*
X119267480Y-64842390D01*
X119184930Y-64759840D01*
X118115080Y-64759840D01*
X117759480Y-64759840D01*
X116689630Y-64759840D01*
X116607080Y-64842390D01*
X114807415Y-64842390D01*
X114768050Y-64747357D01*
X114675163Y-64654470D01*
X114553801Y-64604200D01*
X114123470Y-64604200D01*
X114040920Y-64686750D01*
X113685320Y-64686750D01*
X113602770Y-64604200D01*
X113172439Y-64604200D01*
X113051077Y-64654470D01*
X112958190Y-64747357D01*
X112907920Y-64868719D01*
X111297880Y-64868719D01*
X111297880Y-64599479D01*
X111247610Y-64478117D01*
X111154723Y-64385230D01*
X111033361Y-64334960D01*
X110603030Y-64334960D01*
X110520480Y-64417510D01*
X110164880Y-64417510D01*
X110082330Y-64334960D01*
X109651999Y-64334960D01*
X109530637Y-64385230D01*
X109437750Y-64478117D01*
X109387480Y-64599479D01*
X105561200Y-64599479D01*
X105561200Y-63716359D01*
X116607080Y-63716359D01*
X116607080Y-64321690D01*
X116689630Y-64404240D01*
X117759480Y-64404240D01*
X117759480Y-63534390D01*
X118115080Y-63534390D01*
X118115080Y-64404240D01*
X119184930Y-64404240D01*
X119267480Y-64321690D01*
X119267480Y-63716359D01*
X119217210Y-63594997D01*
X119124323Y-63502110D01*
X119002961Y-63451840D01*
X118197630Y-63451840D01*
X118115080Y-63534390D01*
X117759480Y-63534390D01*
X117676930Y-63451840D01*
X116871599Y-63451840D01*
X116750237Y-63502110D01*
X116657350Y-63594997D01*
X116607080Y-63716359D01*
X105561200Y-63716359D01*
X105561200Y-61865510D01*
X116562880Y-61865510D01*
X116562880Y-62470841D01*
X116613150Y-62592203D01*
X116706037Y-62685090D01*
X116827399Y-62735360D01*
X117632730Y-62735360D01*
X117715280Y-62652810D01*
X117715280Y-61782960D01*
X118070880Y-61782960D01*
X118070880Y-62652810D01*
X118153430Y-62735360D01*
X118958761Y-62735360D01*
X119080123Y-62685090D01*
X119173010Y-62592203D01*
X119223280Y-62470841D01*
X119223280Y-61865510D01*
X119140730Y-61782960D01*
X118070880Y-61782960D01*
X117715280Y-61782960D01*
X116645430Y-61782960D01*
X116562880Y-61865510D01*
X105561200Y-61865510D01*
X105561200Y-60052452D01*
X106119483Y-60052452D01*
X106397527Y-60725371D01*
X106911921Y-61240664D01*
X107584354Y-61519882D01*
X108312452Y-61520517D01*
X108985371Y-61242473D01*
X109489244Y-60739479D01*
X116562880Y-60739479D01*
X116562880Y-61344810D01*
X116645430Y-61427360D01*
X117715280Y-61427360D01*
X117715280Y-60557510D01*
X118070880Y-60557510D01*
X118070880Y-61427360D01*
X119140730Y-61427360D01*
X119223280Y-61344810D01*
X119223280Y-60739479D01*
X119173010Y-60618117D01*
X119080123Y-60525230D01*
X118958761Y-60474960D01*
X118153430Y-60474960D01*
X118070880Y-60557510D01*
X117715280Y-60557510D01*
X117632730Y-60474960D01*
X116827399Y-60474960D01*
X116706037Y-60525230D01*
X116613150Y-60618117D01*
X116562880Y-60739479D01*
X109489244Y-60739479D01*
X109500664Y-60728079D01*
X109779882Y-60055646D01*
X109780517Y-59327548D01*
X109502473Y-58654629D01*
X108988079Y-58139336D01*
X108522091Y-57945841D01*
X117668181Y-57945841D01*
X117913479Y-58410313D01*
X118317850Y-58745558D01*
X118574002Y-58851644D01*
X118780560Y-58812559D01*
X118780560Y-57739280D01*
X117706488Y-57739280D01*
X117668181Y-57945841D01*
X108522091Y-57945841D01*
X108315646Y-57860118D01*
X107587548Y-57859483D01*
X106914629Y-58137527D01*
X106399336Y-58651921D01*
X106120118Y-59324354D01*
X106119483Y-60052452D01*
X105561200Y-60052452D01*
X105561200Y-56333617D01*
X111032368Y-56285200D01*
X118540478Y-56285200D01*
X118317850Y-56377402D01*
X118317850Y-56377402D01*
G37*
X118317850Y-56377402D02*
X117913479Y-56712647D01*
X117668181Y-57177119D01*
X117706488Y-57383680D01*
X118780560Y-57383680D01*
X118780560Y-57363680D01*
X119136160Y-57363680D01*
X119136160Y-57383680D01*
X119156160Y-57383680D01*
X119156160Y-57739280D01*
X119136160Y-57739280D01*
X119136160Y-58812559D01*
X119342718Y-58851644D01*
X119598870Y-58745558D01*
X119809463Y-58570965D01*
X119760605Y-101562222D01*
X119606878Y-101498556D01*
X119400320Y-101537641D01*
X119400320Y-102610920D01*
X119420320Y-102610920D01*
X119420320Y-102966520D01*
X119400320Y-102966520D01*
X119400320Y-104039799D01*
X119606878Y-104078884D01*
X119757816Y-104016373D01*
X119756404Y-105258800D01*
X105561200Y-105258800D01*
X105561200Y-102978452D01*
X106373483Y-102978452D01*
X106651527Y-103651371D01*
X107165921Y-104166664D01*
X107838354Y-104445882D01*
X108566452Y-104446517D01*
X109239371Y-104168473D01*
X109754664Y-103654079D01*
X109954391Y-103173081D01*
X117932341Y-103173081D01*
X118177639Y-103637553D01*
X118582010Y-103972798D01*
X118838162Y-104078884D01*
X119044720Y-104039799D01*
X119044720Y-102966520D01*
X117970648Y-102966520D01*
X117932341Y-103173081D01*
X109954391Y-103173081D01*
X110033882Y-102981646D01*
X110034385Y-102404359D01*
X117932341Y-102404359D01*
X117970648Y-102610920D01*
X119044720Y-102610920D01*
X119044720Y-101537641D01*
X118838162Y-101498556D01*
X118582010Y-101604642D01*
X118177639Y-101939887D01*
X117932341Y-102404359D01*
X110034385Y-102404359D01*
X110034517Y-102253548D01*
X109756473Y-101580629D01*
X109242079Y-101065336D01*
X108569646Y-100786118D01*
X107841548Y-100785483D01*
X107168629Y-101063527D01*
X106653336Y-101577921D01*
X106374118Y-102250354D01*
X106373483Y-102978452D01*
X105561200Y-102978452D01*
X105561200Y-99574350D01*
X117377800Y-99574350D01*
X117377800Y-100029681D01*
X117428070Y-100151043D01*
X117520957Y-100243930D01*
X117642319Y-100294200D01*
X118197650Y-100294200D01*
X118280200Y-100211650D01*
X118280200Y-99491800D01*
X118635800Y-99491800D01*
X118635800Y-100211650D01*
X118718350Y-100294200D01*
X119273681Y-100294200D01*
X119395043Y-100243930D01*
X119487930Y-100151043D01*
X119538200Y-100029681D01*
X119538200Y-99574350D01*
X119455650Y-99491800D01*
X118635800Y-99491800D01*
X118280200Y-99491800D01*
X117460350Y-99491800D01*
X117377800Y-99574350D01*
X105561200Y-99574350D01*
X105561200Y-98598319D01*
X117377800Y-98598319D01*
X117377800Y-99053650D01*
X117460350Y-99136200D01*
X118280200Y-99136200D01*
X118280200Y-98416350D01*
X118635800Y-98416350D01*
X118635800Y-99136200D01*
X119455650Y-99136200D01*
X119538200Y-99053650D01*
X119538200Y-98598319D01*
X119487930Y-98476957D01*
X119395043Y-98384070D01*
X119273681Y-98333800D01*
X118718350Y-98333800D01*
X118635800Y-98416350D01*
X118280200Y-98416350D01*
X118197650Y-98333800D01*
X117642319Y-98333800D01*
X117520957Y-98384070D01*
X117428070Y-98476957D01*
X117377800Y-98598319D01*
X105561200Y-98598319D01*
X105561200Y-96526350D01*
X116779800Y-96526350D01*
X116779800Y-97131681D01*
X116830070Y-97253043D01*
X116922957Y-97345930D01*
X117044319Y-97396200D01*
X117849650Y-97396200D01*
X117932200Y-97313650D01*
X117932200Y-96443800D01*
X118287800Y-96443800D01*
X118287800Y-97313650D01*
X118370350Y-97396200D01*
X119175681Y-97396200D01*
X119297043Y-97345930D01*
X119389930Y-97253043D01*
X119440200Y-97131681D01*
X119440200Y-96526350D01*
X119357650Y-96443800D01*
X118287800Y-96443800D01*
X117932200Y-96443800D01*
X116862350Y-96443800D01*
X116779800Y-96526350D01*
X105561200Y-96526350D01*
X105561200Y-95400319D01*
X116779800Y-95400319D01*
X116779800Y-96005650D01*
X116862350Y-96088200D01*
X117932200Y-96088200D01*
X117932200Y-95218350D01*
X118287800Y-95218350D01*
X118287800Y-96088200D01*
X119357650Y-96088200D01*
X119440200Y-96005650D01*
X119440200Y-95400319D01*
X119389930Y-95278957D01*
X119297043Y-95186070D01*
X119175681Y-95135800D01*
X118370350Y-95135800D01*
X118287800Y-95218350D01*
X117932200Y-95218350D01*
X117849650Y-95135800D01*
X117044319Y-95135800D01*
X116922957Y-95186070D01*
X116830070Y-95278957D01*
X116779800Y-95400319D01*
X105561200Y-95400319D01*
X105561200Y-93732350D01*
X116779800Y-93732350D01*
X116779800Y-94337681D01*
X116830070Y-94459043D01*
X116922957Y-94551930D01*
X117044319Y-94602200D01*
X117849650Y-94602200D01*
X117932200Y-94519650D01*
X117932200Y-93649800D01*
X118287800Y-93649800D01*
X118287800Y-94519650D01*
X118370350Y-94602200D01*
X119175681Y-94602200D01*
X119297043Y-94551930D01*
X119389930Y-94459043D01*
X119440200Y-94337681D01*
X119440200Y-93732350D01*
X119357650Y-93649800D01*
X118287800Y-93649800D01*
X117932200Y-93649800D01*
X116862350Y-93649800D01*
X116779800Y-93732350D01*
X105561200Y-93732350D01*
X105561200Y-92606319D01*
X116779800Y-92606319D01*
X116779800Y-93211650D01*
X116862350Y-93294200D01*
X117932200Y-93294200D01*
X117932200Y-92424350D01*
X118287800Y-92424350D01*
X118287800Y-93294200D01*
X119357650Y-93294200D01*
X119440200Y-93211650D01*
X119440200Y-92606319D01*
X119389930Y-92484957D01*
X119297043Y-92392070D01*
X119175681Y-92341800D01*
X118370350Y-92341800D01*
X118287800Y-92424350D01*
X117932200Y-92424350D01*
X117849650Y-92341800D01*
X117044319Y-92341800D01*
X116922957Y-92392070D01*
X116830070Y-92484957D01*
X116779800Y-92606319D01*
X105561200Y-92606319D01*
X105561200Y-91192350D01*
X116811800Y-91192350D01*
X116811800Y-91797681D01*
X116862070Y-91919043D01*
X116954957Y-92011930D01*
X117076319Y-92062200D01*
X117881650Y-92062200D01*
X117964200Y-91979650D01*
X117964200Y-91109800D01*
X118319800Y-91109800D01*
X118319800Y-91979650D01*
X118402350Y-92062200D01*
X119207681Y-92062200D01*
X119329043Y-92011930D01*
X119421930Y-91919043D01*
X119472200Y-91797681D01*
X119472200Y-91192350D01*
X119389650Y-91109800D01*
X118319800Y-91109800D01*
X117964200Y-91109800D01*
X116894350Y-91109800D01*
X116811800Y-91192350D01*
X105561200Y-91192350D01*
X105561200Y-90066319D01*
X116811800Y-90066319D01*
X116811800Y-90671650D01*
X116894350Y-90754200D01*
X117964200Y-90754200D01*
X117964200Y-89884350D01*
X118319800Y-89884350D01*
X118319800Y-90754200D01*
X119389650Y-90754200D01*
X119472200Y-90671650D01*
X119472200Y-90066319D01*
X119421930Y-89944957D01*
X119329043Y-89852070D01*
X119207681Y-89801800D01*
X118402350Y-89801800D01*
X118319800Y-89884350D01*
X117964200Y-89884350D01*
X117881650Y-89801800D01*
X117076319Y-89801800D01*
X116954957Y-89852070D01*
X116862070Y-89944957D01*
X116811800Y-90066319D01*
X105561200Y-90066319D01*
X105561200Y-88398350D01*
X117065800Y-88398350D01*
X117065800Y-89003681D01*
X117116070Y-89125043D01*
X117208957Y-89217930D01*
X117330319Y-89268200D01*
X118135650Y-89268200D01*
X118218200Y-89185650D01*
X118218200Y-88315800D01*
X118573800Y-88315800D01*
X118573800Y-89185650D01*
X118656350Y-89268200D01*
X119461681Y-89268200D01*
X119583043Y-89217930D01*
X119675930Y-89125043D01*
X119726200Y-89003681D01*
X119726200Y-88398350D01*
X119643650Y-88315800D01*
X118573800Y-88315800D01*
X118218200Y-88315800D01*
X117148350Y-88315800D01*
X117065800Y-88398350D01*
X105561200Y-88398350D01*
X105561200Y-87272319D01*
X117065800Y-87272319D01*
X117065800Y-87877650D01*
X117148350Y-87960200D01*
X118218200Y-87960200D01*
X118218200Y-87090350D01*
X118573800Y-87090350D01*
X118573800Y-87960200D01*
X119643650Y-87960200D01*
X119726200Y-87877650D01*
X119726200Y-87272319D01*
X119675930Y-87150957D01*
X119583043Y-87058070D01*
X119461681Y-87007800D01*
X118656350Y-87007800D01*
X118573800Y-87090350D01*
X118218200Y-87090350D01*
X118135650Y-87007800D01*
X117330319Y-87007800D01*
X117208957Y-87058070D01*
X117116070Y-87150957D01*
X117065800Y-87272319D01*
X105561200Y-87272319D01*
X105561200Y-83916510D01*
X112461280Y-83916510D01*
X112461280Y-84471841D01*
X112511550Y-84593203D01*
X112604437Y-84686090D01*
X112725799Y-84736360D01*
X113181130Y-84736360D01*
X113263680Y-84653810D01*
X113263680Y-83833960D01*
X113619280Y-83833960D01*
X113619280Y-84653810D01*
X113701830Y-84736360D01*
X114157161Y-84736360D01*
X114278523Y-84686090D01*
X114371410Y-84593203D01*
X114421680Y-84471841D01*
X114421680Y-83916510D01*
X114339130Y-83833960D01*
X113619280Y-83833960D01*
X113263680Y-83833960D01*
X112543830Y-83833960D01*
X112461280Y-83916510D01*
X105561200Y-83916510D01*
X105561200Y-82632269D01*
X112504502Y-82736133D01*
X112461280Y-82840479D01*
X112461280Y-83395810D01*
X112543830Y-83478360D01*
X113263680Y-83478360D01*
X113263680Y-83458360D01*
X113619280Y-83458360D01*
X113619280Y-83478360D01*
X114339130Y-83478360D01*
X114421680Y-83395810D01*
X114421680Y-82840479D01*
X114390142Y-82764340D01*
X118738780Y-82829391D01*
X118768513Y-82823832D01*
X118793740Y-82807143D01*
X118810487Y-82781954D01*
X118816120Y-82753243D01*
X118821200Y-73660043D01*
X118815213Y-73630393D01*
X118798163Y-73605409D01*
X118772735Y-73589027D01*
X118745000Y-73583800D01*
X117424200Y-73583800D01*
X117424200Y-72850870D01*
X117427870Y-72847200D01*
X117539850Y-72847200D01*
X117605205Y-72860200D01*
X118204795Y-72860200D01*
X118270150Y-72847200D01*
X118745000Y-72847200D01*
X118774646Y-72841197D01*
X118799621Y-72824132D01*
X118815989Y-72798695D01*
X118821200Y-72771000D01*
X118821200Y-66675000D01*
X118815197Y-66645354D01*
X118798132Y-66620379D01*
X118772695Y-66604011D01*
X118744288Y-66598803D01*
X114753392Y-66636101D01*
X114768050Y-66621443D01*
X114818320Y-66500081D01*
X114818320Y-65944750D01*
X114735770Y-65862200D01*
X114040920Y-65862200D01*
X114040920Y-65882200D01*
X113685320Y-65882200D01*
X113685320Y-65862200D01*
X112990470Y-65862200D01*
X112907920Y-65944750D01*
X112907920Y-66500081D01*
X112958190Y-66621443D01*
X112989335Y-66652588D01*
X105561200Y-66722009D01*
X105561200Y-65675510D01*
X109387480Y-65675510D01*
X109387480Y-66230841D01*
X109437750Y-66352203D01*
X109530637Y-66445090D01*
X109651999Y-66495360D01*
X110082330Y-66495360D01*
X110164880Y-66412810D01*
X110164880Y-65592960D01*
X110520480Y-65592960D01*
X110520480Y-66412810D01*
X110603030Y-66495360D01*
X111033361Y-66495360D01*
X111154723Y-66445090D01*
X111247610Y-66352203D01*
X111297880Y-66230841D01*
X111297880Y-65675510D01*
X111215330Y-65592960D01*
X110520480Y-65592960D01*
X110164880Y-65592960D01*
X109470030Y-65592960D01*
X109387480Y-65675510D01*
X105561200Y-65675510D01*
X105561200Y-64599479D01*
X109387480Y-64599479D01*
X109387480Y-65154810D01*
X109470030Y-65237360D01*
X110164880Y-65237360D01*
X110164880Y-64417510D01*
X110520480Y-64417510D01*
X110520480Y-65237360D01*
X111215330Y-65237360D01*
X111297880Y-65154810D01*
X111297880Y-64868719D01*
X112907920Y-64868719D01*
X112907920Y-65424050D01*
X112990470Y-65506600D01*
X113685320Y-65506600D01*
X113685320Y-64686750D01*
X114040920Y-64686750D01*
X114040920Y-65506600D01*
X114735770Y-65506600D01*
X114818320Y-65424050D01*
X114818320Y-64868719D01*
X114807415Y-64842390D01*
X116607080Y-64842390D01*
X116607080Y-65447721D01*
X116657350Y-65569083D01*
X116750237Y-65661970D01*
X116871599Y-65712240D01*
X117676930Y-65712240D01*
X117759480Y-65629690D01*
X117759480Y-64759840D01*
X118115080Y-64759840D01*
X118115080Y-65629690D01*
X118197630Y-65712240D01*
X119002961Y-65712240D01*
X119124323Y-65661970D01*
X119217210Y-65569083D01*
X119267480Y-65447721D01*
X119267480Y-64842390D01*
X119184930Y-64759840D01*
X118115080Y-64759840D01*
X117759480Y-64759840D01*
X116689630Y-64759840D01*
X116607080Y-64842390D01*
X114807415Y-64842390D01*
X114768050Y-64747357D01*
X114675163Y-64654470D01*
X114553801Y-64604200D01*
X114123470Y-64604200D01*
X114040920Y-64686750D01*
X113685320Y-64686750D01*
X113602770Y-64604200D01*
X113172439Y-64604200D01*
X113051077Y-64654470D01*
X112958190Y-64747357D01*
X112907920Y-64868719D01*
X111297880Y-64868719D01*
X111297880Y-64599479D01*
X111247610Y-64478117D01*
X111154723Y-64385230D01*
X111033361Y-64334960D01*
X110603030Y-64334960D01*
X110520480Y-64417510D01*
X110164880Y-64417510D01*
X110082330Y-64334960D01*
X109651999Y-64334960D01*
X109530637Y-64385230D01*
X109437750Y-64478117D01*
X109387480Y-64599479D01*
X105561200Y-64599479D01*
X105561200Y-63716359D01*
X116607080Y-63716359D01*
X116607080Y-64321690D01*
X116689630Y-64404240D01*
X117759480Y-64404240D01*
X117759480Y-63534390D01*
X118115080Y-63534390D01*
X118115080Y-64404240D01*
X119184930Y-64404240D01*
X119267480Y-64321690D01*
X119267480Y-63716359D01*
X119217210Y-63594997D01*
X119124323Y-63502110D01*
X119002961Y-63451840D01*
X118197630Y-63451840D01*
X118115080Y-63534390D01*
X117759480Y-63534390D01*
X117676930Y-63451840D01*
X116871599Y-63451840D01*
X116750237Y-63502110D01*
X116657350Y-63594997D01*
X116607080Y-63716359D01*
X105561200Y-63716359D01*
X105561200Y-61865510D01*
X116562880Y-61865510D01*
X116562880Y-62470841D01*
X116613150Y-62592203D01*
X116706037Y-62685090D01*
X116827399Y-62735360D01*
X117632730Y-62735360D01*
X117715280Y-62652810D01*
X117715280Y-61782960D01*
X118070880Y-61782960D01*
X118070880Y-62652810D01*
X118153430Y-62735360D01*
X118958761Y-62735360D01*
X119080123Y-62685090D01*
X119173010Y-62592203D01*
X119223280Y-62470841D01*
X119223280Y-61865510D01*
X119140730Y-61782960D01*
X118070880Y-61782960D01*
X117715280Y-61782960D01*
X116645430Y-61782960D01*
X116562880Y-61865510D01*
X105561200Y-61865510D01*
X105561200Y-60052452D01*
X106119483Y-60052452D01*
X106397527Y-60725371D01*
X106911921Y-61240664D01*
X107584354Y-61519882D01*
X108312452Y-61520517D01*
X108985371Y-61242473D01*
X109489244Y-60739479D01*
X116562880Y-60739479D01*
X116562880Y-61344810D01*
X116645430Y-61427360D01*
X117715280Y-61427360D01*
X117715280Y-60557510D01*
X118070880Y-60557510D01*
X118070880Y-61427360D01*
X119140730Y-61427360D01*
X119223280Y-61344810D01*
X119223280Y-60739479D01*
X119173010Y-60618117D01*
X119080123Y-60525230D01*
X118958761Y-60474960D01*
X118153430Y-60474960D01*
X118070880Y-60557510D01*
X117715280Y-60557510D01*
X117632730Y-60474960D01*
X116827399Y-60474960D01*
X116706037Y-60525230D01*
X116613150Y-60618117D01*
X116562880Y-60739479D01*
X109489244Y-60739479D01*
X109500664Y-60728079D01*
X109779882Y-60055646D01*
X109780517Y-59327548D01*
X109502473Y-58654629D01*
X108988079Y-58139336D01*
X108522091Y-57945841D01*
X117668181Y-57945841D01*
X117913479Y-58410313D01*
X118317850Y-58745558D01*
X118574002Y-58851644D01*
X118780560Y-58812559D01*
X118780560Y-57739280D01*
X117706488Y-57739280D01*
X117668181Y-57945841D01*
X108522091Y-57945841D01*
X108315646Y-57860118D01*
X107587548Y-57859483D01*
X106914629Y-58137527D01*
X106399336Y-58651921D01*
X106120118Y-59324354D01*
X106119483Y-60052452D01*
X105561200Y-60052452D01*
X105561200Y-56333617D01*
X111032368Y-56285200D01*
X118540478Y-56285200D01*
X118317850Y-56377402D01*
G36*
X133497540Y-73003778D02*
X133527573Y-83235062D01*
X120472200Y-83109530D01*
X120472200Y-80970120D01*
X127087525Y-80970120D01*
X127387989Y-82775452D01*
X127406446Y-82842545D01*
X127478763Y-82954929D01*
X127589107Y-83030324D01*
X127720090Y-83056849D01*
X128219200Y-83056849D01*
X128219200Y-80970120D01*
X128320800Y-80970120D01*
X128320800Y-83056849D01*
X128819910Y-83056849D01*
X128889122Y-83049658D01*
X129011855Y-82996772D01*
X129104342Y-82900303D01*
X129152011Y-82775452D01*
X129452475Y-80970120D01*
X128320800Y-80970120D01*
X128219200Y-80970120D01*
X127087525Y-80970120D01*
X120472200Y-80970120D01*
X120472200Y-79173732D01*
X126788549Y-79173732D01*
X127070615Y-80868520D01*
X128219200Y-80868520D01*
X128219200Y-78781791D01*
X128320800Y-78781791D01*
X128320800Y-80868520D01*
X129469385Y-80868520D01*
X129751451Y-79173732D01*
X129732994Y-78996095D01*
X129660677Y-78883711D01*
X129550333Y-78808316D01*
X129419350Y-78781791D01*
X128320800Y-78781791D01*
X128219200Y-78781791D01*
X127120650Y-78781791D01*
X126948453Y-78829160D01*
X126849466Y-78918947D01*
X126793210Y-79040172D01*
X126788549Y-79173732D01*
X120472200Y-79173732D01*
X120472200Y-76333350D01*
X126393800Y-76333350D01*
X126393800Y-77165681D01*
X126444070Y-77287043D01*
X126536957Y-77379930D01*
X126658319Y-77430200D01*
X128390650Y-77430200D01*
X128473200Y-77347650D01*
X128473200Y-76250800D01*
X128574800Y-76250800D01*
X128574800Y-77347650D01*
X128657350Y-77430200D01*
X130389681Y-77430200D01*
X130511043Y-77379930D01*
X130603930Y-77287043D01*
X130654200Y-77165681D01*
X130654200Y-76333350D01*
X130571650Y-76250800D01*
X128574800Y-76250800D01*
X128473200Y-76250800D01*
X126476350Y-76250800D01*
X126393800Y-76333350D01*
X120472200Y-76333350D01*
X120472200Y-75234319D01*
X126393800Y-75234319D01*
X126393800Y-76066650D01*
X126476350Y-76149200D01*
X128473200Y-76149200D01*
X128473200Y-75052350D01*
X128574800Y-75052350D01*
X128574800Y-76149200D01*
X130571650Y-76149200D01*
X130654200Y-76066650D01*
X130654200Y-75234319D01*
X130603930Y-75112957D01*
X130511043Y-75020070D01*
X130389681Y-74969800D01*
X128657350Y-74969800D01*
X128574800Y-75052350D01*
X128473200Y-75052350D01*
X128390650Y-74969800D01*
X126658319Y-74969800D01*
X126536957Y-75020070D01*
X126444070Y-75112957D01*
X126393800Y-75234319D01*
X120472200Y-75234319D01*
X120472200Y-73783833D01*
X120515144Y-73720983D01*
X120541669Y-73590000D01*
X120541669Y-72857508D01*
X120555205Y-72860200D01*
X121154795Y-72860200D01*
X121173412Y-72856497D01*
X133497540Y-73003778D01*
X133497540Y-73003778D01*
G37*
X133497540Y-73003778D02*
X133527573Y-83235062D01*
X120472200Y-83109530D01*
X120472200Y-80970120D01*
X127087525Y-80970120D01*
X127387989Y-82775452D01*
X127406446Y-82842545D01*
X127478763Y-82954929D01*
X127589107Y-83030324D01*
X127720090Y-83056849D01*
X128219200Y-83056849D01*
X128219200Y-80970120D01*
X128320800Y-80970120D01*
X128320800Y-83056849D01*
X128819910Y-83056849D01*
X128889122Y-83049658D01*
X129011855Y-82996772D01*
X129104342Y-82900303D01*
X129152011Y-82775452D01*
X129452475Y-80970120D01*
X128320800Y-80970120D01*
X128219200Y-80970120D01*
X127087525Y-80970120D01*
X120472200Y-80970120D01*
X120472200Y-79173732D01*
X126788549Y-79173732D01*
X127070615Y-80868520D01*
X128219200Y-80868520D01*
X128219200Y-78781791D01*
X128320800Y-78781791D01*
X128320800Y-80868520D01*
X129469385Y-80868520D01*
X129751451Y-79173732D01*
X129732994Y-78996095D01*
X129660677Y-78883711D01*
X129550333Y-78808316D01*
X129419350Y-78781791D01*
X128320800Y-78781791D01*
X128219200Y-78781791D01*
X127120650Y-78781791D01*
X126948453Y-78829160D01*
X126849466Y-78918947D01*
X126793210Y-79040172D01*
X126788549Y-79173732D01*
X120472200Y-79173732D01*
X120472200Y-76333350D01*
X126393800Y-76333350D01*
X126393800Y-77165681D01*
X126444070Y-77287043D01*
X126536957Y-77379930D01*
X126658319Y-77430200D01*
X128390650Y-77430200D01*
X128473200Y-77347650D01*
X128473200Y-76250800D01*
X128574800Y-76250800D01*
X128574800Y-77347650D01*
X128657350Y-77430200D01*
X130389681Y-77430200D01*
X130511043Y-77379930D01*
X130603930Y-77287043D01*
X130654200Y-77165681D01*
X130654200Y-76333350D01*
X130571650Y-76250800D01*
X128574800Y-76250800D01*
X128473200Y-76250800D01*
X126476350Y-76250800D01*
X126393800Y-76333350D01*
X120472200Y-76333350D01*
X120472200Y-75234319D01*
X126393800Y-75234319D01*
X126393800Y-76066650D01*
X126476350Y-76149200D01*
X128473200Y-76149200D01*
X128473200Y-75052350D01*
X128574800Y-75052350D01*
X128574800Y-76149200D01*
X130571650Y-76149200D01*
X130654200Y-76066650D01*
X130654200Y-75234319D01*
X130603930Y-75112957D01*
X130511043Y-75020070D01*
X130389681Y-74969800D01*
X128657350Y-74969800D01*
X128574800Y-75052350D01*
X128473200Y-75052350D01*
X128390650Y-74969800D01*
X126658319Y-74969800D01*
X126536957Y-75020070D01*
X126444070Y-75112957D01*
X126393800Y-75234319D01*
X120472200Y-75234319D01*
X120472200Y-73783833D01*
X120515144Y-73720983D01*
X120541669Y-73590000D01*
X120541669Y-72857508D01*
X120555205Y-72860200D01*
X121154795Y-72860200D01*
X121173412Y-72856497D01*
X133497540Y-73003778D01*
G36*
X133527800Y-105258800D02*
X120716280Y-105258800D01*
X120703485Y-104134920D01*
X121629170Y-104134920D01*
X121711720Y-104052370D01*
X121711720Y-102839520D01*
X121813320Y-102839520D01*
X121813320Y-104052370D01*
X121895870Y-104134920D01*
X122844201Y-104134920D01*
X122965563Y-104084650D01*
X123058450Y-103991763D01*
X123108720Y-103870401D01*
X123108720Y-102978452D01*
X128979483Y-102978452D01*
X129257527Y-103651371D01*
X129771921Y-104166664D01*
X130444354Y-104445882D01*
X131172452Y-104446517D01*
X131845371Y-104168473D01*
X132360664Y-103654079D01*
X132639882Y-102981646D01*
X132640517Y-102253548D01*
X132362473Y-101580629D01*
X131848079Y-101065336D01*
X131175646Y-100786118D01*
X130447548Y-100785483D01*
X129774629Y-101063527D01*
X129259336Y-101577921D01*
X128980118Y-102250354D01*
X128979483Y-102978452D01*
X123108720Y-102978452D01*
X123108720Y-102922070D01*
X123026170Y-102839520D01*
X121813320Y-102839520D01*
X121711720Y-102839520D01*
X121691720Y-102839520D01*
X121691720Y-102737920D01*
X121711720Y-102737920D01*
X121711720Y-101525070D01*
X121813320Y-101525070D01*
X121813320Y-102737920D01*
X123026170Y-102737920D01*
X123108720Y-102655370D01*
X123108720Y-101707039D01*
X123058450Y-101585677D01*
X122965563Y-101492790D01*
X122844201Y-101442520D01*
X121895870Y-101442520D01*
X121813320Y-101525070D01*
X121711720Y-101525070D01*
X121629170Y-101442520D01*
X120680839Y-101442520D01*
X120672871Y-101445821D01*
X120659833Y-100300669D01*
X121908000Y-100300669D01*
X122030365Y-100277644D01*
X122142749Y-100205327D01*
X122218144Y-100094983D01*
X122244669Y-99964000D01*
X122244669Y-99769200D01*
X122507891Y-99769200D01*
X122507891Y-99913440D01*
X122530916Y-100035805D01*
X122603233Y-100148189D01*
X122713577Y-100223584D01*
X122844560Y-100250109D01*
X124043440Y-100250109D01*
X124165805Y-100227084D01*
X124278189Y-100154767D01*
X124353584Y-100044423D01*
X124380109Y-99913440D01*
X124380109Y-99447350D01*
X124612400Y-99447350D01*
X124612400Y-99979121D01*
X124662670Y-100100483D01*
X124755557Y-100193370D01*
X124876919Y-100243640D01*
X125408690Y-100243640D01*
X125491240Y-100161090D01*
X125491240Y-99364800D01*
X125592840Y-99364800D01*
X125592840Y-100161090D01*
X125675390Y-100243640D01*
X126207161Y-100243640D01*
X126328523Y-100193370D01*
X126421410Y-100100483D01*
X126471680Y-99979121D01*
X126471680Y-99447350D01*
X126389130Y-99364800D01*
X125592840Y-99364800D01*
X125491240Y-99364800D01*
X124694950Y-99364800D01*
X124612400Y-99447350D01*
X124380109Y-99447350D01*
X124380109Y-98714560D01*
X124367751Y-98648879D01*
X124612400Y-98648879D01*
X124612400Y-99180650D01*
X124694950Y-99263200D01*
X125491240Y-99263200D01*
X125491240Y-98466910D01*
X125592840Y-98466910D01*
X125592840Y-99263200D01*
X126389130Y-99263200D01*
X126471680Y-99180650D01*
X126471680Y-98648879D01*
X126421410Y-98527517D01*
X126328523Y-98434630D01*
X126207161Y-98384360D01*
X125675390Y-98384360D01*
X125592840Y-98466910D01*
X125491240Y-98466910D01*
X125408690Y-98384360D01*
X124876919Y-98384360D01*
X124755557Y-98434630D01*
X124662670Y-98527517D01*
X124612400Y-98648879D01*
X124367751Y-98648879D01*
X124357084Y-98592195D01*
X124284767Y-98479811D01*
X124174423Y-98404416D01*
X124043440Y-98377891D01*
X122844560Y-98377891D01*
X122722195Y-98400916D01*
X122609811Y-98473233D01*
X122534416Y-98583577D01*
X122507891Y-98714560D01*
X122507891Y-98858800D01*
X122402507Y-98858800D01*
X122321875Y-98738125D01*
X122244669Y-98686538D01*
X122244669Y-98664000D01*
X122221644Y-98541635D01*
X122149327Y-98429251D01*
X122038983Y-98353856D01*
X121908000Y-98327331D01*
X120637367Y-98327331D01*
X120615418Y-96399350D01*
X120779800Y-96399350D01*
X120779800Y-97131681D01*
X120830070Y-97253043D01*
X120922957Y-97345930D01*
X121044319Y-97396200D01*
X121976650Y-97396200D01*
X122059200Y-97313650D01*
X122059200Y-96316800D01*
X122160800Y-96316800D01*
X122160800Y-97313650D01*
X122243350Y-97396200D01*
X123175681Y-97396200D01*
X123297043Y-97345930D01*
X123389930Y-97253043D01*
X123440200Y-97131681D01*
X123440200Y-96399350D01*
X123357650Y-96316800D01*
X122160800Y-96316800D01*
X122059200Y-96316800D01*
X120862350Y-96316800D01*
X120779800Y-96399350D01*
X120615418Y-96399350D01*
X120604045Y-95400319D01*
X120779800Y-95400319D01*
X120779800Y-96132650D01*
X120862350Y-96215200D01*
X122059200Y-96215200D01*
X122059200Y-95218350D01*
X122160800Y-95218350D01*
X122160800Y-96215200D01*
X123357650Y-96215200D01*
X123440200Y-96132650D01*
X123440200Y-95400319D01*
X123389930Y-95278957D01*
X123297043Y-95186070D01*
X123175681Y-95135800D01*
X122243350Y-95135800D01*
X122160800Y-95218350D01*
X122059200Y-95218350D01*
X121976650Y-95135800D01*
X121044319Y-95135800D01*
X120922957Y-95186070D01*
X120830070Y-95278957D01*
X120779800Y-95400319D01*
X120604045Y-95400319D01*
X120583610Y-93605350D01*
X120779800Y-93605350D01*
X120779800Y-94337681D01*
X120830070Y-94459043D01*
X120922957Y-94551930D01*
X121044319Y-94602200D01*
X121976650Y-94602200D01*
X122059200Y-94519650D01*
X122059200Y-93522800D01*
X122160800Y-93522800D01*
X122160800Y-94519650D01*
X122243350Y-94602200D01*
X123175681Y-94602200D01*
X123297043Y-94551930D01*
X123389930Y-94459043D01*
X123440200Y-94337681D01*
X123440200Y-93605350D01*
X123357650Y-93522800D01*
X122160800Y-93522800D01*
X122059200Y-93522800D01*
X120862350Y-93522800D01*
X120779800Y-93605350D01*
X120583610Y-93605350D01*
X120572237Y-92606319D01*
X120779800Y-92606319D01*
X120779800Y-93338650D01*
X120862350Y-93421200D01*
X122059200Y-93421200D01*
X122059200Y-92424350D01*
X122160800Y-92424350D01*
X122160800Y-93421200D01*
X123357650Y-93421200D01*
X123440200Y-93338650D01*
X123440200Y-92606319D01*
X123389930Y-92484957D01*
X123297043Y-92392070D01*
X123175681Y-92341800D01*
X122243350Y-92341800D01*
X122160800Y-92424350D01*
X122059200Y-92424350D01*
X121976650Y-92341800D01*
X121044319Y-92341800D01*
X120922957Y-92392070D01*
X120830070Y-92484957D01*
X120779800Y-92606319D01*
X120572237Y-92606319D01*
X120554694Y-91065350D01*
X120811800Y-91065350D01*
X120811800Y-91797681D01*
X120862070Y-91919043D01*
X120954957Y-92011930D01*
X121076319Y-92062200D01*
X122008650Y-92062200D01*
X122091200Y-91979650D01*
X122091200Y-90982800D01*
X122192800Y-90982800D01*
X122192800Y-91979650D01*
X122275350Y-92062200D01*
X123207681Y-92062200D01*
X123329043Y-92011930D01*
X123421930Y-91919043D01*
X123459910Y-91827350D01*
X128471930Y-91827350D01*
X128471930Y-93259551D01*
X128522200Y-93380913D01*
X128615087Y-93473800D01*
X128736449Y-93524070D01*
X130168650Y-93524070D01*
X130251200Y-93441520D01*
X130251200Y-91744800D01*
X130352800Y-91744800D01*
X130352800Y-93441520D01*
X130435350Y-93524070D01*
X131867551Y-93524070D01*
X131988913Y-93473800D01*
X132081800Y-93380913D01*
X132132070Y-93259551D01*
X132132070Y-91827350D01*
X132049520Y-91744800D01*
X130352800Y-91744800D01*
X130251200Y-91744800D01*
X128554480Y-91744800D01*
X128471930Y-91827350D01*
X123459910Y-91827350D01*
X123472200Y-91797681D01*
X123472200Y-91065350D01*
X123389650Y-90982800D01*
X122192800Y-90982800D01*
X122091200Y-90982800D01*
X120894350Y-90982800D01*
X120811800Y-91065350D01*
X120554694Y-91065350D01*
X120543320Y-90066319D01*
X120811800Y-90066319D01*
X120811800Y-90798650D01*
X120894350Y-90881200D01*
X122091200Y-90881200D01*
X122091200Y-89884350D01*
X122192800Y-89884350D01*
X122192800Y-90881200D01*
X123389650Y-90881200D01*
X123472200Y-90798650D01*
X123472200Y-90128449D01*
X128471930Y-90128449D01*
X128471930Y-91560650D01*
X128554480Y-91643200D01*
X130251200Y-91643200D01*
X130251200Y-89946480D01*
X130352800Y-89946480D01*
X130352800Y-91643200D01*
X132049520Y-91643200D01*
X132132070Y-91560650D01*
X132132070Y-90128449D01*
X132081800Y-90007087D01*
X131988913Y-89914200D01*
X131867551Y-89863930D01*
X130435350Y-89863930D01*
X130352800Y-89946480D01*
X130251200Y-89946480D01*
X130168650Y-89863930D01*
X128736449Y-89863930D01*
X128615087Y-89914200D01*
X128522200Y-90007087D01*
X128471930Y-90128449D01*
X123472200Y-90128449D01*
X123472200Y-90066319D01*
X123421930Y-89944957D01*
X123329043Y-89852070D01*
X123207681Y-89801800D01*
X122275350Y-89801800D01*
X122192800Y-89884350D01*
X122091200Y-89884350D01*
X122008650Y-89801800D01*
X121076319Y-89801800D01*
X120954957Y-89852070D01*
X120862070Y-89944957D01*
X120811800Y-90066319D01*
X120543320Y-90066319D01*
X120522885Y-88271350D01*
X121065800Y-88271350D01*
X121065800Y-89003681D01*
X121116070Y-89125043D01*
X121208957Y-89217930D01*
X121330319Y-89268200D01*
X122262650Y-89268200D01*
X122345200Y-89185650D01*
X122345200Y-88188800D01*
X122446800Y-88188800D01*
X122446800Y-89185650D01*
X122529350Y-89268200D01*
X123461681Y-89268200D01*
X123583043Y-89217930D01*
X123675930Y-89125043D01*
X123726200Y-89003681D01*
X123726200Y-88466268D01*
X126788549Y-88466268D01*
X126807006Y-88643905D01*
X126879323Y-88756289D01*
X126989667Y-88831684D01*
X127120650Y-88858209D01*
X128219200Y-88858209D01*
X128219200Y-86771480D01*
X128320800Y-86771480D01*
X128320800Y-88858209D01*
X129419350Y-88858209D01*
X129591547Y-88810840D01*
X129690534Y-88721053D01*
X129746790Y-88599828D01*
X129751451Y-88466268D01*
X129469385Y-86771480D01*
X128320800Y-86771480D01*
X128219200Y-86771480D01*
X127070615Y-86771480D01*
X126788549Y-88466268D01*
X123726200Y-88466268D01*
X123726200Y-88271350D01*
X123643650Y-88188800D01*
X122446800Y-88188800D01*
X122345200Y-88188800D01*
X121148350Y-88188800D01*
X121065800Y-88271350D01*
X120522885Y-88271350D01*
X120511511Y-87272319D01*
X121065800Y-87272319D01*
X121065800Y-88004650D01*
X121148350Y-88087200D01*
X122345200Y-88087200D01*
X122345200Y-87090350D01*
X122446800Y-87090350D01*
X122446800Y-88087200D01*
X123643650Y-88087200D01*
X123726200Y-88004650D01*
X123726200Y-87272319D01*
X123675930Y-87150957D01*
X123583043Y-87058070D01*
X123461681Y-87007800D01*
X122529350Y-87007800D01*
X122446800Y-87090350D01*
X122345200Y-87090350D01*
X122262650Y-87007800D01*
X121330319Y-87007800D01*
X121208957Y-87058070D01*
X121116070Y-87150957D01*
X121065800Y-87272319D01*
X120511511Y-87272319D01*
X120504652Y-86669880D01*
X127087525Y-86669880D01*
X128219200Y-86669880D01*
X128219200Y-84583151D01*
X128320800Y-84583151D01*
X128320800Y-86669880D01*
X129452475Y-86669880D01*
X129152011Y-84864548D01*
X129133554Y-84797455D01*
X129061237Y-84685071D01*
X128950893Y-84609676D01*
X128819910Y-84583151D01*
X128320800Y-84583151D01*
X128219200Y-84583151D01*
X127720090Y-84583151D01*
X127650878Y-84590342D01*
X127528145Y-84643228D01*
X127435658Y-84739697D01*
X127387989Y-84864548D01*
X127087525Y-86669880D01*
X120504652Y-86669880D01*
X120473070Y-83895993D01*
X133527800Y-83860846D01*
X133527800Y-105258800D01*
X133527800Y-105258800D01*
G37*
X133527800Y-105258800D02*
X120716280Y-105258800D01*
X120703485Y-104134920D01*
X121629170Y-104134920D01*
X121711720Y-104052370D01*
X121711720Y-102839520D01*
X121813320Y-102839520D01*
X121813320Y-104052370D01*
X121895870Y-104134920D01*
X122844201Y-104134920D01*
X122965563Y-104084650D01*
X123058450Y-103991763D01*
X123108720Y-103870401D01*
X123108720Y-102978452D01*
X128979483Y-102978452D01*
X129257527Y-103651371D01*
X129771921Y-104166664D01*
X130444354Y-104445882D01*
X131172452Y-104446517D01*
X131845371Y-104168473D01*
X132360664Y-103654079D01*
X132639882Y-102981646D01*
X132640517Y-102253548D01*
X132362473Y-101580629D01*
X131848079Y-101065336D01*
X131175646Y-100786118D01*
X130447548Y-100785483D01*
X129774629Y-101063527D01*
X129259336Y-101577921D01*
X128980118Y-102250354D01*
X128979483Y-102978452D01*
X123108720Y-102978452D01*
X123108720Y-102922070D01*
X123026170Y-102839520D01*
X121813320Y-102839520D01*
X121711720Y-102839520D01*
X121691720Y-102839520D01*
X121691720Y-102737920D01*
X121711720Y-102737920D01*
X121711720Y-101525070D01*
X121813320Y-101525070D01*
X121813320Y-102737920D01*
X123026170Y-102737920D01*
X123108720Y-102655370D01*
X123108720Y-101707039D01*
X123058450Y-101585677D01*
X122965563Y-101492790D01*
X122844201Y-101442520D01*
X121895870Y-101442520D01*
X121813320Y-101525070D01*
X121711720Y-101525070D01*
X121629170Y-101442520D01*
X120680839Y-101442520D01*
X120672871Y-101445821D01*
X120659833Y-100300669D01*
X121908000Y-100300669D01*
X122030365Y-100277644D01*
X122142749Y-100205327D01*
X122218144Y-100094983D01*
X122244669Y-99964000D01*
X122244669Y-99769200D01*
X122507891Y-99769200D01*
X122507891Y-99913440D01*
X122530916Y-100035805D01*
X122603233Y-100148189D01*
X122713577Y-100223584D01*
X122844560Y-100250109D01*
X124043440Y-100250109D01*
X124165805Y-100227084D01*
X124278189Y-100154767D01*
X124353584Y-100044423D01*
X124380109Y-99913440D01*
X124380109Y-99447350D01*
X124612400Y-99447350D01*
X124612400Y-99979121D01*
X124662670Y-100100483D01*
X124755557Y-100193370D01*
X124876919Y-100243640D01*
X125408690Y-100243640D01*
X125491240Y-100161090D01*
X125491240Y-99364800D01*
X125592840Y-99364800D01*
X125592840Y-100161090D01*
X125675390Y-100243640D01*
X126207161Y-100243640D01*
X126328523Y-100193370D01*
X126421410Y-100100483D01*
X126471680Y-99979121D01*
X126471680Y-99447350D01*
X126389130Y-99364800D01*
X125592840Y-99364800D01*
X125491240Y-99364800D01*
X124694950Y-99364800D01*
X124612400Y-99447350D01*
X124380109Y-99447350D01*
X124380109Y-98714560D01*
X124367751Y-98648879D01*
X124612400Y-98648879D01*
X124612400Y-99180650D01*
X124694950Y-99263200D01*
X125491240Y-99263200D01*
X125491240Y-98466910D01*
X125592840Y-98466910D01*
X125592840Y-99263200D01*
X126389130Y-99263200D01*
X126471680Y-99180650D01*
X126471680Y-98648879D01*
X126421410Y-98527517D01*
X126328523Y-98434630D01*
X126207161Y-98384360D01*
X125675390Y-98384360D01*
X125592840Y-98466910D01*
X125491240Y-98466910D01*
X125408690Y-98384360D01*
X124876919Y-98384360D01*
X124755557Y-98434630D01*
X124662670Y-98527517D01*
X124612400Y-98648879D01*
X124367751Y-98648879D01*
X124357084Y-98592195D01*
X124284767Y-98479811D01*
X124174423Y-98404416D01*
X124043440Y-98377891D01*
X122844560Y-98377891D01*
X122722195Y-98400916D01*
X122609811Y-98473233D01*
X122534416Y-98583577D01*
X122507891Y-98714560D01*
X122507891Y-98858800D01*
X122402507Y-98858800D01*
X122321875Y-98738125D01*
X122244669Y-98686538D01*
X122244669Y-98664000D01*
X122221644Y-98541635D01*
X122149327Y-98429251D01*
X122038983Y-98353856D01*
X121908000Y-98327331D01*
X120637367Y-98327331D01*
X120615418Y-96399350D01*
X120779800Y-96399350D01*
X120779800Y-97131681D01*
X120830070Y-97253043D01*
X120922957Y-97345930D01*
X121044319Y-97396200D01*
X121976650Y-97396200D01*
X122059200Y-97313650D01*
X122059200Y-96316800D01*
X122160800Y-96316800D01*
X122160800Y-97313650D01*
X122243350Y-97396200D01*
X123175681Y-97396200D01*
X123297043Y-97345930D01*
X123389930Y-97253043D01*
X123440200Y-97131681D01*
X123440200Y-96399350D01*
X123357650Y-96316800D01*
X122160800Y-96316800D01*
X122059200Y-96316800D01*
X120862350Y-96316800D01*
X120779800Y-96399350D01*
X120615418Y-96399350D01*
X120604045Y-95400319D01*
X120779800Y-95400319D01*
X120779800Y-96132650D01*
X120862350Y-96215200D01*
X122059200Y-96215200D01*
X122059200Y-95218350D01*
X122160800Y-95218350D01*
X122160800Y-96215200D01*
X123357650Y-96215200D01*
X123440200Y-96132650D01*
X123440200Y-95400319D01*
X123389930Y-95278957D01*
X123297043Y-95186070D01*
X123175681Y-95135800D01*
X122243350Y-95135800D01*
X122160800Y-95218350D01*
X122059200Y-95218350D01*
X121976650Y-95135800D01*
X121044319Y-95135800D01*
X120922957Y-95186070D01*
X120830070Y-95278957D01*
X120779800Y-95400319D01*
X120604045Y-95400319D01*
X120583610Y-93605350D01*
X120779800Y-93605350D01*
X120779800Y-94337681D01*
X120830070Y-94459043D01*
X120922957Y-94551930D01*
X121044319Y-94602200D01*
X121976650Y-94602200D01*
X122059200Y-94519650D01*
X122059200Y-93522800D01*
X122160800Y-93522800D01*
X122160800Y-94519650D01*
X122243350Y-94602200D01*
X123175681Y-94602200D01*
X123297043Y-94551930D01*
X123389930Y-94459043D01*
X123440200Y-94337681D01*
X123440200Y-93605350D01*
X123357650Y-93522800D01*
X122160800Y-93522800D01*
X122059200Y-93522800D01*
X120862350Y-93522800D01*
X120779800Y-93605350D01*
X120583610Y-93605350D01*
X120572237Y-92606319D01*
X120779800Y-92606319D01*
X120779800Y-93338650D01*
X120862350Y-93421200D01*
X122059200Y-93421200D01*
X122059200Y-92424350D01*
X122160800Y-92424350D01*
X122160800Y-93421200D01*
X123357650Y-93421200D01*
X123440200Y-93338650D01*
X123440200Y-92606319D01*
X123389930Y-92484957D01*
X123297043Y-92392070D01*
X123175681Y-92341800D01*
X122243350Y-92341800D01*
X122160800Y-92424350D01*
X122059200Y-92424350D01*
X121976650Y-92341800D01*
X121044319Y-92341800D01*
X120922957Y-92392070D01*
X120830070Y-92484957D01*
X120779800Y-92606319D01*
X120572237Y-92606319D01*
X120554694Y-91065350D01*
X120811800Y-91065350D01*
X120811800Y-91797681D01*
X120862070Y-91919043D01*
X120954957Y-92011930D01*
X121076319Y-92062200D01*
X122008650Y-92062200D01*
X122091200Y-91979650D01*
X122091200Y-90982800D01*
X122192800Y-90982800D01*
X122192800Y-91979650D01*
X122275350Y-92062200D01*
X123207681Y-92062200D01*
X123329043Y-92011930D01*
X123421930Y-91919043D01*
X123459910Y-91827350D01*
X128471930Y-91827350D01*
X128471930Y-93259551D01*
X128522200Y-93380913D01*
X128615087Y-93473800D01*
X128736449Y-93524070D01*
X130168650Y-93524070D01*
X130251200Y-93441520D01*
X130251200Y-91744800D01*
X130352800Y-91744800D01*
X130352800Y-93441520D01*
X130435350Y-93524070D01*
X131867551Y-93524070D01*
X131988913Y-93473800D01*
X132081800Y-93380913D01*
X132132070Y-93259551D01*
X132132070Y-91827350D01*
X132049520Y-91744800D01*
X130352800Y-91744800D01*
X130251200Y-91744800D01*
X128554480Y-91744800D01*
X128471930Y-91827350D01*
X123459910Y-91827350D01*
X123472200Y-91797681D01*
X123472200Y-91065350D01*
X123389650Y-90982800D01*
X122192800Y-90982800D01*
X122091200Y-90982800D01*
X120894350Y-90982800D01*
X120811800Y-91065350D01*
X120554694Y-91065350D01*
X120543320Y-90066319D01*
X120811800Y-90066319D01*
X120811800Y-90798650D01*
X120894350Y-90881200D01*
X122091200Y-90881200D01*
X122091200Y-89884350D01*
X122192800Y-89884350D01*
X122192800Y-90881200D01*
X123389650Y-90881200D01*
X123472200Y-90798650D01*
X123472200Y-90128449D01*
X128471930Y-90128449D01*
X128471930Y-91560650D01*
X128554480Y-91643200D01*
X130251200Y-91643200D01*
X130251200Y-89946480D01*
X130352800Y-89946480D01*
X130352800Y-91643200D01*
X132049520Y-91643200D01*
X132132070Y-91560650D01*
X132132070Y-90128449D01*
X132081800Y-90007087D01*
X131988913Y-89914200D01*
X131867551Y-89863930D01*
X130435350Y-89863930D01*
X130352800Y-89946480D01*
X130251200Y-89946480D01*
X130168650Y-89863930D01*
X128736449Y-89863930D01*
X128615087Y-89914200D01*
X128522200Y-90007087D01*
X128471930Y-90128449D01*
X123472200Y-90128449D01*
X123472200Y-90066319D01*
X123421930Y-89944957D01*
X123329043Y-89852070D01*
X123207681Y-89801800D01*
X122275350Y-89801800D01*
X122192800Y-89884350D01*
X122091200Y-89884350D01*
X122008650Y-89801800D01*
X121076319Y-89801800D01*
X120954957Y-89852070D01*
X120862070Y-89944957D01*
X120811800Y-90066319D01*
X120543320Y-90066319D01*
X120522885Y-88271350D01*
X121065800Y-88271350D01*
X121065800Y-89003681D01*
X121116070Y-89125043D01*
X121208957Y-89217930D01*
X121330319Y-89268200D01*
X122262650Y-89268200D01*
X122345200Y-89185650D01*
X122345200Y-88188800D01*
X122446800Y-88188800D01*
X122446800Y-89185650D01*
X122529350Y-89268200D01*
X123461681Y-89268200D01*
X123583043Y-89217930D01*
X123675930Y-89125043D01*
X123726200Y-89003681D01*
X123726200Y-88466268D01*
X126788549Y-88466268D01*
X126807006Y-88643905D01*
X126879323Y-88756289D01*
X126989667Y-88831684D01*
X127120650Y-88858209D01*
X128219200Y-88858209D01*
X128219200Y-86771480D01*
X128320800Y-86771480D01*
X128320800Y-88858209D01*
X129419350Y-88858209D01*
X129591547Y-88810840D01*
X129690534Y-88721053D01*
X129746790Y-88599828D01*
X129751451Y-88466268D01*
X129469385Y-86771480D01*
X128320800Y-86771480D01*
X128219200Y-86771480D01*
X127070615Y-86771480D01*
X126788549Y-88466268D01*
X123726200Y-88466268D01*
X123726200Y-88271350D01*
X123643650Y-88188800D01*
X122446800Y-88188800D01*
X122345200Y-88188800D01*
X121148350Y-88188800D01*
X121065800Y-88271350D01*
X120522885Y-88271350D01*
X120511511Y-87272319D01*
X121065800Y-87272319D01*
X121065800Y-88004650D01*
X121148350Y-88087200D01*
X122345200Y-88087200D01*
X122345200Y-87090350D01*
X122446800Y-87090350D01*
X122446800Y-88087200D01*
X123643650Y-88087200D01*
X123726200Y-88004650D01*
X123726200Y-87272319D01*
X123675930Y-87150957D01*
X123583043Y-87058070D01*
X123461681Y-87007800D01*
X122529350Y-87007800D01*
X122446800Y-87090350D01*
X122345200Y-87090350D01*
X122262650Y-87007800D01*
X121330319Y-87007800D01*
X121208957Y-87058070D01*
X121116070Y-87150957D01*
X121065800Y-87272319D01*
X120511511Y-87272319D01*
X120504652Y-86669880D01*
X127087525Y-86669880D01*
X128219200Y-86669880D01*
X128219200Y-84583151D01*
X128320800Y-84583151D01*
X128320800Y-86669880D01*
X129452475Y-86669880D01*
X129152011Y-84864548D01*
X129133554Y-84797455D01*
X129061237Y-84685071D01*
X128950893Y-84609676D01*
X128819910Y-84583151D01*
X128320800Y-84583151D01*
X128219200Y-84583151D01*
X127720090Y-84583151D01*
X127650878Y-84590342D01*
X127528145Y-84643228D01*
X127435658Y-84739697D01*
X127387989Y-84864548D01*
X127087525Y-86669880D01*
X120504652Y-86669880D01*
X120473070Y-83895993D01*
X133527800Y-83860846D01*
X133527800Y-105258800D01*
G36*
X133527871Y-72566997D02*
X121247459Y-72438232D01*
X121154795Y-72419800D01*
X120599227Y-72419800D01*
X120599399Y-71860200D01*
X121154795Y-71860200D01*
X121230205Y-71845200D01*
X121756680Y-71845200D01*
X121930878Y-71810550D01*
X122078555Y-71711875D01*
X123025738Y-70764692D01*
X123137005Y-70764789D01*
X123368713Y-70669049D01*
X123546146Y-70491926D01*
X123642290Y-70260384D01*
X123642509Y-70009675D01*
X123546769Y-69777967D01*
X123369646Y-69600534D01*
X123138104Y-69504390D01*
X122887395Y-69504171D01*
X122690886Y-69585367D01*
X122777530Y-69498723D01*
X122827800Y-69377361D01*
X122827800Y-68947030D01*
X122745250Y-68864480D01*
X121925400Y-68864480D01*
X121925400Y-69559330D01*
X122007950Y-69641880D01*
X122563281Y-69641880D01*
X122649364Y-69606223D01*
X122478254Y-69777034D01*
X122382110Y-70008576D01*
X122382012Y-70120918D01*
X121568130Y-70934800D01*
X121230205Y-70934800D01*
X121154795Y-70919800D01*
X120599689Y-70919800D01*
X120600297Y-68947030D01*
X120667400Y-68947030D01*
X120667400Y-69377361D01*
X120717670Y-69498723D01*
X120810557Y-69591610D01*
X120931919Y-69641880D01*
X121487250Y-69641880D01*
X121569800Y-69559330D01*
X121569800Y-68864480D01*
X120749950Y-68864480D01*
X120667400Y-68947030D01*
X120600297Y-68947030D01*
X120600590Y-67995999D01*
X120667400Y-67995999D01*
X120667400Y-68426330D01*
X120749950Y-68508880D01*
X121569800Y-68508880D01*
X121569800Y-67814030D01*
X121925400Y-67814030D01*
X121925400Y-68508880D01*
X122745250Y-68508880D01*
X122827800Y-68426330D01*
X122827800Y-67995999D01*
X122777530Y-67874637D01*
X122684643Y-67781750D01*
X122563281Y-67731480D01*
X122007950Y-67731480D01*
X121925400Y-67814030D01*
X121569800Y-67814030D01*
X121487250Y-67731480D01*
X120931919Y-67731480D01*
X120810557Y-67781750D01*
X120717670Y-67874637D01*
X120667400Y-67995999D01*
X120600590Y-67995999D01*
X120600755Y-67460350D01*
X126393800Y-67460350D01*
X126393800Y-68165681D01*
X126444070Y-68287043D01*
X126536957Y-68379930D01*
X126658319Y-68430200D01*
X128263650Y-68430200D01*
X128346200Y-68347650D01*
X128346200Y-67377800D01*
X128701800Y-67377800D01*
X128701800Y-68347650D01*
X128784350Y-68430200D01*
X130389681Y-68430200D01*
X130511043Y-68379930D01*
X130603930Y-68287043D01*
X130654200Y-68165681D01*
X130654200Y-67460350D01*
X130571650Y-67377800D01*
X128701800Y-67377800D01*
X128346200Y-67377800D01*
X126476350Y-67377800D01*
X126393800Y-67460350D01*
X120600755Y-67460350D01*
X120601133Y-66234319D01*
X126393800Y-66234319D01*
X126393800Y-66939650D01*
X126476350Y-67022200D01*
X128346200Y-67022200D01*
X128346200Y-66052350D01*
X128701800Y-66052350D01*
X128701800Y-67022200D01*
X130571650Y-67022200D01*
X130654200Y-66939650D01*
X130654200Y-66234319D01*
X130603930Y-66112957D01*
X130511043Y-66020070D01*
X130389681Y-65969800D01*
X128784350Y-65969800D01*
X128701800Y-66052350D01*
X128346200Y-66052350D01*
X128263650Y-65969800D01*
X126658319Y-65969800D01*
X126536957Y-66020070D01*
X126444070Y-66112957D01*
X126393800Y-66234319D01*
X120601133Y-66234319D01*
X120601563Y-64842390D01*
X120607080Y-64842390D01*
X120607080Y-65447721D01*
X120657350Y-65569083D01*
X120750237Y-65661970D01*
X120871599Y-65712240D01*
X121676930Y-65712240D01*
X121759480Y-65629690D01*
X121759480Y-64759840D01*
X122115080Y-64759840D01*
X122115080Y-65629690D01*
X122197630Y-65712240D01*
X123002961Y-65712240D01*
X123124323Y-65661970D01*
X123217210Y-65569083D01*
X123267480Y-65447721D01*
X123267480Y-64842390D01*
X123184930Y-64759840D01*
X122115080Y-64759840D01*
X121759480Y-64759840D01*
X120689630Y-64759840D01*
X120607080Y-64842390D01*
X120601563Y-64842390D01*
X120601910Y-63716359D01*
X120607080Y-63716359D01*
X120607080Y-64321690D01*
X120689630Y-64404240D01*
X121759480Y-64404240D01*
X121759480Y-63534390D01*
X122115080Y-63534390D01*
X122115080Y-64404240D01*
X123184930Y-64404240D01*
X123267480Y-64321690D01*
X123267480Y-63716359D01*
X123217210Y-63594997D01*
X123124323Y-63502110D01*
X123002961Y-63451840D01*
X122197630Y-63451840D01*
X122115080Y-63534390D01*
X121759480Y-63534390D01*
X121676930Y-63451840D01*
X120871599Y-63451840D01*
X120750237Y-63502110D01*
X120657350Y-63594997D01*
X120607080Y-63716359D01*
X120601910Y-63716359D01*
X120602266Y-62565927D01*
X120613150Y-62592203D01*
X120706037Y-62685090D01*
X120827399Y-62735360D01*
X121632730Y-62735360D01*
X121715280Y-62652810D01*
X121715280Y-61782960D01*
X122070880Y-61782960D01*
X122070880Y-62652810D01*
X122153430Y-62735360D01*
X122958761Y-62735360D01*
X123080123Y-62685090D01*
X123173010Y-62592203D01*
X123223280Y-62470841D01*
X123223280Y-61865510D01*
X123140730Y-61782960D01*
X122070880Y-61782960D01*
X121715280Y-61782960D01*
X121695280Y-61782960D01*
X121695280Y-61427360D01*
X121715280Y-61427360D01*
X121715280Y-60557510D01*
X122070880Y-60557510D01*
X122070880Y-61427360D01*
X123140730Y-61427360D01*
X123223280Y-61344810D01*
X123223280Y-60739479D01*
X123173010Y-60618117D01*
X123080123Y-60525230D01*
X122958761Y-60474960D01*
X122153430Y-60474960D01*
X122070880Y-60557510D01*
X121715280Y-60557510D01*
X121632730Y-60474960D01*
X120827399Y-60474960D01*
X120706037Y-60525230D01*
X120613150Y-60618117D01*
X120602859Y-60642961D01*
X120603072Y-59950350D01*
X123899930Y-59950350D01*
X123899930Y-61255551D01*
X123950200Y-61376913D01*
X124043087Y-61469800D01*
X124164449Y-61520070D01*
X125469650Y-61520070D01*
X125552200Y-61437520D01*
X125552200Y-59867800D01*
X125907800Y-59867800D01*
X125907800Y-61437520D01*
X125990350Y-61520070D01*
X127295551Y-61520070D01*
X127416913Y-61469800D01*
X127509800Y-61376913D01*
X127560070Y-61255551D01*
X127560070Y-60052452D01*
X128979483Y-60052452D01*
X129257527Y-60725371D01*
X129771921Y-61240664D01*
X130444354Y-61519882D01*
X131172452Y-61520517D01*
X131845371Y-61242473D01*
X132360664Y-60728079D01*
X132639882Y-60055646D01*
X132640517Y-59327548D01*
X132362473Y-58654629D01*
X131848079Y-58139336D01*
X131175646Y-57860118D01*
X130447548Y-57859483D01*
X129774629Y-58137527D01*
X129259336Y-58651921D01*
X128980118Y-59324354D01*
X128979483Y-60052452D01*
X127560070Y-60052452D01*
X127560070Y-59950350D01*
X127477520Y-59867800D01*
X125907800Y-59867800D01*
X125552200Y-59867800D01*
X123982480Y-59867800D01*
X123899930Y-59950350D01*
X120603072Y-59950350D01*
X120603395Y-58907680D01*
X121238010Y-58907680D01*
X121320560Y-58825130D01*
X121320560Y-57739280D01*
X121676160Y-57739280D01*
X121676160Y-58825130D01*
X121758710Y-58907680D01*
X122580041Y-58907680D01*
X122701403Y-58857410D01*
X122794290Y-58764523D01*
X122844560Y-58643161D01*
X122844560Y-58124449D01*
X123899930Y-58124449D01*
X123899930Y-59429650D01*
X123982480Y-59512200D01*
X125552200Y-59512200D01*
X125552200Y-57942480D01*
X125907800Y-57942480D01*
X125907800Y-59512200D01*
X127477520Y-59512200D01*
X127560070Y-59429650D01*
X127560070Y-58124449D01*
X127509800Y-58003087D01*
X127416913Y-57910200D01*
X127295551Y-57859930D01*
X125990350Y-57859930D01*
X125907800Y-57942480D01*
X125552200Y-57942480D01*
X125469650Y-57859930D01*
X124164449Y-57859930D01*
X124043087Y-57910200D01*
X123950200Y-58003087D01*
X123899930Y-58124449D01*
X122844560Y-58124449D01*
X122844560Y-57821830D01*
X122762010Y-57739280D01*
X121676160Y-57739280D01*
X121320560Y-57739280D01*
X121300560Y-57739280D01*
X121300560Y-57383680D01*
X121320560Y-57383680D01*
X121320560Y-57363680D01*
X121676160Y-57363680D01*
X121676160Y-57383680D01*
X122762010Y-57383680D01*
X122844560Y-57301130D01*
X122844560Y-56479799D01*
X122794290Y-56358437D01*
X122721053Y-56285200D01*
X133542803Y-56285200D01*
X133527871Y-72566997D01*
X133527871Y-72566997D01*
G37*
X133527871Y-72566997D02*
X121247459Y-72438232D01*
X121154795Y-72419800D01*
X120599227Y-72419800D01*
X120599399Y-71860200D01*
X121154795Y-71860200D01*
X121230205Y-71845200D01*
X121756680Y-71845200D01*
X121930878Y-71810550D01*
X122078555Y-71711875D01*
X123025738Y-70764692D01*
X123137005Y-70764789D01*
X123368713Y-70669049D01*
X123546146Y-70491926D01*
X123642290Y-70260384D01*
X123642509Y-70009675D01*
X123546769Y-69777967D01*
X123369646Y-69600534D01*
X123138104Y-69504390D01*
X122887395Y-69504171D01*
X122690886Y-69585367D01*
X122777530Y-69498723D01*
X122827800Y-69377361D01*
X122827800Y-68947030D01*
X122745250Y-68864480D01*
X121925400Y-68864480D01*
X121925400Y-69559330D01*
X122007950Y-69641880D01*
X122563281Y-69641880D01*
X122649364Y-69606223D01*
X122478254Y-69777034D01*
X122382110Y-70008576D01*
X122382012Y-70120918D01*
X121568130Y-70934800D01*
X121230205Y-70934800D01*
X121154795Y-70919800D01*
X120599689Y-70919800D01*
X120600297Y-68947030D01*
X120667400Y-68947030D01*
X120667400Y-69377361D01*
X120717670Y-69498723D01*
X120810557Y-69591610D01*
X120931919Y-69641880D01*
X121487250Y-69641880D01*
X121569800Y-69559330D01*
X121569800Y-68864480D01*
X120749950Y-68864480D01*
X120667400Y-68947030D01*
X120600297Y-68947030D01*
X120600590Y-67995999D01*
X120667400Y-67995999D01*
X120667400Y-68426330D01*
X120749950Y-68508880D01*
X121569800Y-68508880D01*
X121569800Y-67814030D01*
X121925400Y-67814030D01*
X121925400Y-68508880D01*
X122745250Y-68508880D01*
X122827800Y-68426330D01*
X122827800Y-67995999D01*
X122777530Y-67874637D01*
X122684643Y-67781750D01*
X122563281Y-67731480D01*
X122007950Y-67731480D01*
X121925400Y-67814030D01*
X121569800Y-67814030D01*
X121487250Y-67731480D01*
X120931919Y-67731480D01*
X120810557Y-67781750D01*
X120717670Y-67874637D01*
X120667400Y-67995999D01*
X120600590Y-67995999D01*
X120600755Y-67460350D01*
X126393800Y-67460350D01*
X126393800Y-68165681D01*
X126444070Y-68287043D01*
X126536957Y-68379930D01*
X126658319Y-68430200D01*
X128263650Y-68430200D01*
X128346200Y-68347650D01*
X128346200Y-67377800D01*
X128701800Y-67377800D01*
X128701800Y-68347650D01*
X128784350Y-68430200D01*
X130389681Y-68430200D01*
X130511043Y-68379930D01*
X130603930Y-68287043D01*
X130654200Y-68165681D01*
X130654200Y-67460350D01*
X130571650Y-67377800D01*
X128701800Y-67377800D01*
X128346200Y-67377800D01*
X126476350Y-67377800D01*
X126393800Y-67460350D01*
X120600755Y-67460350D01*
X120601133Y-66234319D01*
X126393800Y-66234319D01*
X126393800Y-66939650D01*
X126476350Y-67022200D01*
X128346200Y-67022200D01*
X128346200Y-66052350D01*
X128701800Y-66052350D01*
X128701800Y-67022200D01*
X130571650Y-67022200D01*
X130654200Y-66939650D01*
X130654200Y-66234319D01*
X130603930Y-66112957D01*
X130511043Y-66020070D01*
X130389681Y-65969800D01*
X128784350Y-65969800D01*
X128701800Y-66052350D01*
X128346200Y-66052350D01*
X128263650Y-65969800D01*
X126658319Y-65969800D01*
X126536957Y-66020070D01*
X126444070Y-66112957D01*
X126393800Y-66234319D01*
X120601133Y-66234319D01*
X120601563Y-64842390D01*
X120607080Y-64842390D01*
X120607080Y-65447721D01*
X120657350Y-65569083D01*
X120750237Y-65661970D01*
X120871599Y-65712240D01*
X121676930Y-65712240D01*
X121759480Y-65629690D01*
X121759480Y-64759840D01*
X122115080Y-64759840D01*
X122115080Y-65629690D01*
X122197630Y-65712240D01*
X123002961Y-65712240D01*
X123124323Y-65661970D01*
X123217210Y-65569083D01*
X123267480Y-65447721D01*
X123267480Y-64842390D01*
X123184930Y-64759840D01*
X122115080Y-64759840D01*
X121759480Y-64759840D01*
X120689630Y-64759840D01*
X120607080Y-64842390D01*
X120601563Y-64842390D01*
X120601910Y-63716359D01*
X120607080Y-63716359D01*
X120607080Y-64321690D01*
X120689630Y-64404240D01*
X121759480Y-64404240D01*
X121759480Y-63534390D01*
X122115080Y-63534390D01*
X122115080Y-64404240D01*
X123184930Y-64404240D01*
X123267480Y-64321690D01*
X123267480Y-63716359D01*
X123217210Y-63594997D01*
X123124323Y-63502110D01*
X123002961Y-63451840D01*
X122197630Y-63451840D01*
X122115080Y-63534390D01*
X121759480Y-63534390D01*
X121676930Y-63451840D01*
X120871599Y-63451840D01*
X120750237Y-63502110D01*
X120657350Y-63594997D01*
X120607080Y-63716359D01*
X120601910Y-63716359D01*
X120602266Y-62565927D01*
X120613150Y-62592203D01*
X120706037Y-62685090D01*
X120827399Y-62735360D01*
X121632730Y-62735360D01*
X121715280Y-62652810D01*
X121715280Y-61782960D01*
X122070880Y-61782960D01*
X122070880Y-62652810D01*
X122153430Y-62735360D01*
X122958761Y-62735360D01*
X123080123Y-62685090D01*
X123173010Y-62592203D01*
X123223280Y-62470841D01*
X123223280Y-61865510D01*
X123140730Y-61782960D01*
X122070880Y-61782960D01*
X121715280Y-61782960D01*
X121695280Y-61782960D01*
X121695280Y-61427360D01*
X121715280Y-61427360D01*
X121715280Y-60557510D01*
X122070880Y-60557510D01*
X122070880Y-61427360D01*
X123140730Y-61427360D01*
X123223280Y-61344810D01*
X123223280Y-60739479D01*
X123173010Y-60618117D01*
X123080123Y-60525230D01*
X122958761Y-60474960D01*
X122153430Y-60474960D01*
X122070880Y-60557510D01*
X121715280Y-60557510D01*
X121632730Y-60474960D01*
X120827399Y-60474960D01*
X120706037Y-60525230D01*
X120613150Y-60618117D01*
X120602859Y-60642961D01*
X120603072Y-59950350D01*
X123899930Y-59950350D01*
X123899930Y-61255551D01*
X123950200Y-61376913D01*
X124043087Y-61469800D01*
X124164449Y-61520070D01*
X125469650Y-61520070D01*
X125552200Y-61437520D01*
X125552200Y-59867800D01*
X125907800Y-59867800D01*
X125907800Y-61437520D01*
X125990350Y-61520070D01*
X127295551Y-61520070D01*
X127416913Y-61469800D01*
X127509800Y-61376913D01*
X127560070Y-61255551D01*
X127560070Y-60052452D01*
X128979483Y-60052452D01*
X129257527Y-60725371D01*
X129771921Y-61240664D01*
X130444354Y-61519882D01*
X131172452Y-61520517D01*
X131845371Y-61242473D01*
X132360664Y-60728079D01*
X132639882Y-60055646D01*
X132640517Y-59327548D01*
X132362473Y-58654629D01*
X131848079Y-58139336D01*
X131175646Y-57860118D01*
X130447548Y-57859483D01*
X129774629Y-58137527D01*
X129259336Y-58651921D01*
X128980118Y-59324354D01*
X128979483Y-60052452D01*
X127560070Y-60052452D01*
X127560070Y-59950350D01*
X127477520Y-59867800D01*
X125907800Y-59867800D01*
X125552200Y-59867800D01*
X123982480Y-59867800D01*
X123899930Y-59950350D01*
X120603072Y-59950350D01*
X120603395Y-58907680D01*
X121238010Y-58907680D01*
X121320560Y-58825130D01*
X121320560Y-57739280D01*
X121676160Y-57739280D01*
X121676160Y-58825130D01*
X121758710Y-58907680D01*
X122580041Y-58907680D01*
X122701403Y-58857410D01*
X122794290Y-58764523D01*
X122844560Y-58643161D01*
X122844560Y-58124449D01*
X123899930Y-58124449D01*
X123899930Y-59429650D01*
X123982480Y-59512200D01*
X125552200Y-59512200D01*
X125552200Y-57942480D01*
X125907800Y-57942480D01*
X125907800Y-59512200D01*
X127477520Y-59512200D01*
X127560070Y-59429650D01*
X127560070Y-58124449D01*
X127509800Y-58003087D01*
X127416913Y-57910200D01*
X127295551Y-57859930D01*
X125990350Y-57859930D01*
X125907800Y-57942480D01*
X125552200Y-57942480D01*
X125469650Y-57859930D01*
X124164449Y-57859930D01*
X124043087Y-57910200D01*
X123950200Y-58003087D01*
X123899930Y-58124449D01*
X122844560Y-58124449D01*
X122844560Y-57821830D01*
X122762010Y-57739280D01*
X121676160Y-57739280D01*
X121320560Y-57739280D01*
X121300560Y-57739280D01*
X121300560Y-57383680D01*
X121320560Y-57383680D01*
X121320560Y-57363680D01*
X121676160Y-57363680D01*
X121676160Y-57383680D01*
X122762010Y-57383680D01*
X122844560Y-57301130D01*
X122844560Y-56479799D01*
X122794290Y-56358437D01*
X122721053Y-56285200D01*
X133542803Y-56285200D01*
X133527871Y-72566997D01*
M02*
