G04 #@! TF.FileFunction,Legend,Bot*
%FSLAX46Y46*%
G04 Gerber Fmt 4.6, Leading zero omitted, Abs format (unit mm)*
G04 Created by KiCad (PCBNEW 0.201509151501+6198~30~ubuntu14.04.1-product) date Sun 08 Nov 2015 02:29:05 PM EST*
%MOMM*%
G01*
G04 APERTURE LIST*
%ADD10C,0.100000*%
%ADD11C,0.300000*%
%ADD12C,0.010000*%
%ADD13R,2.432000X2.432000*%
%ADD14O,2.432000X2.432000*%
%ADD15C,0.501600*%
G04 APERTURE END LIST*
D10*
D11*
X129543713Y-70655571D02*
X130043713Y-69941286D01*
X130400856Y-70655571D02*
X130400856Y-69155571D01*
X129829428Y-69155571D01*
X129686570Y-69227000D01*
X129615142Y-69298429D01*
X129543713Y-69441286D01*
X129543713Y-69655571D01*
X129615142Y-69798429D01*
X129686570Y-69869857D01*
X129829428Y-69941286D01*
X130400856Y-69941286D01*
X128329428Y-70584143D02*
X128472285Y-70655571D01*
X128757999Y-70655571D01*
X128900856Y-70584143D01*
X128972285Y-70441286D01*
X128972285Y-69869857D01*
X128900856Y-69727000D01*
X128757999Y-69655571D01*
X128472285Y-69655571D01*
X128329428Y-69727000D01*
X128257999Y-69869857D01*
X128257999Y-70012714D01*
X128972285Y-70155571D01*
X127757999Y-69655571D02*
X127400856Y-70655571D01*
X127043714Y-69655571D01*
X124543714Y-70655571D02*
X125400857Y-70655571D01*
X124972285Y-70655571D02*
X124972285Y-69155571D01*
X125115142Y-69369857D01*
X125258000Y-69512714D01*
X125400857Y-69584143D01*
X130376143Y-67988571D02*
X130376143Y-66488571D01*
X129804715Y-66488571D01*
X129661857Y-66560000D01*
X129590429Y-66631429D01*
X129519000Y-66774286D01*
X129519000Y-66988571D01*
X129590429Y-67131429D01*
X129661857Y-67202857D01*
X129804715Y-67274286D01*
X130376143Y-67274286D01*
X128661857Y-67988571D02*
X128804715Y-67917143D01*
X128876143Y-67845714D01*
X128947572Y-67702857D01*
X128947572Y-67274286D01*
X128876143Y-67131429D01*
X128804715Y-67060000D01*
X128661857Y-66988571D01*
X128447572Y-66988571D01*
X128304715Y-67060000D01*
X128233286Y-67131429D01*
X128161857Y-67274286D01*
X128161857Y-67702857D01*
X128233286Y-67845714D01*
X128304715Y-67917143D01*
X128447572Y-67988571D01*
X128661857Y-67988571D01*
X127661857Y-66988571D02*
X127376143Y-67988571D01*
X127090429Y-67274286D01*
X126804714Y-67988571D01*
X126519000Y-66988571D01*
X125376143Y-67917143D02*
X125519000Y-67988571D01*
X125804714Y-67988571D01*
X125947571Y-67917143D01*
X126019000Y-67774286D01*
X126019000Y-67202857D01*
X125947571Y-67060000D01*
X125804714Y-66988571D01*
X125519000Y-66988571D01*
X125376143Y-67060000D01*
X125304714Y-67202857D01*
X125304714Y-67345714D01*
X126019000Y-67488571D01*
X124661857Y-67988571D02*
X124661857Y-66988571D01*
X124661857Y-67274286D02*
X124590429Y-67131429D01*
X124519000Y-67060000D01*
X124376143Y-66988571D01*
X124233286Y-66988571D01*
X122661858Y-67917143D02*
X122447572Y-67988571D01*
X122090429Y-67988571D01*
X121947572Y-67917143D01*
X121876143Y-67845714D01*
X121804715Y-67702857D01*
X121804715Y-67560000D01*
X121876143Y-67417143D01*
X121947572Y-67345714D01*
X122090429Y-67274286D01*
X122376143Y-67202857D01*
X122519001Y-67131429D01*
X122590429Y-67060000D01*
X122661858Y-66917143D01*
X122661858Y-66774286D01*
X122590429Y-66631429D01*
X122519001Y-66560000D01*
X122376143Y-66488571D01*
X122019001Y-66488571D01*
X121804715Y-66560000D01*
X121304715Y-66988571D02*
X121019001Y-67988571D01*
X120733287Y-67274286D01*
X120447572Y-67988571D01*
X120161858Y-66988571D01*
X118947572Y-67988571D02*
X118947572Y-67202857D01*
X119019001Y-67060000D01*
X119161858Y-66988571D01*
X119447572Y-66988571D01*
X119590429Y-67060000D01*
X118947572Y-67917143D02*
X119090429Y-67988571D01*
X119447572Y-67988571D01*
X119590429Y-67917143D01*
X119661858Y-67774286D01*
X119661858Y-67631429D01*
X119590429Y-67488571D01*
X119447572Y-67417143D01*
X119090429Y-67417143D01*
X118947572Y-67345714D01*
X118233286Y-66988571D02*
X118233286Y-68488571D01*
X118233286Y-67060000D02*
X118090429Y-66988571D01*
X117804715Y-66988571D01*
X117661858Y-67060000D01*
X117590429Y-67131429D01*
X117519000Y-67274286D01*
X117519000Y-67702857D01*
X117590429Y-67845714D01*
X117661858Y-67917143D01*
X117804715Y-67988571D01*
X118090429Y-67988571D01*
X118233286Y-67917143D01*
X115233286Y-67202857D02*
X115019000Y-67274286D01*
X114947572Y-67345714D01*
X114876143Y-67488571D01*
X114876143Y-67702857D01*
X114947572Y-67845714D01*
X115019000Y-67917143D01*
X115161858Y-67988571D01*
X115733286Y-67988571D01*
X115733286Y-66488571D01*
X115233286Y-66488571D01*
X115090429Y-66560000D01*
X115019000Y-66631429D01*
X114947572Y-66774286D01*
X114947572Y-66917143D01*
X115019000Y-67060000D01*
X115090429Y-67131429D01*
X115233286Y-67202857D01*
X115733286Y-67202857D01*
X114019000Y-67988571D02*
X114161858Y-67917143D01*
X114233286Y-67845714D01*
X114304715Y-67702857D01*
X114304715Y-67274286D01*
X114233286Y-67131429D01*
X114161858Y-67060000D01*
X114019000Y-66988571D01*
X113804715Y-66988571D01*
X113661858Y-67060000D01*
X113590429Y-67131429D01*
X113519000Y-67274286D01*
X113519000Y-67702857D01*
X113590429Y-67845714D01*
X113661858Y-67917143D01*
X113804715Y-67988571D01*
X114019000Y-67988571D01*
X112661857Y-67988571D02*
X112804715Y-67917143D01*
X112876143Y-67845714D01*
X112947572Y-67702857D01*
X112947572Y-67274286D01*
X112876143Y-67131429D01*
X112804715Y-67060000D01*
X112661857Y-66988571D01*
X112447572Y-66988571D01*
X112304715Y-67060000D01*
X112233286Y-67131429D01*
X112161857Y-67274286D01*
X112161857Y-67702857D01*
X112233286Y-67845714D01*
X112304715Y-67917143D01*
X112447572Y-67988571D01*
X112661857Y-67988571D01*
X111590429Y-67917143D02*
X111447572Y-67988571D01*
X111161857Y-67988571D01*
X111019000Y-67917143D01*
X110947572Y-67774286D01*
X110947572Y-67702857D01*
X111019000Y-67560000D01*
X111161857Y-67488571D01*
X111376143Y-67488571D01*
X111519000Y-67417143D01*
X111590429Y-67274286D01*
X111590429Y-67202857D01*
X111519000Y-67060000D01*
X111376143Y-66988571D01*
X111161857Y-66988571D01*
X111019000Y-67060000D01*
X110519000Y-66988571D02*
X109947571Y-66988571D01*
X110304714Y-66488571D02*
X110304714Y-67774286D01*
X110233286Y-67917143D01*
X110090428Y-67988571D01*
X109947571Y-67988571D01*
D12*
G36*
X119583016Y-59482714D02*
X119511242Y-59516419D01*
X119311744Y-59595299D01*
X119150864Y-59580074D01*
X119016398Y-59518717D01*
X118717554Y-59448311D01*
X118438060Y-59531237D01*
X118240458Y-59729227D01*
X118181998Y-59801875D01*
X118093561Y-59850750D01*
X117944287Y-59880498D01*
X117703312Y-59895762D01*
X117339774Y-59901190D01*
X117094801Y-59901666D01*
X116056834Y-59901666D01*
X116056834Y-60320003D01*
X116030903Y-60623346D01*
X115958341Y-60790433D01*
X115846991Y-60808922D01*
X115778523Y-60757889D01*
X115633230Y-60692190D01*
X115412480Y-60663700D01*
X115404900Y-60663666D01*
X115125500Y-60663666D01*
X115125500Y-61838271D01*
X115400667Y-61864802D01*
X115613685Y-61854710D01*
X115766288Y-61746024D01*
X115847701Y-61637333D01*
X116074121Y-61420922D01*
X116384891Y-61272891D01*
X116730857Y-61200801D01*
X117062869Y-61212210D01*
X117331775Y-61314679D01*
X117421414Y-61395277D01*
X117461645Y-61542698D01*
X117342898Y-61683656D01*
X117075527Y-61811437D01*
X116669887Y-61919325D01*
X116589207Y-61934967D01*
X115993647Y-62071299D01*
X115550030Y-62238634D01*
X115241889Y-62450341D01*
X115052755Y-62719788D01*
X114966160Y-63060345D01*
X114956167Y-63260592D01*
X115013882Y-63711828D01*
X115196394Y-64056872D01*
X115517749Y-64317632D01*
X115689199Y-64403634D01*
X115908346Y-64509306D01*
X116016607Y-64612996D01*
X116053077Y-64776402D01*
X116056834Y-64983838D01*
X116056834Y-65401420D01*
X117729000Y-65424376D01*
X119401167Y-65447333D01*
X119426758Y-65891833D01*
X119448834Y-66151523D01*
X119490917Y-66283981D01*
X119575053Y-66331296D01*
X119659592Y-66336333D01*
X119866834Y-66336333D01*
X119866834Y-64473666D01*
X119655167Y-64473666D01*
X119529545Y-64487391D01*
X119466875Y-64557437D01*
X119445506Y-64727106D01*
X119443500Y-64897000D01*
X119443500Y-65320333D01*
X116141500Y-65320333D01*
X116141500Y-64593153D01*
X116713000Y-64489229D01*
X117052609Y-64427516D01*
X117365838Y-64370668D01*
X117559667Y-64335555D01*
X117765160Y-64323762D01*
X117834834Y-64379736D01*
X117909230Y-64441810D01*
X118092177Y-64472851D01*
X118131167Y-64473666D01*
X118427500Y-64473666D01*
X118427500Y-63119000D01*
X118137056Y-63119000D01*
X117929671Y-63141652D01*
X117837495Y-63228841D01*
X117819556Y-63301005D01*
X117701607Y-63550736D01*
X117438753Y-63725603D01*
X117040083Y-63821169D01*
X116718251Y-63838666D01*
X116394474Y-63831941D01*
X116194849Y-63804101D01*
X116074469Y-63743648D01*
X115998444Y-63654372D01*
X115923352Y-63506197D01*
X115963169Y-63389246D01*
X116044525Y-63300642D01*
X116241342Y-63180204D01*
X116527219Y-63090910D01*
X116622231Y-63074349D01*
X117240183Y-62961178D01*
X117707654Y-62808586D01*
X118041184Y-62605044D01*
X118257313Y-62339023D01*
X118372581Y-61998995D01*
X118394194Y-61839207D01*
X118393106Y-61431724D01*
X118289606Y-61125320D01*
X118062667Y-60872579D01*
X117918267Y-60766142D01*
X117732506Y-60658317D01*
X117544112Y-60603033D01*
X117292744Y-60588875D01*
X117030500Y-60598173D01*
X116710461Y-60623308D01*
X116443757Y-60659280D01*
X116289667Y-60697797D01*
X116199243Y-60719000D01*
X116155294Y-60649390D01*
X116141928Y-60454495D01*
X116141500Y-60376391D01*
X116141500Y-59986333D01*
X117222090Y-59986333D01*
X117667493Y-59984909D01*
X117973116Y-59977415D01*
X118168508Y-59959014D01*
X118283219Y-59924871D01*
X118346798Y-59870152D01*
X118386257Y-59795833D01*
X118538082Y-59621827D01*
X118748277Y-59574176D01*
X118960174Y-59654973D01*
X119067649Y-59770641D01*
X119210401Y-59988508D01*
X119407574Y-59775754D01*
X119645746Y-59598541D01*
X119872930Y-59589110D01*
X120084003Y-59747544D01*
X120097909Y-59764753D01*
X120256608Y-59966506D01*
X120436315Y-59764753D01*
X120665405Y-59594491D01*
X120892808Y-59592367D01*
X121108464Y-59758237D01*
X121121707Y-59774666D01*
X121278758Y-59946766D01*
X121366001Y-59970435D01*
X121390834Y-59862312D01*
X121459777Y-59704886D01*
X121629305Y-59615176D01*
X121843467Y-59596319D01*
X122046313Y-59651453D01*
X122181891Y-59783718D01*
X122195230Y-59817196D01*
X122229274Y-59887776D01*
X122297760Y-59935473D01*
X122429725Y-59964728D01*
X122654205Y-59979978D01*
X123000235Y-59985664D01*
X123301539Y-59986333D01*
X124354167Y-59986333D01*
X124354167Y-60648684D01*
X122477253Y-60706000D01*
X122230377Y-60982502D01*
X122074879Y-61189270D01*
X122001830Y-61401970D01*
X121983632Y-61701087D01*
X121983632Y-61702169D01*
X122041922Y-62201405D01*
X122218521Y-62581212D01*
X122516520Y-62844493D01*
X122939010Y-62994153D01*
X123401667Y-63034201D01*
X123930834Y-63034333D01*
X123930834Y-63422687D01*
X123919605Y-63667396D01*
X123865610Y-63801292D01*
X123738388Y-63882448D01*
X123676834Y-63906916D01*
X123489220Y-64015436D01*
X123424993Y-64181168D01*
X123422834Y-64238228D01*
X123432247Y-64372877D01*
X123488238Y-64442968D01*
X123632434Y-64469548D01*
X123888500Y-64473666D01*
X124354167Y-64473666D01*
X124354167Y-65320333D01*
X121136834Y-65320333D01*
X121136834Y-64897000D01*
X121131360Y-64646412D01*
X121097265Y-64521455D01*
X121008039Y-64478440D01*
X120879969Y-64473666D01*
X120623105Y-64473666D01*
X120671167Y-66294000D01*
X120904000Y-66320790D01*
X121036488Y-66327825D01*
X121105832Y-66283599D01*
X121132469Y-66149097D01*
X121136833Y-65885304D01*
X121136834Y-65876290D01*
X121136834Y-65405000D01*
X124523500Y-65405000D01*
X124523500Y-64473666D01*
X125116167Y-64473666D01*
X125425651Y-64471164D01*
X125602753Y-64453872D01*
X125684424Y-64407110D01*
X125707617Y-64316201D01*
X125708834Y-64238228D01*
X125668158Y-64048971D01*
X125515513Y-63931821D01*
X125454834Y-63906916D01*
X125200834Y-63811042D01*
X125200834Y-62592954D01*
X125204957Y-62067951D01*
X125216748Y-61792555D01*
X123930834Y-61792555D01*
X123922761Y-62079657D01*
X123901723Y-62294624D01*
X123875931Y-62383680D01*
X123755425Y-62406718D01*
X123557665Y-62373653D01*
X123358247Y-62301256D01*
X123274667Y-62250291D01*
X123205544Y-62116816D01*
X123170075Y-61893832D01*
X123168834Y-61843433D01*
X123237534Y-61535807D01*
X123429635Y-61332929D01*
X123724140Y-61256456D01*
X123738006Y-61256333D01*
X123842887Y-61269037D01*
X123900748Y-61332831D01*
X123925443Y-61486233D01*
X123930823Y-61767767D01*
X123930834Y-61792555D01*
X125216748Y-61792555D01*
X125221180Y-61689055D01*
X125255286Y-61433158D01*
X125313055Y-61277152D01*
X125400270Y-61197929D01*
X125522711Y-61172380D01*
X125556434Y-61171666D01*
X125670281Y-61122476D01*
X125708358Y-60951672D01*
X125708834Y-60917666D01*
X125708834Y-60663666D01*
X124523500Y-60663666D01*
X124523500Y-59901666D01*
X123432709Y-59901666D01*
X122984113Y-59899949D01*
X122676618Y-59892009D01*
X122482000Y-59873659D01*
X122372039Y-59840713D01*
X122318513Y-59788986D01*
X122297902Y-59733352D01*
X122172622Y-59551155D01*
X121948947Y-59456239D01*
X121682196Y-59464857D01*
X121549286Y-59513404D01*
X121349878Y-59589700D01*
X121184621Y-59568430D01*
X121071891Y-59515989D01*
X120772317Y-59440395D01*
X120482175Y-59532615D01*
X120353667Y-59628470D01*
X120241804Y-59697562D01*
X120205500Y-59674379D01*
X120136751Y-59582058D01*
X119985435Y-59489912D01*
X119785082Y-59434302D01*
X119583016Y-59482714D01*
X119583016Y-59482714D01*
G37*
X119583016Y-59482714D02*
X119511242Y-59516419D01*
X119311744Y-59595299D01*
X119150864Y-59580074D01*
X119016398Y-59518717D01*
X118717554Y-59448311D01*
X118438060Y-59531237D01*
X118240458Y-59729227D01*
X118181998Y-59801875D01*
X118093561Y-59850750D01*
X117944287Y-59880498D01*
X117703312Y-59895762D01*
X117339774Y-59901190D01*
X117094801Y-59901666D01*
X116056834Y-59901666D01*
X116056834Y-60320003D01*
X116030903Y-60623346D01*
X115958341Y-60790433D01*
X115846991Y-60808922D01*
X115778523Y-60757889D01*
X115633230Y-60692190D01*
X115412480Y-60663700D01*
X115404900Y-60663666D01*
X115125500Y-60663666D01*
X115125500Y-61838271D01*
X115400667Y-61864802D01*
X115613685Y-61854710D01*
X115766288Y-61746024D01*
X115847701Y-61637333D01*
X116074121Y-61420922D01*
X116384891Y-61272891D01*
X116730857Y-61200801D01*
X117062869Y-61212210D01*
X117331775Y-61314679D01*
X117421414Y-61395277D01*
X117461645Y-61542698D01*
X117342898Y-61683656D01*
X117075527Y-61811437D01*
X116669887Y-61919325D01*
X116589207Y-61934967D01*
X115993647Y-62071299D01*
X115550030Y-62238634D01*
X115241889Y-62450341D01*
X115052755Y-62719788D01*
X114966160Y-63060345D01*
X114956167Y-63260592D01*
X115013882Y-63711828D01*
X115196394Y-64056872D01*
X115517749Y-64317632D01*
X115689199Y-64403634D01*
X115908346Y-64509306D01*
X116016607Y-64612996D01*
X116053077Y-64776402D01*
X116056834Y-64983838D01*
X116056834Y-65401420D01*
X117729000Y-65424376D01*
X119401167Y-65447333D01*
X119426758Y-65891833D01*
X119448834Y-66151523D01*
X119490917Y-66283981D01*
X119575053Y-66331296D01*
X119659592Y-66336333D01*
X119866834Y-66336333D01*
X119866834Y-64473666D01*
X119655167Y-64473666D01*
X119529545Y-64487391D01*
X119466875Y-64557437D01*
X119445506Y-64727106D01*
X119443500Y-64897000D01*
X119443500Y-65320333D01*
X116141500Y-65320333D01*
X116141500Y-64593153D01*
X116713000Y-64489229D01*
X117052609Y-64427516D01*
X117365838Y-64370668D01*
X117559667Y-64335555D01*
X117765160Y-64323762D01*
X117834834Y-64379736D01*
X117909230Y-64441810D01*
X118092177Y-64472851D01*
X118131167Y-64473666D01*
X118427500Y-64473666D01*
X118427500Y-63119000D01*
X118137056Y-63119000D01*
X117929671Y-63141652D01*
X117837495Y-63228841D01*
X117819556Y-63301005D01*
X117701607Y-63550736D01*
X117438753Y-63725603D01*
X117040083Y-63821169D01*
X116718251Y-63838666D01*
X116394474Y-63831941D01*
X116194849Y-63804101D01*
X116074469Y-63743648D01*
X115998444Y-63654372D01*
X115923352Y-63506197D01*
X115963169Y-63389246D01*
X116044525Y-63300642D01*
X116241342Y-63180204D01*
X116527219Y-63090910D01*
X116622231Y-63074349D01*
X117240183Y-62961178D01*
X117707654Y-62808586D01*
X118041184Y-62605044D01*
X118257313Y-62339023D01*
X118372581Y-61998995D01*
X118394194Y-61839207D01*
X118393106Y-61431724D01*
X118289606Y-61125320D01*
X118062667Y-60872579D01*
X117918267Y-60766142D01*
X117732506Y-60658317D01*
X117544112Y-60603033D01*
X117292744Y-60588875D01*
X117030500Y-60598173D01*
X116710461Y-60623308D01*
X116443757Y-60659280D01*
X116289667Y-60697797D01*
X116199243Y-60719000D01*
X116155294Y-60649390D01*
X116141928Y-60454495D01*
X116141500Y-60376391D01*
X116141500Y-59986333D01*
X117222090Y-59986333D01*
X117667493Y-59984909D01*
X117973116Y-59977415D01*
X118168508Y-59959014D01*
X118283219Y-59924871D01*
X118346798Y-59870152D01*
X118386257Y-59795833D01*
X118538082Y-59621827D01*
X118748277Y-59574176D01*
X118960174Y-59654973D01*
X119067649Y-59770641D01*
X119210401Y-59988508D01*
X119407574Y-59775754D01*
X119645746Y-59598541D01*
X119872930Y-59589110D01*
X120084003Y-59747544D01*
X120097909Y-59764753D01*
X120256608Y-59966506D01*
X120436315Y-59764753D01*
X120665405Y-59594491D01*
X120892808Y-59592367D01*
X121108464Y-59758237D01*
X121121707Y-59774666D01*
X121278758Y-59946766D01*
X121366001Y-59970435D01*
X121390834Y-59862312D01*
X121459777Y-59704886D01*
X121629305Y-59615176D01*
X121843467Y-59596319D01*
X122046313Y-59651453D01*
X122181891Y-59783718D01*
X122195230Y-59817196D01*
X122229274Y-59887776D01*
X122297760Y-59935473D01*
X122429725Y-59964728D01*
X122654205Y-59979978D01*
X123000235Y-59985664D01*
X123301539Y-59986333D01*
X124354167Y-59986333D01*
X124354167Y-60648684D01*
X122477253Y-60706000D01*
X122230377Y-60982502D01*
X122074879Y-61189270D01*
X122001830Y-61401970D01*
X121983632Y-61701087D01*
X121983632Y-61702169D01*
X122041922Y-62201405D01*
X122218521Y-62581212D01*
X122516520Y-62844493D01*
X122939010Y-62994153D01*
X123401667Y-63034201D01*
X123930834Y-63034333D01*
X123930834Y-63422687D01*
X123919605Y-63667396D01*
X123865610Y-63801292D01*
X123738388Y-63882448D01*
X123676834Y-63906916D01*
X123489220Y-64015436D01*
X123424993Y-64181168D01*
X123422834Y-64238228D01*
X123432247Y-64372877D01*
X123488238Y-64442968D01*
X123632434Y-64469548D01*
X123888500Y-64473666D01*
X124354167Y-64473666D01*
X124354167Y-65320333D01*
X121136834Y-65320333D01*
X121136834Y-64897000D01*
X121131360Y-64646412D01*
X121097265Y-64521455D01*
X121008039Y-64478440D01*
X120879969Y-64473666D01*
X120623105Y-64473666D01*
X120671167Y-66294000D01*
X120904000Y-66320790D01*
X121036488Y-66327825D01*
X121105832Y-66283599D01*
X121132469Y-66149097D01*
X121136833Y-65885304D01*
X121136834Y-65876290D01*
X121136834Y-65405000D01*
X124523500Y-65405000D01*
X124523500Y-64473666D01*
X125116167Y-64473666D01*
X125425651Y-64471164D01*
X125602753Y-64453872D01*
X125684424Y-64407110D01*
X125707617Y-64316201D01*
X125708834Y-64238228D01*
X125668158Y-64048971D01*
X125515513Y-63931821D01*
X125454834Y-63906916D01*
X125200834Y-63811042D01*
X125200834Y-62592954D01*
X125204957Y-62067951D01*
X125216748Y-61792555D01*
X123930834Y-61792555D01*
X123922761Y-62079657D01*
X123901723Y-62294624D01*
X123875931Y-62383680D01*
X123755425Y-62406718D01*
X123557665Y-62373653D01*
X123358247Y-62301256D01*
X123274667Y-62250291D01*
X123205544Y-62116816D01*
X123170075Y-61893832D01*
X123168834Y-61843433D01*
X123237534Y-61535807D01*
X123429635Y-61332929D01*
X123724140Y-61256456D01*
X123738006Y-61256333D01*
X123842887Y-61269037D01*
X123900748Y-61332831D01*
X123925443Y-61486233D01*
X123930823Y-61767767D01*
X123930834Y-61792555D01*
X125216748Y-61792555D01*
X125221180Y-61689055D01*
X125255286Y-61433158D01*
X125313055Y-61277152D01*
X125400270Y-61197929D01*
X125522711Y-61172380D01*
X125556434Y-61171666D01*
X125670281Y-61122476D01*
X125708358Y-60951672D01*
X125708834Y-60917666D01*
X125708834Y-60663666D01*
X124523500Y-60663666D01*
X124523500Y-59901666D01*
X123432709Y-59901666D01*
X122984113Y-59899949D01*
X122676618Y-59892009D01*
X122482000Y-59873659D01*
X122372039Y-59840713D01*
X122318513Y-59788986D01*
X122297902Y-59733352D01*
X122172622Y-59551155D01*
X121948947Y-59456239D01*
X121682196Y-59464857D01*
X121549286Y-59513404D01*
X121349878Y-59589700D01*
X121184621Y-59568430D01*
X121071891Y-59515989D01*
X120772317Y-59440395D01*
X120482175Y-59532615D01*
X120353667Y-59628470D01*
X120241804Y-59697562D01*
X120205500Y-59674379D01*
X120136751Y-59582058D01*
X119985435Y-59489912D01*
X119785082Y-59434302D01*
X119583016Y-59482714D01*
G36*
X120885125Y-62849115D02*
X120882834Y-63129563D01*
X119951328Y-63103115D01*
X119518693Y-63095852D01*
X119233525Y-63104433D01*
X119074540Y-63130671D01*
X119020454Y-63176379D01*
X119019995Y-63182500D01*
X119069467Y-63232405D01*
X119230592Y-63265203D01*
X119522725Y-63283106D01*
X119946136Y-63288333D01*
X120872105Y-63288333D01*
X120925167Y-63807929D01*
X121208991Y-63514001D01*
X121492816Y-63220073D01*
X121190116Y-62894370D01*
X120887416Y-62568666D01*
X120885125Y-62849115D01*
X120885125Y-62849115D01*
G37*
X120885125Y-62849115D02*
X120882834Y-63129563D01*
X119951328Y-63103115D01*
X119518693Y-63095852D01*
X119233525Y-63104433D01*
X119074540Y-63130671D01*
X119020454Y-63176379D01*
X119019995Y-63182500D01*
X119069467Y-63232405D01*
X119230592Y-63265203D01*
X119522725Y-63283106D01*
X119946136Y-63288333D01*
X120872105Y-63288333D01*
X120925167Y-63807929D01*
X121208991Y-63514001D01*
X121492816Y-63220073D01*
X121190116Y-62894370D01*
X120887416Y-62568666D01*
X120885125Y-62849115D01*
G36*
X119438459Y-61308187D02*
X119339295Y-61406128D01*
X119065757Y-61679666D01*
X119339295Y-61953205D01*
X119612834Y-62226743D01*
X119612834Y-61764333D01*
X120544167Y-61764333D01*
X120961044Y-61760705D01*
X121235534Y-61747382D01*
X121394475Y-61720705D01*
X121464707Y-61677012D01*
X121475500Y-61637333D01*
X121448898Y-61580486D01*
X121351198Y-61543056D01*
X121155561Y-61521382D01*
X120835150Y-61511805D01*
X120544167Y-61510333D01*
X120137381Y-61508864D01*
X119870482Y-61500478D01*
X119714027Y-61479204D01*
X119638572Y-61439069D01*
X119614674Y-61374104D01*
X119612834Y-61321461D01*
X119603815Y-61215708D01*
X119556045Y-61208078D01*
X119438459Y-61308187D01*
X119438459Y-61308187D01*
G37*
X119438459Y-61308187D02*
X119339295Y-61406128D01*
X119065757Y-61679666D01*
X119339295Y-61953205D01*
X119612834Y-62226743D01*
X119612834Y-61764333D01*
X120544167Y-61764333D01*
X120961044Y-61760705D01*
X121235534Y-61747382D01*
X121394475Y-61720705D01*
X121464707Y-61677012D01*
X121475500Y-61637333D01*
X121448898Y-61580486D01*
X121351198Y-61543056D01*
X121155561Y-61521382D01*
X120835150Y-61511805D01*
X120544167Y-61510333D01*
X120137381Y-61508864D01*
X119870482Y-61500478D01*
X119714027Y-61479204D01*
X119638572Y-61439069D01*
X119614674Y-61374104D01*
X119612834Y-61321461D01*
X119603815Y-61215708D01*
X119556045Y-61208078D01*
X119438459Y-61308187D01*
%LPC*%
D13*
X121498360Y-57561480D03*
D14*
X118958360Y-57561480D03*
D13*
X121762520Y-102788720D03*
D14*
X119222520Y-102788720D03*
D15*
X119380000Y-72390000D03*
M02*
