G04 #@! TF.FileFunction,Legend,Bot*
%FSLAX46Y46*%
G04 Gerber Fmt 4.6, Leading zero omitted, Abs format (unit mm)*
G04 Created by KiCad (PCBNEW 0.201509151501+6198~30~ubuntu14.04.1-product) date Wed 04 Nov 2015 10:21:58 PM EST*
%MOMM*%
G01*
G04 APERTURE LIST*
%ADD10C,0.100000*%
%ADD11C,0.300000*%
G04 APERTURE END LIST*
D10*
D11*
X130559713Y-100246571D02*
X131059713Y-99532286D01*
X131416856Y-100246571D02*
X131416856Y-98746571D01*
X130845428Y-98746571D01*
X130702570Y-98818000D01*
X130631142Y-98889429D01*
X130559713Y-99032286D01*
X130559713Y-99246571D01*
X130631142Y-99389429D01*
X130702570Y-99460857D01*
X130845428Y-99532286D01*
X131416856Y-99532286D01*
X129345428Y-100175143D02*
X129488285Y-100246571D01*
X129773999Y-100246571D01*
X129916856Y-100175143D01*
X129988285Y-100032286D01*
X129988285Y-99460857D01*
X129916856Y-99318000D01*
X129773999Y-99246571D01*
X129488285Y-99246571D01*
X129345428Y-99318000D01*
X129273999Y-99460857D01*
X129273999Y-99603714D01*
X129988285Y-99746571D01*
X128773999Y-99246571D02*
X128416856Y-100246571D01*
X128059714Y-99246571D01*
X125559714Y-100246571D02*
X126416857Y-100246571D01*
X125988285Y-100246571D02*
X125988285Y-98746571D01*
X126131142Y-98960857D01*
X126274000Y-99103714D01*
X126416857Y-99175143D01*
X131519143Y-97706571D02*
X131519143Y-96206571D01*
X130947715Y-96206571D01*
X130804857Y-96278000D01*
X130733429Y-96349429D01*
X130662000Y-96492286D01*
X130662000Y-96706571D01*
X130733429Y-96849429D01*
X130804857Y-96920857D01*
X130947715Y-96992286D01*
X131519143Y-96992286D01*
X129804857Y-97706571D02*
X129947715Y-97635143D01*
X130019143Y-97563714D01*
X130090572Y-97420857D01*
X130090572Y-96992286D01*
X130019143Y-96849429D01*
X129947715Y-96778000D01*
X129804857Y-96706571D01*
X129590572Y-96706571D01*
X129447715Y-96778000D01*
X129376286Y-96849429D01*
X129304857Y-96992286D01*
X129304857Y-97420857D01*
X129376286Y-97563714D01*
X129447715Y-97635143D01*
X129590572Y-97706571D01*
X129804857Y-97706571D01*
X128804857Y-96706571D02*
X128519143Y-97706571D01*
X128233429Y-96992286D01*
X127947714Y-97706571D01*
X127662000Y-96706571D01*
X126519143Y-97635143D02*
X126662000Y-97706571D01*
X126947714Y-97706571D01*
X127090571Y-97635143D01*
X127162000Y-97492286D01*
X127162000Y-96920857D01*
X127090571Y-96778000D01*
X126947714Y-96706571D01*
X126662000Y-96706571D01*
X126519143Y-96778000D01*
X126447714Y-96920857D01*
X126447714Y-97063714D01*
X127162000Y-97206571D01*
X125804857Y-97706571D02*
X125804857Y-96706571D01*
X125804857Y-96992286D02*
X125733429Y-96849429D01*
X125662000Y-96778000D01*
X125519143Y-96706571D01*
X125376286Y-96706571D01*
X123804858Y-97635143D02*
X123590572Y-97706571D01*
X123233429Y-97706571D01*
X123090572Y-97635143D01*
X123019143Y-97563714D01*
X122947715Y-97420857D01*
X122947715Y-97278000D01*
X123019143Y-97135143D01*
X123090572Y-97063714D01*
X123233429Y-96992286D01*
X123519143Y-96920857D01*
X123662001Y-96849429D01*
X123733429Y-96778000D01*
X123804858Y-96635143D01*
X123804858Y-96492286D01*
X123733429Y-96349429D01*
X123662001Y-96278000D01*
X123519143Y-96206571D01*
X123162001Y-96206571D01*
X122947715Y-96278000D01*
X122447715Y-96706571D02*
X122162001Y-97706571D01*
X121876287Y-96992286D01*
X121590572Y-97706571D01*
X121304858Y-96706571D01*
X120090572Y-97706571D02*
X120090572Y-96920857D01*
X120162001Y-96778000D01*
X120304858Y-96706571D01*
X120590572Y-96706571D01*
X120733429Y-96778000D01*
X120090572Y-97635143D02*
X120233429Y-97706571D01*
X120590572Y-97706571D01*
X120733429Y-97635143D01*
X120804858Y-97492286D01*
X120804858Y-97349429D01*
X120733429Y-97206571D01*
X120590572Y-97135143D01*
X120233429Y-97135143D01*
X120090572Y-97063714D01*
X119376286Y-96706571D02*
X119376286Y-98206571D01*
X119376286Y-96778000D02*
X119233429Y-96706571D01*
X118947715Y-96706571D01*
X118804858Y-96778000D01*
X118733429Y-96849429D01*
X118662000Y-96992286D01*
X118662000Y-97420857D01*
X118733429Y-97563714D01*
X118804858Y-97635143D01*
X118947715Y-97706571D01*
X119233429Y-97706571D01*
X119376286Y-97635143D01*
X116376286Y-96920857D02*
X116162000Y-96992286D01*
X116090572Y-97063714D01*
X116019143Y-97206571D01*
X116019143Y-97420857D01*
X116090572Y-97563714D01*
X116162000Y-97635143D01*
X116304858Y-97706571D01*
X116876286Y-97706571D01*
X116876286Y-96206571D01*
X116376286Y-96206571D01*
X116233429Y-96278000D01*
X116162000Y-96349429D01*
X116090572Y-96492286D01*
X116090572Y-96635143D01*
X116162000Y-96778000D01*
X116233429Y-96849429D01*
X116376286Y-96920857D01*
X116876286Y-96920857D01*
X115162000Y-97706571D02*
X115304858Y-97635143D01*
X115376286Y-97563714D01*
X115447715Y-97420857D01*
X115447715Y-96992286D01*
X115376286Y-96849429D01*
X115304858Y-96778000D01*
X115162000Y-96706571D01*
X114947715Y-96706571D01*
X114804858Y-96778000D01*
X114733429Y-96849429D01*
X114662000Y-96992286D01*
X114662000Y-97420857D01*
X114733429Y-97563714D01*
X114804858Y-97635143D01*
X114947715Y-97706571D01*
X115162000Y-97706571D01*
X113804857Y-97706571D02*
X113947715Y-97635143D01*
X114019143Y-97563714D01*
X114090572Y-97420857D01*
X114090572Y-96992286D01*
X114019143Y-96849429D01*
X113947715Y-96778000D01*
X113804857Y-96706571D01*
X113590572Y-96706571D01*
X113447715Y-96778000D01*
X113376286Y-96849429D01*
X113304857Y-96992286D01*
X113304857Y-97420857D01*
X113376286Y-97563714D01*
X113447715Y-97635143D01*
X113590572Y-97706571D01*
X113804857Y-97706571D01*
X112733429Y-97635143D02*
X112590572Y-97706571D01*
X112304857Y-97706571D01*
X112162000Y-97635143D01*
X112090572Y-97492286D01*
X112090572Y-97420857D01*
X112162000Y-97278000D01*
X112304857Y-97206571D01*
X112519143Y-97206571D01*
X112662000Y-97135143D01*
X112733429Y-96992286D01*
X112733429Y-96920857D01*
X112662000Y-96778000D01*
X112519143Y-96706571D01*
X112304857Y-96706571D01*
X112162000Y-96778000D01*
X111662000Y-96706571D02*
X111090571Y-96706571D01*
X111447714Y-96206571D02*
X111447714Y-97492286D01*
X111376286Y-97635143D01*
X111233428Y-97706571D01*
X111090571Y-97706571D01*
M02*
