G04 #@! TF.FileFunction,Legend,Top*
%FSLAX46Y46*%
G04 Gerber Fmt 4.6, Leading zero omitted, Abs format (unit mm)*
G04 Created by KiCad (PCBNEW 0.201509151501+6198~30~ubuntu14.04.1-product) date Sun 08 Nov 2015 02:29:05 PM EST*
%MOMM*%
G01*
G04 APERTURE LIST*
%ADD10C,0.100000*%
%ADD11C,0.300000*%
%ADD12C,0.150000*%
%ADD13R,2.400000X2.000000*%
%ADD14R,1.900000X1.650000*%
%ADD15R,1.650000X1.900000*%
%ADD16R,4.000000X2.200000*%
%ADD17R,2.432000X2.432000*%
%ADD18O,2.432000X2.432000*%
%ADD19R,1.900000X1.700000*%
%ADD20R,1.700000X1.900000*%
%ADD21R,3.399740X3.399740*%
%ADD22C,0.501600*%
%ADD23O,0.951600X0.381600*%
%ADD24R,1.751600X2.501600*%
%ADD25R,0.381600X0.801600*%
%ADD26R,1.598880X1.598880*%
G04 APERTURE END LIST*
D10*
D11*
X122666286Y-79664643D02*
X122880572Y-79736071D01*
X123237715Y-79736071D01*
X123380572Y-79664643D01*
X123452001Y-79593214D01*
X123523429Y-79450357D01*
X123523429Y-79307500D01*
X123452001Y-79164643D01*
X123380572Y-79093214D01*
X123237715Y-79021786D01*
X122952001Y-78950357D01*
X122809143Y-78878929D01*
X122737715Y-78807500D01*
X122666286Y-78664643D01*
X122666286Y-78521786D01*
X122737715Y-78378929D01*
X122809143Y-78307500D01*
X122952001Y-78236071D01*
X123309143Y-78236071D01*
X123523429Y-78307500D01*
X124023429Y-78236071D02*
X124380572Y-79736071D01*
X124666286Y-78664643D01*
X124952000Y-79736071D01*
X125309143Y-78236071D01*
X106045143Y-63004000D02*
X105902286Y-62932571D01*
X105688000Y-62932571D01*
X105473715Y-63004000D01*
X105330857Y-63146857D01*
X105259429Y-63289714D01*
X105188000Y-63575429D01*
X105188000Y-63789714D01*
X105259429Y-64075429D01*
X105330857Y-64218286D01*
X105473715Y-64361143D01*
X105688000Y-64432571D01*
X105830857Y-64432571D01*
X106045143Y-64361143D01*
X106116572Y-64289714D01*
X106116572Y-63789714D01*
X105830857Y-63789714D01*
X106759429Y-64432571D02*
X106759429Y-62932571D01*
X107616572Y-64432571D01*
X107616572Y-62932571D01*
X108330858Y-64432571D02*
X108330858Y-62932571D01*
X108688001Y-62932571D01*
X108902286Y-63004000D01*
X109045144Y-63146857D01*
X109116572Y-63289714D01*
X109188001Y-63575429D01*
X109188001Y-63789714D01*
X109116572Y-64075429D01*
X109045144Y-64218286D01*
X108902286Y-64361143D01*
X108688001Y-64432571D01*
X108330858Y-64432571D01*
X127135143Y-61916571D02*
X127635143Y-63416571D01*
X128135143Y-61916571D01*
X128635143Y-63416571D02*
X128635143Y-61916571D01*
X129349429Y-63416571D02*
X129349429Y-61916571D01*
X130206572Y-63416571D01*
X130206572Y-61916571D01*
X127786143Y-96079571D02*
X128286143Y-97579571D01*
X128786143Y-96079571D01*
X129571857Y-96079571D02*
X129857571Y-96079571D01*
X130000429Y-96151000D01*
X130143286Y-96293857D01*
X130214714Y-96579571D01*
X130214714Y-97079571D01*
X130143286Y-97365286D01*
X130000429Y-97508143D01*
X129857571Y-97579571D01*
X129571857Y-97579571D01*
X129429000Y-97508143D01*
X129286143Y-97365286D01*
X129214714Y-97079571D01*
X129214714Y-96579571D01*
X129286143Y-96293857D01*
X129429000Y-96151000D01*
X129571857Y-96079571D01*
X130857572Y-96079571D02*
X130857572Y-97293857D01*
X130929000Y-97436714D01*
X131000429Y-97508143D01*
X131143286Y-97579571D01*
X131429000Y-97579571D01*
X131571858Y-97508143D01*
X131643286Y-97436714D01*
X131714715Y-97293857D01*
X131714715Y-96079571D01*
X132214715Y-96079571D02*
X133071858Y-96079571D01*
X132643287Y-97579571D02*
X132643287Y-96079571D01*
D12*
X118893080Y-62630160D02*
X120893080Y-62630160D01*
X120893080Y-60580160D02*
X118893080Y-60580160D01*
X118937280Y-65607040D02*
X120937280Y-65607040D01*
X120937280Y-63557040D02*
X118937280Y-63557040D01*
X119997600Y-69536680D02*
X120997600Y-69536680D01*
X120997600Y-67836680D02*
X119997600Y-67836680D01*
X113013120Y-66434400D02*
X113013120Y-67434400D01*
X114713120Y-67434400D02*
X114713120Y-66434400D01*
X109492680Y-66165160D02*
X109492680Y-67165160D01*
X111192680Y-67165160D02*
X111192680Y-66165160D01*
X119396000Y-89163000D02*
X121396000Y-89163000D01*
X121396000Y-87113000D02*
X119396000Y-87113000D01*
X119142000Y-91957000D02*
X121142000Y-91957000D01*
X121142000Y-89907000D02*
X119142000Y-89907000D01*
X119110000Y-94497000D02*
X121110000Y-94497000D01*
X121110000Y-92447000D02*
X119110000Y-92447000D01*
X119110000Y-97291000D02*
X121110000Y-97291000D01*
X121110000Y-95241000D02*
X119110000Y-95241000D01*
X128270000Y-84319580D02*
X127568960Y-83369620D01*
X127568960Y-83369620D02*
X128971040Y-83369620D01*
X128971040Y-83369620D02*
X128270000Y-84319580D01*
X127568960Y-84319580D02*
X128971040Y-84319580D01*
X129669540Y-86070440D02*
X129519680Y-86070440D01*
X126870460Y-86070440D02*
X127020320Y-86070440D01*
X129669540Y-85619140D02*
X129468880Y-85619140D01*
X129618740Y-81569560D02*
X129519680Y-81569560D01*
X126921260Y-85619140D02*
X127071120Y-85619140D01*
X126870460Y-81569560D02*
X127020320Y-81569560D01*
X130020060Y-85619140D02*
X129669540Y-85619140D01*
X126519940Y-85619140D02*
X126870460Y-85619140D01*
X130020060Y-81569560D02*
X129669540Y-81569560D01*
X130020060Y-86070440D02*
X129669540Y-86070440D01*
X126519940Y-86070440D02*
X126870460Y-86070440D01*
X126519940Y-81569560D02*
X126870460Y-81569560D01*
X130020060Y-86070440D02*
X130020060Y-81569560D01*
X126519940Y-86070440D02*
X126519940Y-81569560D01*
X133604000Y-69668000D02*
X133604000Y-73732000D01*
X133604000Y-73732000D02*
X130556000Y-77288000D01*
X130556000Y-77288000D02*
X126492000Y-77288000D01*
X126492000Y-77288000D02*
X123444000Y-73732000D01*
X123444000Y-73732000D02*
X123444000Y-69668000D01*
X123444000Y-69668000D02*
X126492000Y-66112000D01*
X126492000Y-66112000D02*
X130556000Y-66112000D01*
X130556000Y-66112000D02*
X133604000Y-69668000D01*
X120228360Y-58831480D02*
X117688360Y-58831480D01*
X123048360Y-59111480D02*
X121498360Y-59111480D01*
X120228360Y-58831480D02*
X120228360Y-56291480D01*
X121498360Y-56011480D02*
X123048360Y-56011480D01*
X123048360Y-56011480D02*
X123048360Y-59111480D01*
X120228360Y-56291480D02*
X117688360Y-56291480D01*
X117688360Y-56291480D02*
X117688360Y-58831480D01*
X120492520Y-104058720D02*
X117952520Y-104058720D01*
X123312520Y-104338720D02*
X121762520Y-104338720D01*
X120492520Y-104058720D02*
X120492520Y-101518720D01*
X121762520Y-101238720D02*
X123312520Y-101238720D01*
X123312520Y-101238720D02*
X123312520Y-104338720D01*
X120492520Y-101518720D02*
X117952520Y-101518720D01*
X117952520Y-101518720D02*
X117952520Y-104058720D01*
X113073880Y-70016400D02*
X114273880Y-70016400D01*
X114273880Y-71766400D02*
X113073880Y-71766400D01*
X114787120Y-76407040D02*
X115987120Y-76407040D01*
X115987120Y-78157040D02*
X114787120Y-78157040D01*
X112566480Y-82906160D02*
X112566480Y-81706160D01*
X114316480Y-81706160D02*
X114316480Y-82906160D01*
X117980000Y-70790000D02*
X117980000Y-73890000D01*
X117980000Y-73890000D02*
X120880000Y-73890000D01*
X120880000Y-73890000D02*
X120880000Y-70790000D01*
X120880000Y-70790000D02*
X117980000Y-70790000D01*
X117821421Y-70390000D02*
G75*
G03X117821421Y-70390000I-141421J0D01*
G01*
X122893020Y-100064000D02*
X125593020Y-100064000D01*
X122893020Y-98564000D02*
X125593020Y-98564000D01*
X124393020Y-99464000D02*
X124393020Y-99214000D01*
X124393020Y-99214000D02*
X124243020Y-99364000D01*
X124143020Y-98964000D02*
X124143020Y-99664000D01*
X124493020Y-99314000D02*
X124843020Y-99314000D01*
X124143020Y-99314000D02*
X124493020Y-98964000D01*
X124493020Y-98964000D02*
X124493020Y-99664000D01*
X124493020Y-99664000D02*
X124143020Y-99314000D01*
X119208000Y-98439000D02*
X120408000Y-98439000D01*
X120408000Y-100189000D02*
X119208000Y-100189000D01*
X124293334Y-63349143D02*
X124245715Y-63396762D01*
X124102858Y-63444381D01*
X124007620Y-63444381D01*
X123864762Y-63396762D01*
X123769524Y-63301524D01*
X123721905Y-63206286D01*
X123674286Y-63015810D01*
X123674286Y-62872952D01*
X123721905Y-62682476D01*
X123769524Y-62587238D01*
X123864762Y-62492000D01*
X124007620Y-62444381D01*
X124102858Y-62444381D01*
X124245715Y-62492000D01*
X124293334Y-62539619D01*
X125245715Y-63444381D02*
X124674286Y-63444381D01*
X124960000Y-63444381D02*
X124960000Y-62444381D01*
X124864762Y-62587238D01*
X124769524Y-62682476D01*
X124674286Y-62730095D01*
X124293334Y-66397143D02*
X124245715Y-66444762D01*
X124102858Y-66492381D01*
X124007620Y-66492381D01*
X123864762Y-66444762D01*
X123769524Y-66349524D01*
X123721905Y-66254286D01*
X123674286Y-66063810D01*
X123674286Y-65920952D01*
X123721905Y-65730476D01*
X123769524Y-65635238D01*
X123864762Y-65540000D01*
X124007620Y-65492381D01*
X124102858Y-65492381D01*
X124245715Y-65540000D01*
X124293334Y-65587619D01*
X124674286Y-65587619D02*
X124721905Y-65540000D01*
X124817143Y-65492381D01*
X125055239Y-65492381D01*
X125150477Y-65540000D01*
X125198096Y-65587619D01*
X125245715Y-65682857D01*
X125245715Y-65778095D01*
X125198096Y-65920952D01*
X124626667Y-66492381D01*
X125245715Y-66492381D01*
X117181334Y-68429143D02*
X117133715Y-68476762D01*
X116990858Y-68524381D01*
X116895620Y-68524381D01*
X116752762Y-68476762D01*
X116657524Y-68381524D01*
X116609905Y-68286286D01*
X116562286Y-68095810D01*
X116562286Y-67952952D01*
X116609905Y-67762476D01*
X116657524Y-67667238D01*
X116752762Y-67572000D01*
X116895620Y-67524381D01*
X116990858Y-67524381D01*
X117133715Y-67572000D01*
X117181334Y-67619619D01*
X117514667Y-67524381D02*
X118133715Y-67524381D01*
X117800381Y-67905333D01*
X117943239Y-67905333D01*
X118038477Y-67952952D01*
X118086096Y-68000571D01*
X118133715Y-68095810D01*
X118133715Y-68333905D01*
X118086096Y-68429143D01*
X118038477Y-68476762D01*
X117943239Y-68524381D01*
X117657524Y-68524381D01*
X117562286Y-68476762D01*
X117514667Y-68429143D01*
X114194863Y-63448866D02*
X114242482Y-63496485D01*
X114290101Y-63639342D01*
X114290101Y-63734580D01*
X114242482Y-63877438D01*
X114147244Y-63972676D01*
X114052006Y-64020295D01*
X113861530Y-64067914D01*
X113718672Y-64067914D01*
X113528196Y-64020295D01*
X113432958Y-63972676D01*
X113337720Y-63877438D01*
X113290101Y-63734580D01*
X113290101Y-63639342D01*
X113337720Y-63496485D01*
X113385339Y-63448866D01*
X113623434Y-62591723D02*
X114290101Y-62591723D01*
X113242482Y-62829819D02*
X113956768Y-63067914D01*
X113956768Y-62448866D01*
X111355143Y-63666666D02*
X111402762Y-63714285D01*
X111450381Y-63857142D01*
X111450381Y-63952380D01*
X111402762Y-64095238D01*
X111307524Y-64190476D01*
X111212286Y-64238095D01*
X111021810Y-64285714D01*
X110878952Y-64285714D01*
X110688476Y-64238095D01*
X110593238Y-64190476D01*
X110498000Y-64095238D01*
X110450381Y-63952380D01*
X110450381Y-63857142D01*
X110498000Y-63714285D01*
X110545619Y-63666666D01*
X110450381Y-62761904D02*
X110450381Y-63238095D01*
X110926571Y-63285714D01*
X110878952Y-63238095D01*
X110831333Y-63142857D01*
X110831333Y-62904761D01*
X110878952Y-62809523D01*
X110926571Y-62761904D01*
X111021810Y-62714285D01*
X111259905Y-62714285D01*
X111355143Y-62761904D01*
X111402762Y-62809523D01*
X111450381Y-62904761D01*
X111450381Y-63142857D01*
X111402762Y-63238095D01*
X111355143Y-63285714D01*
X115928094Y-87976983D02*
X115880475Y-88024602D01*
X115737618Y-88072221D01*
X115642380Y-88072221D01*
X115499522Y-88024602D01*
X115404284Y-87929364D01*
X115356665Y-87834126D01*
X115309046Y-87643650D01*
X115309046Y-87500792D01*
X115356665Y-87310316D01*
X115404284Y-87215078D01*
X115499522Y-87119840D01*
X115642380Y-87072221D01*
X115737618Y-87072221D01*
X115880475Y-87119840D01*
X115928094Y-87167459D01*
X116785237Y-87072221D02*
X116594760Y-87072221D01*
X116499522Y-87119840D01*
X116451903Y-87167459D01*
X116356665Y-87310316D01*
X116309046Y-87500792D01*
X116309046Y-87881745D01*
X116356665Y-87976983D01*
X116404284Y-88024602D01*
X116499522Y-88072221D01*
X116689999Y-88072221D01*
X116785237Y-88024602D01*
X116832856Y-87976983D01*
X116880475Y-87881745D01*
X116880475Y-87643650D01*
X116832856Y-87548411D01*
X116785237Y-87500792D01*
X116689999Y-87453173D01*
X116499522Y-87453173D01*
X116404284Y-87500792D01*
X116356665Y-87548411D01*
X116309046Y-87643650D01*
X115760454Y-90781143D02*
X115712835Y-90828762D01*
X115569978Y-90876381D01*
X115474740Y-90876381D01*
X115331882Y-90828762D01*
X115236644Y-90733524D01*
X115189025Y-90638286D01*
X115141406Y-90447810D01*
X115141406Y-90304952D01*
X115189025Y-90114476D01*
X115236644Y-90019238D01*
X115331882Y-89924000D01*
X115474740Y-89876381D01*
X115569978Y-89876381D01*
X115712835Y-89924000D01*
X115760454Y-89971619D01*
X116093787Y-89876381D02*
X116760454Y-89876381D01*
X116331882Y-90876381D01*
X115657334Y-93321143D02*
X115609715Y-93368762D01*
X115466858Y-93416381D01*
X115371620Y-93416381D01*
X115228762Y-93368762D01*
X115133524Y-93273524D01*
X115085905Y-93178286D01*
X115038286Y-92987810D01*
X115038286Y-92844952D01*
X115085905Y-92654476D01*
X115133524Y-92559238D01*
X115228762Y-92464000D01*
X115371620Y-92416381D01*
X115466858Y-92416381D01*
X115609715Y-92464000D01*
X115657334Y-92511619D01*
X116228762Y-92844952D02*
X116133524Y-92797333D01*
X116085905Y-92749714D01*
X116038286Y-92654476D01*
X116038286Y-92606857D01*
X116085905Y-92511619D01*
X116133524Y-92464000D01*
X116228762Y-92416381D01*
X116419239Y-92416381D01*
X116514477Y-92464000D01*
X116562096Y-92511619D01*
X116609715Y-92606857D01*
X116609715Y-92654476D01*
X116562096Y-92749714D01*
X116514477Y-92797333D01*
X116419239Y-92844952D01*
X116228762Y-92844952D01*
X116133524Y-92892571D01*
X116085905Y-92940190D01*
X116038286Y-93035429D01*
X116038286Y-93225905D01*
X116085905Y-93321143D01*
X116133524Y-93368762D01*
X116228762Y-93416381D01*
X116419239Y-93416381D01*
X116514477Y-93368762D01*
X116562096Y-93321143D01*
X116609715Y-93225905D01*
X116609715Y-93035429D01*
X116562096Y-92940190D01*
X116514477Y-92892571D01*
X116419239Y-92844952D01*
X115809734Y-95759543D02*
X115762115Y-95807162D01*
X115619258Y-95854781D01*
X115524020Y-95854781D01*
X115381162Y-95807162D01*
X115285924Y-95711924D01*
X115238305Y-95616686D01*
X115190686Y-95426210D01*
X115190686Y-95283352D01*
X115238305Y-95092876D01*
X115285924Y-94997638D01*
X115381162Y-94902400D01*
X115524020Y-94854781D01*
X115619258Y-94854781D01*
X115762115Y-94902400D01*
X115809734Y-94950019D01*
X116285924Y-95854781D02*
X116476400Y-95854781D01*
X116571639Y-95807162D01*
X116619258Y-95759543D01*
X116714496Y-95616686D01*
X116762115Y-95426210D01*
X116762115Y-95045257D01*
X116714496Y-94950019D01*
X116666877Y-94902400D01*
X116571639Y-94854781D01*
X116381162Y-94854781D01*
X116285924Y-94902400D01*
X116238305Y-94950019D01*
X116190686Y-95045257D01*
X116190686Y-95283352D01*
X116238305Y-95378590D01*
X116285924Y-95426210D01*
X116381162Y-95473829D01*
X116571639Y-95473829D01*
X116666877Y-95426210D01*
X116714496Y-95378590D01*
X116762115Y-95283352D01*
X131341905Y-82240381D02*
X131341905Y-81240381D01*
X131580000Y-81240381D01*
X131722858Y-81288000D01*
X131818096Y-81383238D01*
X131865715Y-81478476D01*
X131913334Y-81668952D01*
X131913334Y-81811810D01*
X131865715Y-82002286D01*
X131818096Y-82097524D01*
X131722858Y-82192762D01*
X131580000Y-82240381D01*
X131341905Y-82240381D01*
X132865715Y-82240381D02*
X132294286Y-82240381D01*
X132580000Y-82240381D02*
X132580000Y-81240381D01*
X132484762Y-81383238D01*
X132389524Y-81478476D01*
X132294286Y-81526095D01*
X130422381Y-87381905D02*
X129422381Y-87381905D01*
X130422381Y-86810476D02*
X129850952Y-87239048D01*
X129422381Y-86810476D02*
X129993810Y-87381905D01*
X130135927Y-81058355D02*
X130135927Y-80582164D01*
X130421641Y-81153593D02*
X129421641Y-80820260D01*
X130421641Y-80486926D01*
X132929334Y-67508381D02*
X132453143Y-67508381D01*
X132453143Y-66508381D01*
X133786477Y-67508381D02*
X133215048Y-67508381D01*
X133500762Y-67508381D02*
X133500762Y-66508381D01*
X133405524Y-66651238D01*
X133310286Y-66746476D01*
X133215048Y-66794095D01*
X115085905Y-57602381D02*
X115085905Y-56602381D01*
X115466858Y-56602381D01*
X115562096Y-56650000D01*
X115609715Y-56697619D01*
X115657334Y-56792857D01*
X115657334Y-56935714D01*
X115609715Y-57030952D01*
X115562096Y-57078571D01*
X115466858Y-57126190D01*
X115085905Y-57126190D01*
X116609715Y-57602381D02*
X116038286Y-57602381D01*
X116324000Y-57602381D02*
X116324000Y-56602381D01*
X116228762Y-56745238D01*
X116133524Y-56840476D01*
X116038286Y-56888095D01*
X124118145Y-103444301D02*
X124118145Y-102444301D01*
X124499098Y-102444301D01*
X124594336Y-102491920D01*
X124641955Y-102539539D01*
X124689574Y-102634777D01*
X124689574Y-102777634D01*
X124641955Y-102872872D01*
X124594336Y-102920491D01*
X124499098Y-102968110D01*
X124118145Y-102968110D01*
X125070526Y-102539539D02*
X125118145Y-102491920D01*
X125213383Y-102444301D01*
X125451479Y-102444301D01*
X125546717Y-102491920D01*
X125594336Y-102539539D01*
X125641955Y-102634777D01*
X125641955Y-102730015D01*
X125594336Y-102872872D01*
X125022907Y-103444301D01*
X125641955Y-103444301D01*
X113507214Y-73443781D02*
X113173880Y-72967590D01*
X112935785Y-73443781D02*
X112935785Y-72443781D01*
X113316738Y-72443781D01*
X113411976Y-72491400D01*
X113459595Y-72539019D01*
X113507214Y-72634257D01*
X113507214Y-72777114D01*
X113459595Y-72872352D01*
X113411976Y-72919971D01*
X113316738Y-72967590D01*
X112935785Y-72967590D01*
X114459595Y-73443781D02*
X113888166Y-73443781D01*
X114173880Y-73443781D02*
X114173880Y-72443781D01*
X114078642Y-72586638D01*
X113983404Y-72681876D01*
X113888166Y-72729495D01*
X116759694Y-79918821D02*
X116426360Y-79442630D01*
X116188265Y-79918821D02*
X116188265Y-78918821D01*
X116569218Y-78918821D01*
X116664456Y-78966440D01*
X116712075Y-79014059D01*
X116759694Y-79109297D01*
X116759694Y-79252154D01*
X116712075Y-79347392D01*
X116664456Y-79395011D01*
X116569218Y-79442630D01*
X116188265Y-79442630D01*
X117140646Y-79014059D02*
X117188265Y-78966440D01*
X117283503Y-78918821D01*
X117521599Y-78918821D01*
X117616837Y-78966440D01*
X117664456Y-79014059D01*
X117712075Y-79109297D01*
X117712075Y-79204535D01*
X117664456Y-79347392D01*
X117093027Y-79918821D01*
X117712075Y-79918821D01*
X115423654Y-83363061D02*
X115090320Y-82886870D01*
X114852225Y-83363061D02*
X114852225Y-82363061D01*
X115233178Y-82363061D01*
X115328416Y-82410680D01*
X115376035Y-82458299D01*
X115423654Y-82553537D01*
X115423654Y-82696394D01*
X115376035Y-82791632D01*
X115328416Y-82839251D01*
X115233178Y-82886870D01*
X114852225Y-82886870D01*
X115756987Y-82363061D02*
X116376035Y-82363061D01*
X116042701Y-82744013D01*
X116185559Y-82744013D01*
X116280797Y-82791632D01*
X116328416Y-82839251D01*
X116376035Y-82934490D01*
X116376035Y-83172585D01*
X116328416Y-83267823D01*
X116280797Y-83315442D01*
X116185559Y-83363061D01*
X115899844Y-83363061D01*
X115804606Y-83315442D01*
X115756987Y-83267823D01*
X131072095Y-88352381D02*
X131643524Y-88352381D01*
X131357809Y-89352381D02*
X131357809Y-88352381D01*
X131976857Y-89352381D02*
X131976857Y-88352381D01*
X132357810Y-88352381D01*
X132453048Y-88400000D01*
X132500667Y-88447619D01*
X132548286Y-88542857D01*
X132548286Y-88685714D01*
X132500667Y-88780952D01*
X132453048Y-88828571D01*
X132357810Y-88876190D01*
X131976857Y-88876190D01*
X132929238Y-88447619D02*
X132976857Y-88400000D01*
X133072095Y-88352381D01*
X133310191Y-88352381D01*
X133405429Y-88400000D01*
X133453048Y-88447619D01*
X133500667Y-88542857D01*
X133500667Y-88638095D01*
X133453048Y-88780952D01*
X132881619Y-89352381D01*
X133500667Y-89352381D01*
X120142095Y-74128381D02*
X120142095Y-74937905D01*
X120189714Y-75033143D01*
X120237333Y-75080762D01*
X120332571Y-75128381D01*
X120523048Y-75128381D01*
X120618286Y-75080762D01*
X120665905Y-75033143D01*
X120713524Y-74937905D01*
X120713524Y-74128381D01*
X121713524Y-75128381D02*
X121142095Y-75128381D01*
X121427809Y-75128381D02*
X121427809Y-74128381D01*
X121332571Y-74271238D01*
X121237333Y-74366476D01*
X121142095Y-74414095D01*
X126960405Y-99766381D02*
X126960405Y-98766381D01*
X127198500Y-98766381D01*
X127341358Y-98814000D01*
X127436596Y-98909238D01*
X127484215Y-99004476D01*
X127531834Y-99194952D01*
X127531834Y-99337810D01*
X127484215Y-99528286D01*
X127436596Y-99623524D01*
X127341358Y-99718762D01*
X127198500Y-99766381D01*
X126960405Y-99766381D01*
X127912786Y-98861619D02*
X127960405Y-98814000D01*
X128055643Y-98766381D01*
X128293739Y-98766381D01*
X128388977Y-98814000D01*
X128436596Y-98861619D01*
X128484215Y-98956857D01*
X128484215Y-99052095D01*
X128436596Y-99194952D01*
X127865167Y-99766381D01*
X128484215Y-99766381D01*
X116355834Y-98496381D02*
X116022500Y-98020190D01*
X115784405Y-98496381D02*
X115784405Y-97496381D01*
X116165358Y-97496381D01*
X116260596Y-97544000D01*
X116308215Y-97591619D01*
X116355834Y-97686857D01*
X116355834Y-97829714D01*
X116308215Y-97924952D01*
X116260596Y-97972571D01*
X116165358Y-98020190D01*
X115784405Y-98020190D01*
X117212977Y-97829714D02*
X117212977Y-98496381D01*
X116974881Y-97448762D02*
X116736786Y-98163048D01*
X117355834Y-98163048D01*
%LPC*%
D13*
X121893080Y-61605160D03*
X117893080Y-61605160D03*
X121937280Y-64582040D03*
X117937280Y-64582040D03*
D14*
X121747600Y-68686680D03*
X119247600Y-68686680D03*
D15*
X113863120Y-68184400D03*
X113863120Y-65684400D03*
X110342680Y-67915160D03*
X110342680Y-65415160D03*
D13*
X122396000Y-88138000D03*
X118396000Y-88138000D03*
X122142000Y-90932000D03*
X118142000Y-90932000D03*
X122110000Y-93472000D03*
X118110000Y-93472000D03*
X122110000Y-96266000D03*
X118110000Y-96266000D03*
D10*
G36*
X129619350Y-88721540D02*
X126920650Y-88721540D01*
X127520090Y-84719820D01*
X129019910Y-84719820D01*
X129619350Y-88721540D01*
X129619350Y-88721540D01*
G37*
G36*
X126920650Y-78918460D02*
X129619350Y-78918460D01*
X129019910Y-82920180D01*
X127520090Y-82920180D01*
X126920650Y-78918460D01*
X126920650Y-78918460D01*
G37*
D16*
X128524000Y-67200000D03*
X128524000Y-76200000D03*
D17*
X121498360Y-57561480D03*
D18*
X118958360Y-57561480D03*
D17*
X121762520Y-102788720D03*
D18*
X119222520Y-102788720D03*
D19*
X115023880Y-70891400D03*
X112323880Y-70891400D03*
X116737120Y-77282040D03*
X114037120Y-77282040D03*
D20*
X113441480Y-80956160D03*
X113441480Y-83656160D03*
D21*
X125730000Y-59690000D03*
X130302000Y-91694000D03*
D22*
X119380000Y-72390000D03*
D23*
X117905000Y-71390000D03*
X117905000Y-71890000D03*
X117905000Y-72390000D03*
X117905000Y-72890000D03*
X117905000Y-73390000D03*
X120855000Y-73390000D03*
X120855000Y-72890000D03*
X120855000Y-72390000D03*
X120855000Y-71890000D03*
X120855000Y-71390000D03*
D24*
X119380000Y-72390000D03*
D25*
X119630000Y-70840000D03*
X119130000Y-70840000D03*
X119630000Y-73940000D03*
X119130000Y-73940000D03*
D26*
X125542040Y-99314000D03*
X123444000Y-99314000D03*
D19*
X121158000Y-99314000D03*
X118458000Y-99314000D03*
M02*
