G04 #@! TF.FileFunction,Soldermask,Top*
%FSLAX46Y46*%
G04 Gerber Fmt 4.6, Leading zero omitted, Abs format (unit mm)*
G04 Created by KiCad (PCBNEW 0.201509151501+6198~30~ubuntu14.04.1-product) date Sun 08 Nov 2015 02:29:05 PM EST*
%MOMM*%
G01*
G04 APERTURE LIST*
%ADD10C,0.100000*%
%ADD11R,2.400000X2.000000*%
%ADD12R,1.900000X1.650000*%
%ADD13R,1.650000X1.900000*%
%ADD14R,4.000000X2.200000*%
%ADD15R,2.432000X2.432000*%
%ADD16O,2.432000X2.432000*%
%ADD17R,1.900000X1.700000*%
%ADD18R,1.700000X1.900000*%
%ADD19R,3.399740X3.399740*%
%ADD20C,0.501600*%
%ADD21O,0.951600X0.381600*%
%ADD22R,1.751600X2.501600*%
%ADD23R,0.381600X0.801600*%
%ADD24R,1.598880X1.598880*%
G04 APERTURE END LIST*
D10*
D11*
X121893080Y-61605160D03*
X117893080Y-61605160D03*
X121937280Y-64582040D03*
X117937280Y-64582040D03*
D12*
X121747600Y-68686680D03*
X119247600Y-68686680D03*
D13*
X113863120Y-68184400D03*
X113863120Y-65684400D03*
X110342680Y-67915160D03*
X110342680Y-65415160D03*
D11*
X122396000Y-88138000D03*
X118396000Y-88138000D03*
X122142000Y-90932000D03*
X118142000Y-90932000D03*
X122110000Y-93472000D03*
X118110000Y-93472000D03*
X122110000Y-96266000D03*
X118110000Y-96266000D03*
D10*
G36*
X129619350Y-88721540D02*
X126920650Y-88721540D01*
X127520090Y-84719820D01*
X129019910Y-84719820D01*
X129619350Y-88721540D01*
X129619350Y-88721540D01*
G37*
G36*
X126920650Y-78918460D02*
X129619350Y-78918460D01*
X129019910Y-82920180D01*
X127520090Y-82920180D01*
X126920650Y-78918460D01*
X126920650Y-78918460D01*
G37*
D14*
X128524000Y-67200000D03*
X128524000Y-76200000D03*
D15*
X121498360Y-57561480D03*
D16*
X118958360Y-57561480D03*
D15*
X121762520Y-102788720D03*
D16*
X119222520Y-102788720D03*
D17*
X115023880Y-70891400D03*
X112323880Y-70891400D03*
X116737120Y-77282040D03*
X114037120Y-77282040D03*
D18*
X113441480Y-80956160D03*
X113441480Y-83656160D03*
D19*
X125730000Y-59690000D03*
X130302000Y-91694000D03*
D20*
X119380000Y-72390000D03*
D21*
X117905000Y-71390000D03*
X117905000Y-71890000D03*
X117905000Y-72390000D03*
X117905000Y-72890000D03*
X117905000Y-73390000D03*
X120855000Y-73390000D03*
X120855000Y-72890000D03*
X120855000Y-72390000D03*
X120855000Y-71890000D03*
X120855000Y-71390000D03*
D22*
X119380000Y-72390000D03*
D23*
X119630000Y-70840000D03*
X119130000Y-70840000D03*
X119630000Y-73940000D03*
X119130000Y-73940000D03*
D24*
X125542040Y-99314000D03*
X123444000Y-99314000D03*
D17*
X121158000Y-99314000D03*
X118458000Y-99314000D03*
M02*
