M48
;DRILL file {KiCad 0.201509151501+6198~30~ubuntu14.04.1-product} date Wed 04 Nov 2015 10:22:06 PM EST
;FORMAT={-:-/ absolute / inch / decimal}
FMAT,2
INCH,TZ
T1C0.012
T2C0.016
T3C0.030
T4C0.040
%
G90
G05
M72
T1
X4.6803Y-2.8205
X4.6803Y-2.8795
X4.7Y-2.85
X4.7197Y-2.8205
X4.7197Y-2.8795
T2
X4.5442Y-2.6868
X4.5914Y-2.8744
X4.64Y-2.98
X4.812Y-2.8332
X4.82Y-3.4
X4.843Y-2.7612
T3
X4.32Y-2.26
X4.32Y-2.34
X4.32Y-2.42
X4.32Y-3.4
X4.32Y-3.5
X4.32Y-3.6
X4.32Y-3.7
X4.32Y-3.8
X4.32Y-3.9
X4.32Y-4.
X4.32Y-4.1
X4.4Y-2.26
X4.4Y-2.34
X4.4Y-2.42
X4.42Y-3.4
X4.42Y-3.5
X4.42Y-3.6
X4.42Y-3.7
X4.42Y-3.8
X4.42Y-3.9
X4.42Y-4.
X4.42Y-4.1
X4.48Y-2.26
X4.48Y-2.34
X4.48Y-2.42
X4.52Y-3.4
X4.52Y-3.5
X4.52Y-3.6
X4.52Y-3.7
X4.52Y-3.8
X4.52Y-3.9
X4.52Y-4.
X4.52Y-4.1
T4
X4.6834Y-2.2662
X4.6938Y-4.0468
X4.7834Y-2.2662
X4.7938Y-4.0468
T0
M30
