G04 #@! TF.FileFunction,Soldermask,Top*
%FSLAX46Y46*%
G04 Gerber Fmt 4.6, Leading zero omitted, Abs format (unit mm)*
G04 Created by KiCad (PCBNEW 0.201508060901+6055~28~ubuntu14.04.1-product) date Wed 12 Aug 2015 10:53:55 PM EDT*
%MOMM*%
G01*
G04 APERTURE LIST*
%ADD10C,0.100000*%
%ADD11R,1.250000X1.000000*%
%ADD12R,2.500000X1.000000*%
%ADD13R,1.000000X1.250000*%
%ADD14R,2.032000X2.032000*%
%ADD15O,2.032000X2.032000*%
%ADD16R,1.501140X1.501140*%
%ADD17R,1.300000X0.700000*%
%ADD18R,0.700000X1.300000*%
%ADD19O,0.230000X0.800000*%
%ADD20R,2.000000X1.200000*%
%ADD21C,0.500000*%
%ADD22R,1.150000X3.300000*%
%ADD23R,0.500000X1.800000*%
G04 APERTURE END LIST*
D10*
D11*
X166370000Y-112538000D03*
X166370000Y-114538000D03*
D12*
X172966000Y-111535000D03*
X172966000Y-114535000D03*
D13*
X168759000Y-117861000D03*
X166759000Y-117861000D03*
D14*
X157980000Y-115194000D03*
D15*
X157980000Y-112654000D03*
D14*
X180975000Y-112522000D03*
D15*
X180975000Y-115062000D03*
D16*
X161663000Y-111638000D03*
X161917000Y-116718000D03*
X175641000Y-116205000D03*
X176903000Y-109733000D03*
D17*
X173863000Y-118044000D03*
X173863000Y-116144000D03*
X171577000Y-116144000D03*
X171577000Y-118044000D03*
D18*
X171000000Y-121417000D03*
X172900000Y-121417000D03*
X166809000Y-121925000D03*
X168709000Y-121925000D03*
X166809000Y-119893000D03*
X168709000Y-119893000D03*
D19*
X170164000Y-113279000D03*
X169664000Y-113279000D03*
X169164000Y-113279000D03*
X168664000Y-113279000D03*
X168164000Y-113279000D03*
X168164000Y-115829000D03*
X168664000Y-115829000D03*
X169164000Y-115829000D03*
X169664000Y-115829000D03*
X170164000Y-115829000D03*
D20*
X169164000Y-114554000D03*
D21*
X169864000Y-114854000D03*
X169164000Y-114554000D03*
X168464000Y-114854000D03*
X168464000Y-114254000D03*
X169864000Y-114254000D03*
D22*
X167835000Y-109220000D03*
X169985000Y-109220000D03*
D23*
X167010000Y-109220000D03*
X170810000Y-109220000D03*
M02*
