G04 #@! TF.FileFunction,Copper,L1,Top,Signal*
%FSLAX46Y46*%
G04 Gerber Fmt 4.6, Leading zero omitted, Abs format (unit mm)*
G04 Created by KiCad (PCBNEW 0.201508060901+6055~28~ubuntu14.04.1-product) date Wed 12 Aug 2015 10:53:55 PM EDT*
%MOMM*%
G01*
G04 APERTURE LIST*
%ADD10C,0.100000*%
%ADD11C,0.600000*%
%ADD12R,1.250000X1.000000*%
%ADD13R,2.500000X1.000000*%
%ADD14R,1.000000X1.250000*%
%ADD15R,2.032000X2.032000*%
%ADD16O,2.032000X2.032000*%
%ADD17R,1.501140X1.501140*%
%ADD18R,1.300000X0.700000*%
%ADD19R,0.700000X1.300000*%
%ADD20O,0.230000X0.800000*%
%ADD21R,2.000000X1.200000*%
%ADD22C,0.500000*%
%ADD23R,1.150000X3.300000*%
%ADD24R,0.500000X1.800000*%
%ADD25C,0.685800*%
%ADD26C,0.609600*%
%ADD27C,0.152400*%
%ADD28C,0.250000*%
%ADD29C,0.304800*%
G04 APERTURE END LIST*
D10*
D11*
X165854000Y-119639000D03*
X164584000Y-119639000D03*
X163314000Y-119639000D03*
X165854000Y-118369000D03*
X164584000Y-118369000D03*
X163314000Y-118369000D03*
X165854000Y-117099000D03*
X164584000Y-117099000D03*
X163314000Y-117099000D03*
X165854000Y-115829000D03*
X164584000Y-115829000D03*
X163314000Y-115829000D03*
X164584000Y-114559000D03*
X163314000Y-114559000D03*
X162044000Y-114559000D03*
X158869000Y-118369000D03*
X157599000Y-118369000D03*
X156329000Y-118369000D03*
X160139000Y-122179000D03*
X158869000Y-122179000D03*
X157599000Y-122179000D03*
X156329000Y-122179000D03*
X160139000Y-120909000D03*
X158869000Y-120909000D03*
X157599000Y-120909000D03*
X156329000Y-120909000D03*
X160139000Y-119639000D03*
X158869000Y-119639000D03*
X157599000Y-119639000D03*
X156329000Y-119639000D03*
X179189000Y-117099000D03*
X180459000Y-117099000D03*
X181729000Y-117099000D03*
X181729000Y-118369000D03*
X180459000Y-118369000D03*
X179189000Y-118369000D03*
X177919000Y-118369000D03*
X181729000Y-122179000D03*
X180459000Y-122179000D03*
X179189000Y-122179000D03*
X177919000Y-122179000D03*
X176649000Y-122179000D03*
X175379000Y-122179000D03*
X181729000Y-120909000D03*
X180459000Y-120909000D03*
X179189000Y-120909000D03*
X177919000Y-120909000D03*
X176649000Y-120909000D03*
X175379000Y-120909000D03*
X181729000Y-119639000D03*
X180459000Y-119639000D03*
X179189000Y-119639000D03*
X177919000Y-119639000D03*
X176649000Y-119639000D03*
D12*
X166370000Y-112538000D03*
X166370000Y-114538000D03*
D13*
X172966000Y-111535000D03*
X172966000Y-114535000D03*
D14*
X168759000Y-117861000D03*
X166759000Y-117861000D03*
D15*
X157980000Y-115194000D03*
D16*
X157980000Y-112654000D03*
D15*
X180975000Y-112522000D03*
D16*
X180975000Y-115062000D03*
D17*
X161663000Y-111638000D03*
X161917000Y-116718000D03*
X175641000Y-116205000D03*
X176903000Y-109733000D03*
D18*
X173863000Y-118044000D03*
X173863000Y-116144000D03*
X171577000Y-116144000D03*
X171577000Y-118044000D03*
D19*
X171000000Y-121417000D03*
X172900000Y-121417000D03*
X166809000Y-121925000D03*
X168709000Y-121925000D03*
X166809000Y-119893000D03*
X168709000Y-119893000D03*
D20*
X170164000Y-113279000D03*
X169664000Y-113279000D03*
X169164000Y-113279000D03*
X168664000Y-113279000D03*
X168164000Y-113279000D03*
X168164000Y-115829000D03*
X168664000Y-115829000D03*
X169164000Y-115829000D03*
X169664000Y-115829000D03*
X170164000Y-115829000D03*
D21*
X169164000Y-114554000D03*
D22*
X169864000Y-114854000D03*
X169164000Y-114554000D03*
X168464000Y-114854000D03*
X168464000Y-114254000D03*
X169864000Y-114254000D03*
D23*
X167835000Y-109220000D03*
X169985000Y-109220000D03*
D24*
X167010000Y-109220000D03*
X170810000Y-109220000D03*
D11*
X175379000Y-119639000D03*
D25*
X174490000Y-121417000D03*
X175887000Y-117988000D03*
D26*
X172900000Y-121417000D02*
X174490000Y-121417000D01*
D27*
X169664000Y-115829000D02*
X169664000Y-116210000D01*
D28*
X169664000Y-115829000D02*
X169664000Y-115197000D01*
X169664000Y-115197000D02*
X169672000Y-115189000D01*
X169164000Y-113279000D02*
X169164000Y-114554000D01*
D29*
X173863000Y-118044000D02*
X175831000Y-118044000D01*
X175831000Y-118044000D02*
X175887000Y-117988000D01*
D26*
X168759000Y-117861000D02*
X168759000Y-117157400D01*
D29*
X169164000Y-116752400D02*
X169164000Y-115829000D01*
X168759000Y-117157400D02*
X169164000Y-116752400D01*
D26*
X171000000Y-121417000D02*
X169217000Y-121417000D01*
X169217000Y-121417000D02*
X168709000Y-121925000D01*
X168709000Y-119893000D02*
X168709000Y-117911000D01*
X168709000Y-117911000D02*
X168759000Y-117861000D01*
X168709000Y-121925000D02*
X168709000Y-119893000D01*
D29*
X167010000Y-109220000D02*
X167835000Y-109220000D01*
X168664000Y-113279000D02*
X168664000Y-111895000D01*
X167835000Y-111066000D02*
X167835000Y-109220000D01*
X168664000Y-111895000D02*
X167835000Y-111066000D01*
X169985000Y-109220000D02*
X170810000Y-109220000D01*
X169664000Y-113279000D02*
X169664000Y-112022000D01*
X170434000Y-111252000D02*
X170434000Y-109669000D01*
X169664000Y-112022000D02*
X170434000Y-111252000D01*
D28*
X170434000Y-109669000D02*
X169985000Y-109220000D01*
D26*
X175641000Y-116205000D02*
X173924000Y-116205000D01*
X173924000Y-116205000D02*
X173863000Y-116144000D01*
X171577000Y-116144000D02*
X173863000Y-116144000D01*
D27*
X170164000Y-115829000D02*
X170164000Y-116697000D01*
X171577000Y-116713000D02*
X171577000Y-116144000D01*
X171323000Y-116967000D02*
X171577000Y-116713000D01*
X170434000Y-116967000D02*
X171323000Y-116967000D01*
X170164000Y-116697000D02*
X170434000Y-116967000D01*
X168664000Y-115829000D02*
X168664000Y-116498056D01*
X167606600Y-121925000D02*
X166809000Y-121925000D01*
X167962200Y-121569400D02*
X167606600Y-121925000D01*
X167962200Y-117199856D02*
X167962200Y-121569400D01*
X168664000Y-116498056D02*
X167962200Y-117199856D01*
X168164000Y-115829000D02*
X168164000Y-116567000D01*
X167251000Y-119893000D02*
X166809000Y-119893000D01*
X167632000Y-119512000D02*
X167251000Y-119893000D01*
X167632000Y-117099000D02*
X167632000Y-119512000D01*
X168164000Y-116567000D02*
X167632000Y-117099000D01*
G36*
X182593400Y-123170400D02*
X170662600Y-123170400D01*
X170662600Y-122300078D01*
X171350000Y-122300078D01*
X171434714Y-122284138D01*
X171512518Y-122234072D01*
X171564715Y-122157680D01*
X171583078Y-122067000D01*
X171583078Y-120767000D01*
X172316922Y-120767000D01*
X172316922Y-122067000D01*
X172332862Y-122151714D01*
X172382928Y-122229518D01*
X172459320Y-122281715D01*
X172550000Y-122300078D01*
X173250000Y-122300078D01*
X173334714Y-122284138D01*
X173412518Y-122234072D01*
X173464715Y-122157680D01*
X173483078Y-122067000D01*
X173483078Y-121950400D01*
X174284309Y-121950400D01*
X174375823Y-121988400D01*
X174603180Y-121988599D01*
X174813306Y-121901776D01*
X174974211Y-121741151D01*
X175061400Y-121531177D01*
X175061599Y-121303820D01*
X174974776Y-121093694D01*
X174814151Y-120932789D01*
X174604177Y-120845600D01*
X174376820Y-120845401D01*
X174284372Y-120883600D01*
X173483078Y-120883600D01*
X173483078Y-120767000D01*
X173467138Y-120682286D01*
X173417072Y-120604482D01*
X173340680Y-120552285D01*
X173250000Y-120533922D01*
X172550000Y-120533922D01*
X172465286Y-120549862D01*
X172387482Y-120599928D01*
X172335285Y-120676320D01*
X172316922Y-120767000D01*
X171583078Y-120767000D01*
X171567138Y-120682286D01*
X171517072Y-120604482D01*
X171440680Y-120552285D01*
X171350000Y-120533922D01*
X170662600Y-120533922D01*
X170662600Y-117694000D01*
X172979922Y-117694000D01*
X172979922Y-118394000D01*
X172995862Y-118478714D01*
X173045928Y-118556518D01*
X173122320Y-118608715D01*
X173213000Y-118627078D01*
X174513000Y-118627078D01*
X174597714Y-118611138D01*
X174675518Y-118561072D01*
X174727715Y-118484680D01*
X174739800Y-118425000D01*
X175515720Y-118425000D01*
X175562849Y-118472211D01*
X175772823Y-118559400D01*
X176000180Y-118559599D01*
X176210306Y-118472776D01*
X176371211Y-118312151D01*
X176458400Y-118102177D01*
X176458599Y-117874820D01*
X176371776Y-117664694D01*
X176211151Y-117503789D01*
X176001177Y-117416600D01*
X175773820Y-117416401D01*
X175563694Y-117503224D01*
X175403639Y-117663000D01*
X174740245Y-117663000D01*
X174730138Y-117609286D01*
X174680072Y-117531482D01*
X174603680Y-117479285D01*
X174513000Y-117460922D01*
X173213000Y-117460922D01*
X173128286Y-117476862D01*
X173050482Y-117526928D01*
X172998285Y-117603320D01*
X172979922Y-117694000D01*
X170662600Y-117694000D01*
X170662600Y-117271800D01*
X171323000Y-117271800D01*
X171439642Y-117248598D01*
X171538526Y-117182526D01*
X171792526Y-116928526D01*
X171858598Y-116829642D01*
X171879000Y-116727078D01*
X172227000Y-116727078D01*
X172311714Y-116711138D01*
X172364144Y-116677400D01*
X173076489Y-116677400D01*
X173122320Y-116708715D01*
X173213000Y-116727078D01*
X173867081Y-116727078D01*
X173924000Y-116738400D01*
X174657352Y-116738400D01*
X174657352Y-116955570D01*
X174673292Y-117040284D01*
X174723358Y-117118088D01*
X174799750Y-117170285D01*
X174890430Y-117188648D01*
X176391570Y-117188648D01*
X176476284Y-117172708D01*
X176554088Y-117122642D01*
X176606285Y-117046250D01*
X176624648Y-116955570D01*
X176624648Y-115454430D01*
X176608708Y-115369716D01*
X176558642Y-115291912D01*
X176482250Y-115239715D01*
X176391570Y-115221352D01*
X174890430Y-115221352D01*
X174805716Y-115237292D01*
X174727912Y-115287358D01*
X174675715Y-115363750D01*
X174657352Y-115454430D01*
X174657352Y-115615958D01*
X174603680Y-115579285D01*
X174513000Y-115560922D01*
X173213000Y-115560922D01*
X173128286Y-115576862D01*
X173075856Y-115610600D01*
X172363511Y-115610600D01*
X172317680Y-115579285D01*
X172227000Y-115560922D01*
X170927000Y-115560922D01*
X170842286Y-115576862D01*
X170764482Y-115626928D01*
X170712285Y-115703320D01*
X170693922Y-115794000D01*
X170693922Y-116494000D01*
X170709862Y-116578714D01*
X170759928Y-116656518D01*
X170768244Y-116662200D01*
X170662600Y-116662200D01*
X170662600Y-115290600D01*
X170656597Y-115260954D01*
X170639532Y-115235979D01*
X170614095Y-115219611D01*
X170585681Y-115214403D01*
X170299771Y-115217100D01*
X170295490Y-115214240D01*
X170164000Y-115188085D01*
X170032510Y-115214240D01*
X170024341Y-115219699D01*
X169313693Y-115226403D01*
X169295490Y-115214240D01*
X169164000Y-115188085D01*
X169032510Y-115214240D01*
X169010019Y-115229268D01*
X168820654Y-115231054D01*
X168795490Y-115214240D01*
X168664000Y-115188085D01*
X168532510Y-115214240D01*
X168502859Y-115234052D01*
X168327615Y-115235706D01*
X168295490Y-115214240D01*
X168164000Y-115188085D01*
X168032510Y-115214240D01*
X167995698Y-115238837D01*
X167893281Y-115239803D01*
X167863693Y-115246086D01*
X167838880Y-115263386D01*
X167822753Y-115288975D01*
X167817800Y-115316000D01*
X167817800Y-116482148D01*
X167416474Y-116883474D01*
X167350402Y-116982358D01*
X167327200Y-117099000D01*
X167327200Y-119082235D01*
X167326072Y-119080482D01*
X167249680Y-119028285D01*
X167159000Y-119009922D01*
X166459000Y-119009922D01*
X166374286Y-119025862D01*
X166296482Y-119075928D01*
X166244285Y-119152320D01*
X166225922Y-119243000D01*
X166225922Y-120543000D01*
X166241862Y-120627714D01*
X166291928Y-120705518D01*
X166368320Y-120757715D01*
X166459000Y-120776078D01*
X167159000Y-120776078D01*
X167243714Y-120760138D01*
X167321518Y-120710072D01*
X167373715Y-120633680D01*
X167392078Y-120543000D01*
X167392078Y-120158270D01*
X167466526Y-120108526D01*
X167657400Y-119917652D01*
X167657400Y-121443148D01*
X167480348Y-121620200D01*
X167392078Y-121620200D01*
X167392078Y-121275000D01*
X167376138Y-121190286D01*
X167326072Y-121112482D01*
X167249680Y-121060285D01*
X167159000Y-121041922D01*
X166459000Y-121041922D01*
X166374286Y-121057862D01*
X166296482Y-121107928D01*
X166244285Y-121184320D01*
X166225922Y-121275000D01*
X166225922Y-122575000D01*
X166241862Y-122659714D01*
X166291928Y-122737518D01*
X166368320Y-122789715D01*
X166459000Y-122808078D01*
X167159000Y-122808078D01*
X167243714Y-122792138D01*
X167321518Y-122742072D01*
X167373715Y-122665680D01*
X167392078Y-122575000D01*
X167392078Y-122229800D01*
X167606600Y-122229800D01*
X167723242Y-122206598D01*
X167817800Y-122143417D01*
X167817800Y-123170400D01*
X155718600Y-123170400D01*
X155718600Y-114120997D01*
X182593400Y-114001440D01*
X182593400Y-123170400D01*
X182593400Y-123170400D01*
G37*
X182593400Y-123170400D02*
X170662600Y-123170400D01*
X170662600Y-122300078D01*
X171350000Y-122300078D01*
X171434714Y-122284138D01*
X171512518Y-122234072D01*
X171564715Y-122157680D01*
X171583078Y-122067000D01*
X171583078Y-120767000D01*
X172316922Y-120767000D01*
X172316922Y-122067000D01*
X172332862Y-122151714D01*
X172382928Y-122229518D01*
X172459320Y-122281715D01*
X172550000Y-122300078D01*
X173250000Y-122300078D01*
X173334714Y-122284138D01*
X173412518Y-122234072D01*
X173464715Y-122157680D01*
X173483078Y-122067000D01*
X173483078Y-121950400D01*
X174284309Y-121950400D01*
X174375823Y-121988400D01*
X174603180Y-121988599D01*
X174813306Y-121901776D01*
X174974211Y-121741151D01*
X175061400Y-121531177D01*
X175061599Y-121303820D01*
X174974776Y-121093694D01*
X174814151Y-120932789D01*
X174604177Y-120845600D01*
X174376820Y-120845401D01*
X174284372Y-120883600D01*
X173483078Y-120883600D01*
X173483078Y-120767000D01*
X173467138Y-120682286D01*
X173417072Y-120604482D01*
X173340680Y-120552285D01*
X173250000Y-120533922D01*
X172550000Y-120533922D01*
X172465286Y-120549862D01*
X172387482Y-120599928D01*
X172335285Y-120676320D01*
X172316922Y-120767000D01*
X171583078Y-120767000D01*
X171567138Y-120682286D01*
X171517072Y-120604482D01*
X171440680Y-120552285D01*
X171350000Y-120533922D01*
X170662600Y-120533922D01*
X170662600Y-117694000D01*
X172979922Y-117694000D01*
X172979922Y-118394000D01*
X172995862Y-118478714D01*
X173045928Y-118556518D01*
X173122320Y-118608715D01*
X173213000Y-118627078D01*
X174513000Y-118627078D01*
X174597714Y-118611138D01*
X174675518Y-118561072D01*
X174727715Y-118484680D01*
X174739800Y-118425000D01*
X175515720Y-118425000D01*
X175562849Y-118472211D01*
X175772823Y-118559400D01*
X176000180Y-118559599D01*
X176210306Y-118472776D01*
X176371211Y-118312151D01*
X176458400Y-118102177D01*
X176458599Y-117874820D01*
X176371776Y-117664694D01*
X176211151Y-117503789D01*
X176001177Y-117416600D01*
X175773820Y-117416401D01*
X175563694Y-117503224D01*
X175403639Y-117663000D01*
X174740245Y-117663000D01*
X174730138Y-117609286D01*
X174680072Y-117531482D01*
X174603680Y-117479285D01*
X174513000Y-117460922D01*
X173213000Y-117460922D01*
X173128286Y-117476862D01*
X173050482Y-117526928D01*
X172998285Y-117603320D01*
X172979922Y-117694000D01*
X170662600Y-117694000D01*
X170662600Y-117271800D01*
X171323000Y-117271800D01*
X171439642Y-117248598D01*
X171538526Y-117182526D01*
X171792526Y-116928526D01*
X171858598Y-116829642D01*
X171879000Y-116727078D01*
X172227000Y-116727078D01*
X172311714Y-116711138D01*
X172364144Y-116677400D01*
X173076489Y-116677400D01*
X173122320Y-116708715D01*
X173213000Y-116727078D01*
X173867081Y-116727078D01*
X173924000Y-116738400D01*
X174657352Y-116738400D01*
X174657352Y-116955570D01*
X174673292Y-117040284D01*
X174723358Y-117118088D01*
X174799750Y-117170285D01*
X174890430Y-117188648D01*
X176391570Y-117188648D01*
X176476284Y-117172708D01*
X176554088Y-117122642D01*
X176606285Y-117046250D01*
X176624648Y-116955570D01*
X176624648Y-115454430D01*
X176608708Y-115369716D01*
X176558642Y-115291912D01*
X176482250Y-115239715D01*
X176391570Y-115221352D01*
X174890430Y-115221352D01*
X174805716Y-115237292D01*
X174727912Y-115287358D01*
X174675715Y-115363750D01*
X174657352Y-115454430D01*
X174657352Y-115615958D01*
X174603680Y-115579285D01*
X174513000Y-115560922D01*
X173213000Y-115560922D01*
X173128286Y-115576862D01*
X173075856Y-115610600D01*
X172363511Y-115610600D01*
X172317680Y-115579285D01*
X172227000Y-115560922D01*
X170927000Y-115560922D01*
X170842286Y-115576862D01*
X170764482Y-115626928D01*
X170712285Y-115703320D01*
X170693922Y-115794000D01*
X170693922Y-116494000D01*
X170709862Y-116578714D01*
X170759928Y-116656518D01*
X170768244Y-116662200D01*
X170662600Y-116662200D01*
X170662600Y-115290600D01*
X170656597Y-115260954D01*
X170639532Y-115235979D01*
X170614095Y-115219611D01*
X170585681Y-115214403D01*
X170299771Y-115217100D01*
X170295490Y-115214240D01*
X170164000Y-115188085D01*
X170032510Y-115214240D01*
X170024341Y-115219699D01*
X169313693Y-115226403D01*
X169295490Y-115214240D01*
X169164000Y-115188085D01*
X169032510Y-115214240D01*
X169010019Y-115229268D01*
X168820654Y-115231054D01*
X168795490Y-115214240D01*
X168664000Y-115188085D01*
X168532510Y-115214240D01*
X168502859Y-115234052D01*
X168327615Y-115235706D01*
X168295490Y-115214240D01*
X168164000Y-115188085D01*
X168032510Y-115214240D01*
X167995698Y-115238837D01*
X167893281Y-115239803D01*
X167863693Y-115246086D01*
X167838880Y-115263386D01*
X167822753Y-115288975D01*
X167817800Y-115316000D01*
X167817800Y-116482148D01*
X167416474Y-116883474D01*
X167350402Y-116982358D01*
X167327200Y-117099000D01*
X167327200Y-119082235D01*
X167326072Y-119080482D01*
X167249680Y-119028285D01*
X167159000Y-119009922D01*
X166459000Y-119009922D01*
X166374286Y-119025862D01*
X166296482Y-119075928D01*
X166244285Y-119152320D01*
X166225922Y-119243000D01*
X166225922Y-120543000D01*
X166241862Y-120627714D01*
X166291928Y-120705518D01*
X166368320Y-120757715D01*
X166459000Y-120776078D01*
X167159000Y-120776078D01*
X167243714Y-120760138D01*
X167321518Y-120710072D01*
X167373715Y-120633680D01*
X167392078Y-120543000D01*
X167392078Y-120158270D01*
X167466526Y-120108526D01*
X167657400Y-119917652D01*
X167657400Y-121443148D01*
X167480348Y-121620200D01*
X167392078Y-121620200D01*
X167392078Y-121275000D01*
X167376138Y-121190286D01*
X167326072Y-121112482D01*
X167249680Y-121060285D01*
X167159000Y-121041922D01*
X166459000Y-121041922D01*
X166374286Y-121057862D01*
X166296482Y-121107928D01*
X166244285Y-121184320D01*
X166225922Y-121275000D01*
X166225922Y-122575000D01*
X166241862Y-122659714D01*
X166291928Y-122737518D01*
X166368320Y-122789715D01*
X166459000Y-122808078D01*
X167159000Y-122808078D01*
X167243714Y-122792138D01*
X167321518Y-122742072D01*
X167373715Y-122665680D01*
X167392078Y-122575000D01*
X167392078Y-122229800D01*
X167606600Y-122229800D01*
X167723242Y-122206598D01*
X167817800Y-122143417D01*
X167817800Y-123170400D01*
X155718600Y-123170400D01*
X155718600Y-114120997D01*
X182593400Y-114001440D01*
X182593400Y-123170400D01*
G36*
X167045285Y-107479320D02*
X167026922Y-107570000D01*
X167026922Y-108086922D01*
X166760000Y-108086922D01*
X166675286Y-108102862D01*
X166597482Y-108152928D01*
X166545285Y-108229320D01*
X166526922Y-108320000D01*
X166526922Y-110120000D01*
X166542862Y-110204714D01*
X166592928Y-110282518D01*
X166669320Y-110334715D01*
X166760000Y-110353078D01*
X167026922Y-110353078D01*
X167026922Y-110870000D01*
X167042862Y-110954714D01*
X167092928Y-111032518D01*
X167169320Y-111084715D01*
X167260000Y-111103078D01*
X167461375Y-111103078D01*
X167483002Y-111211803D01*
X167565592Y-111335408D01*
X168198800Y-111968616D01*
X168198800Y-113715800D01*
X155718600Y-113715800D01*
X155718600Y-107471600D01*
X167050560Y-107471600D01*
X167045285Y-107479320D01*
X167045285Y-107479320D01*
G37*
X167045285Y-107479320D02*
X167026922Y-107570000D01*
X167026922Y-108086922D01*
X166760000Y-108086922D01*
X166675286Y-108102862D01*
X166597482Y-108152928D01*
X166545285Y-108229320D01*
X166526922Y-108320000D01*
X166526922Y-110120000D01*
X166542862Y-110204714D01*
X166592928Y-110282518D01*
X166669320Y-110334715D01*
X166760000Y-110353078D01*
X167026922Y-110353078D01*
X167026922Y-110870000D01*
X167042862Y-110954714D01*
X167092928Y-111032518D01*
X167169320Y-111084715D01*
X167260000Y-111103078D01*
X167461375Y-111103078D01*
X167483002Y-111211803D01*
X167565592Y-111335408D01*
X168198800Y-111968616D01*
X168198800Y-113715800D01*
X155718600Y-113715800D01*
X155718600Y-107471600D01*
X167050560Y-107471600D01*
X167045285Y-107479320D01*
G36*
X182593400Y-113472738D02*
X177164166Y-113588800D01*
X170005117Y-113588800D01*
X170007600Y-113576315D01*
X170007600Y-113471656D01*
X170008594Y-113435884D01*
X170015998Y-113424802D01*
X170045000Y-113279000D01*
X170045000Y-112179816D01*
X170703405Y-111521410D01*
X170703408Y-111521408D01*
X170785998Y-111397802D01*
X170815000Y-111252000D01*
X170815000Y-110353078D01*
X171060000Y-110353078D01*
X171144714Y-110337138D01*
X171222518Y-110287072D01*
X171274715Y-110210680D01*
X171293078Y-110120000D01*
X171293078Y-108320000D01*
X171277138Y-108235286D01*
X171227072Y-108157482D01*
X171150680Y-108105285D01*
X171060000Y-108086922D01*
X170793078Y-108086922D01*
X170793078Y-107570000D01*
X170777138Y-107485286D01*
X170768331Y-107471600D01*
X182593400Y-107471600D01*
X182593400Y-113472738D01*
X182593400Y-113472738D01*
G37*
X182593400Y-113472738D02*
X177164166Y-113588800D01*
X170005117Y-113588800D01*
X170007600Y-113576315D01*
X170007600Y-113471656D01*
X170008594Y-113435884D01*
X170015998Y-113424802D01*
X170045000Y-113279000D01*
X170045000Y-112179816D01*
X170703405Y-111521410D01*
X170703408Y-111521408D01*
X170785998Y-111397802D01*
X170815000Y-111252000D01*
X170815000Y-110353078D01*
X171060000Y-110353078D01*
X171144714Y-110337138D01*
X171222518Y-110287072D01*
X171274715Y-110210680D01*
X171293078Y-110120000D01*
X171293078Y-108320000D01*
X171277138Y-108235286D01*
X171227072Y-108157482D01*
X171150680Y-108105285D01*
X171060000Y-108086922D01*
X170793078Y-108086922D01*
X170793078Y-107570000D01*
X170777138Y-107485286D01*
X170768331Y-107471600D01*
X182593400Y-107471600D01*
X182593400Y-113472738D01*
M02*
