G04 #@! TF.FileFunction,Legend,Bot*
%FSLAX46Y46*%
G04 Gerber Fmt 4.6, Leading zero omitted, Abs format (unit mm)*
G04 Created by KiCad (PCBNEW 0.201508060901+6055~28~ubuntu14.04.1-product) date Wed 12 Aug 2015 10:53:55 PM EDT*
%MOMM*%
G01*
G04 APERTURE LIST*
%ADD10C,0.100000*%
%ADD11C,0.300000*%
G04 APERTURE END LIST*
D10*
D11*
X181200428Y-116647571D02*
X181200428Y-115147571D01*
X180629000Y-115147571D01*
X180486142Y-115219000D01*
X180414714Y-115290429D01*
X180343285Y-115433286D01*
X180343285Y-115647571D01*
X180414714Y-115790429D01*
X180486142Y-115861857D01*
X180629000Y-115933286D01*
X181200428Y-115933286D01*
X179486142Y-116647571D02*
X179629000Y-116576143D01*
X179700428Y-116504714D01*
X179771857Y-116361857D01*
X179771857Y-115933286D01*
X179700428Y-115790429D01*
X179629000Y-115719000D01*
X179486142Y-115647571D01*
X179271857Y-115647571D01*
X179129000Y-115719000D01*
X179057571Y-115790429D01*
X178986142Y-115933286D01*
X178986142Y-116361857D01*
X179057571Y-116504714D01*
X179129000Y-116576143D01*
X179271857Y-116647571D01*
X179486142Y-116647571D01*
X178486142Y-115647571D02*
X178200428Y-116647571D01*
X177914714Y-115933286D01*
X177628999Y-116647571D01*
X177343285Y-115647571D01*
X176200428Y-116576143D02*
X176343285Y-116647571D01*
X176628999Y-116647571D01*
X176771856Y-116576143D01*
X176843285Y-116433286D01*
X176843285Y-115861857D01*
X176771856Y-115719000D01*
X176628999Y-115647571D01*
X176343285Y-115647571D01*
X176200428Y-115719000D01*
X176128999Y-115861857D01*
X176128999Y-116004714D01*
X176843285Y-116147571D01*
X175486142Y-116647571D02*
X175486142Y-115647571D01*
X175486142Y-115933286D02*
X175414714Y-115790429D01*
X175343285Y-115719000D01*
X175200428Y-115647571D01*
X175057571Y-115647571D01*
X174629000Y-116576143D02*
X174414714Y-116647571D01*
X174057571Y-116647571D01*
X173914714Y-116576143D01*
X173843285Y-116504714D01*
X173771857Y-116361857D01*
X173771857Y-116219000D01*
X173843285Y-116076143D01*
X173914714Y-116004714D01*
X174057571Y-115933286D01*
X174343285Y-115861857D01*
X174486143Y-115790429D01*
X174557571Y-115719000D01*
X174629000Y-115576143D01*
X174629000Y-115433286D01*
X174557571Y-115290429D01*
X174486143Y-115219000D01*
X174343285Y-115147571D01*
X173986143Y-115147571D01*
X173771857Y-115219000D01*
X173271857Y-115647571D02*
X172986143Y-116647571D01*
X172700429Y-115933286D01*
X172414714Y-116647571D01*
X172129000Y-115647571D01*
X170914714Y-116647571D02*
X170914714Y-115861857D01*
X170986143Y-115719000D01*
X171129000Y-115647571D01*
X171414714Y-115647571D01*
X171557571Y-115719000D01*
X170914714Y-116576143D02*
X171057571Y-116647571D01*
X171414714Y-116647571D01*
X171557571Y-116576143D01*
X171629000Y-116433286D01*
X171629000Y-116290429D01*
X171557571Y-116147571D01*
X171414714Y-116076143D01*
X171057571Y-116076143D01*
X170914714Y-116004714D01*
X170200428Y-115647571D02*
X170200428Y-117147571D01*
X170200428Y-115719000D02*
X170057571Y-115647571D01*
X169771857Y-115647571D01*
X169629000Y-115719000D01*
X169557571Y-115790429D01*
X169486142Y-115933286D01*
X169486142Y-116361857D01*
X169557571Y-116504714D01*
X169629000Y-116576143D01*
X169771857Y-116647571D01*
X170057571Y-116647571D01*
X170200428Y-116576143D01*
X181414713Y-117547571D02*
X180557570Y-117547571D01*
X180986141Y-119047571D02*
X180986141Y-117547571D01*
X180057570Y-119047571D02*
X180057570Y-117547571D01*
X179486142Y-117547571D01*
X179343284Y-117619000D01*
X179271856Y-117690429D01*
X179200427Y-117833286D01*
X179200427Y-118047571D01*
X179271856Y-118190429D01*
X179343284Y-118261857D01*
X179486142Y-118333286D01*
X180057570Y-118333286D01*
X178628999Y-118976143D02*
X178414713Y-119047571D01*
X178057570Y-119047571D01*
X177914713Y-118976143D01*
X177843284Y-118904714D01*
X177771856Y-118761857D01*
X177771856Y-118619000D01*
X177843284Y-118476143D01*
X177914713Y-118404714D01*
X178057570Y-118333286D01*
X178343284Y-118261857D01*
X178486142Y-118190429D01*
X178557570Y-118119000D01*
X178628999Y-117976143D01*
X178628999Y-117833286D01*
X178557570Y-117690429D01*
X178486142Y-117619000D01*
X178343284Y-117547571D01*
X177986142Y-117547571D01*
X177771856Y-117619000D01*
X176486142Y-117547571D02*
X176771856Y-117547571D01*
X176914713Y-117619000D01*
X176986142Y-117690429D01*
X177128999Y-117904714D01*
X177200428Y-118190429D01*
X177200428Y-118761857D01*
X177128999Y-118904714D01*
X177057571Y-118976143D01*
X176914713Y-119047571D01*
X176628999Y-119047571D01*
X176486142Y-118976143D01*
X176414713Y-118904714D01*
X176343285Y-118761857D01*
X176343285Y-118404714D01*
X176414713Y-118261857D01*
X176486142Y-118190429D01*
X176628999Y-118119000D01*
X176914713Y-118119000D01*
X177057571Y-118190429D01*
X177128999Y-118261857D01*
X177200428Y-118404714D01*
X175843285Y-117547571D02*
X174914714Y-117547571D01*
X175414714Y-118119000D01*
X175200428Y-118119000D01*
X175057571Y-118190429D01*
X174986142Y-118261857D01*
X174914714Y-118404714D01*
X174914714Y-118761857D01*
X174986142Y-118904714D01*
X175057571Y-118976143D01*
X175200428Y-119047571D01*
X175629000Y-119047571D01*
X175771857Y-118976143D01*
X175843285Y-118904714D01*
X173986143Y-117547571D02*
X173843286Y-117547571D01*
X173700429Y-117619000D01*
X173629000Y-117690429D01*
X173557571Y-117833286D01*
X173486143Y-118119000D01*
X173486143Y-118476143D01*
X173557571Y-118761857D01*
X173629000Y-118904714D01*
X173700429Y-118976143D01*
X173843286Y-119047571D01*
X173986143Y-119047571D01*
X174129000Y-118976143D01*
X174200429Y-118904714D01*
X174271857Y-118761857D01*
X174343286Y-118476143D01*
X174343286Y-118119000D01*
X174271857Y-117833286D01*
X174200429Y-117690429D01*
X174129000Y-117619000D01*
X173986143Y-117547571D01*
X172986143Y-117547571D02*
X172057572Y-117547571D01*
X172557572Y-118119000D01*
X172343286Y-118119000D01*
X172200429Y-118190429D01*
X172129000Y-118261857D01*
X172057572Y-118404714D01*
X172057572Y-118761857D01*
X172129000Y-118904714D01*
X172200429Y-118976143D01*
X172343286Y-119047571D01*
X172771858Y-119047571D01*
X172914715Y-118976143D01*
X172986143Y-118904714D01*
X171129001Y-117547571D02*
X170986144Y-117547571D01*
X170843287Y-117619000D01*
X170771858Y-117690429D01*
X170700429Y-117833286D01*
X170629001Y-118119000D01*
X170629001Y-118476143D01*
X170700429Y-118761857D01*
X170771858Y-118904714D01*
X170843287Y-118976143D01*
X170986144Y-119047571D01*
X171129001Y-119047571D01*
X171271858Y-118976143D01*
X171343287Y-118904714D01*
X171414715Y-118761857D01*
X171486144Y-118476143D01*
X171486144Y-118119000D01*
X171414715Y-117833286D01*
X171343287Y-117690429D01*
X171271858Y-117619000D01*
X171129001Y-117547571D01*
X177414713Y-121447571D02*
X177914713Y-120733286D01*
X178271856Y-121447571D02*
X178271856Y-119947571D01*
X177700428Y-119947571D01*
X177557570Y-120019000D01*
X177486142Y-120090429D01*
X177414713Y-120233286D01*
X177414713Y-120447571D01*
X177486142Y-120590429D01*
X177557570Y-120661857D01*
X177700428Y-120733286D01*
X178271856Y-120733286D01*
X176200428Y-121376143D02*
X176343285Y-121447571D01*
X176628999Y-121447571D01*
X176771856Y-121376143D01*
X176843285Y-121233286D01*
X176843285Y-120661857D01*
X176771856Y-120519000D01*
X176628999Y-120447571D01*
X176343285Y-120447571D01*
X176200428Y-120519000D01*
X176128999Y-120661857D01*
X176128999Y-120804714D01*
X176843285Y-120947571D01*
X175628999Y-120447571D02*
X175271856Y-121447571D01*
X174914714Y-120447571D01*
X172414714Y-121447571D02*
X173271857Y-121447571D01*
X172843285Y-121447571D02*
X172843285Y-119947571D01*
X172986142Y-120161857D01*
X173129000Y-120304714D01*
X173271857Y-120376143D01*
M02*
