M48
;DRILL file {KiCad 0.201508060901+6055~28~ubuntu14.04.1-product} date Wed 12 Aug 2015 10:53:58 PM EDT
;FORMAT={-:-/ absolute / inch / decimal}
FMAT,2
INCH,TZ
T1C0.012
T2C0.013
T3C0.013
T4C0.040
%
G90
G05
M72
T1
X6.1547Y-4.6602
X6.1547Y-4.7102
X6.1547Y-4.7602
X6.1547Y-4.8102
X6.2047Y-4.6602
X6.2047Y-4.7102
X6.2047Y-4.7602
X6.2047Y-4.8102
X6.2547Y-4.6602
X6.2547Y-4.7102
X6.2547Y-4.7602
X6.2547Y-4.8102
X6.3047Y-4.7102
X6.3047Y-4.7602
X6.3047Y-4.8102
X6.3797Y-4.5102
X6.4297Y-4.5102
X6.4297Y-4.5602
X6.4297Y-4.6102
X6.4297Y-4.6602
X6.4297Y-4.7102
X6.4797Y-4.5102
X6.4797Y-4.5602
X6.4797Y-4.6102
X6.4797Y-4.6602
X6.4797Y-4.7102
X6.5297Y-4.5602
X6.5297Y-4.6102
X6.5297Y-4.6602
X6.5297Y-4.7102
X6.9047Y-4.7102
X6.9047Y-4.7602
X6.9047Y-4.8102
X6.9547Y-4.7102
X6.9547Y-4.7602
X6.9547Y-4.8102
X7.0047Y-4.6602
X7.0047Y-4.7102
X7.0047Y-4.7602
X7.0047Y-4.8102
X7.0547Y-4.6102
X7.0547Y-4.6602
X7.0547Y-4.7102
X7.0547Y-4.7602
X7.0547Y-4.8102
X7.1047Y-4.6102
X7.1047Y-4.6602
X7.1047Y-4.7102
X7.1047Y-4.7602
X7.1047Y-4.8102
X7.1547Y-4.6102
X7.1547Y-4.6602
X7.1547Y-4.7102
X7.1547Y-4.7602
X7.1547Y-4.8102
T2
X6.6324Y-4.4982
X6.6324Y-4.5218
X6.66Y-4.51
X6.6876Y-4.4982
X6.6876Y-4.5218
T3
X6.8697Y-4.7802
X6.9247Y-4.6452
T4
X6.2197Y-4.4352
X6.2197Y-4.5352
X7.125Y-4.43
X7.125Y-4.53
T0
M30
