G04 #@! TF.FileFunction,Legend,Top*
%FSLAX46Y46*%
G04 Gerber Fmt 4.6, Leading zero omitted, Abs format (unit mm)*
G04 Created by KiCad (PCBNEW 0.201508060901+6055~28~ubuntu14.04.1-product) date Wed 12 Aug 2015 10:53:55 PM EDT*
%MOMM*%
G01*
G04 APERTURE LIST*
%ADD10C,0.100000*%
%ADD11C,0.101600*%
%ADD12C,0.150000*%
G04 APERTURE END LIST*
D10*
D11*
X175560428Y-108172714D02*
X175814428Y-108934714D01*
X176068428Y-108172714D01*
X176467571Y-108172714D02*
X176612714Y-108172714D01*
X176685286Y-108209000D01*
X176757857Y-108281571D01*
X176794143Y-108426714D01*
X176794143Y-108680714D01*
X176757857Y-108825857D01*
X176685286Y-108898429D01*
X176612714Y-108934714D01*
X176467571Y-108934714D01*
X176395000Y-108898429D01*
X176322429Y-108825857D01*
X176286143Y-108680714D01*
X176286143Y-108426714D01*
X176322429Y-108281571D01*
X176395000Y-108209000D01*
X176467571Y-108172714D01*
X177120715Y-108172714D02*
X177120715Y-108789571D01*
X177157000Y-108862143D01*
X177193286Y-108898429D01*
X177265857Y-108934714D01*
X177411000Y-108934714D01*
X177483572Y-108898429D01*
X177519857Y-108862143D01*
X177556143Y-108789571D01*
X177556143Y-108172714D01*
X177810143Y-108172714D02*
X178245572Y-108172714D01*
X178027858Y-108934714D02*
X178027858Y-108172714D01*
X177265858Y-117425571D02*
X177011858Y-117425571D01*
X177011858Y-117824714D02*
X177011858Y-117062714D01*
X177374715Y-117062714D01*
X177919001Y-117425571D02*
X178027858Y-117461857D01*
X178064143Y-117498143D01*
X178100429Y-117570714D01*
X178100429Y-117679571D01*
X178064143Y-117752143D01*
X178027858Y-117788429D01*
X177955286Y-117824714D01*
X177665001Y-117824714D01*
X177665001Y-117062714D01*
X177919001Y-117062714D01*
X177991572Y-117099000D01*
X178027858Y-117135286D01*
X178064143Y-117207857D01*
X178064143Y-117280429D01*
X178027858Y-117353000D01*
X177991572Y-117389286D01*
X177919001Y-117425571D01*
X177665001Y-117425571D01*
X161209428Y-112617714D02*
X161463428Y-113379714D01*
X161717428Y-112617714D01*
X161971429Y-113379714D02*
X161971429Y-112617714D01*
X162334286Y-113379714D02*
X162334286Y-112617714D01*
X162769714Y-113379714D01*
X162769714Y-112617714D01*
X160393000Y-114305000D02*
X160320429Y-114268714D01*
X160211572Y-114268714D01*
X160102715Y-114305000D01*
X160030143Y-114377571D01*
X159993858Y-114450143D01*
X159957572Y-114595286D01*
X159957572Y-114704143D01*
X159993858Y-114849286D01*
X160030143Y-114921857D01*
X160102715Y-114994429D01*
X160211572Y-115030714D01*
X160284143Y-115030714D01*
X160393000Y-114994429D01*
X160429286Y-114958143D01*
X160429286Y-114704143D01*
X160284143Y-114704143D01*
X160755858Y-115030714D02*
X160755858Y-114268714D01*
X161191286Y-115030714D01*
X161191286Y-114268714D01*
X161554144Y-115030714D02*
X161554144Y-114268714D01*
X161735572Y-114268714D01*
X161844429Y-114305000D01*
X161917001Y-114377571D01*
X161953286Y-114450143D01*
X161989572Y-114595286D01*
X161989572Y-114704143D01*
X161953286Y-114849286D01*
X161917001Y-114921857D01*
X161844429Y-114994429D01*
X161735572Y-115030714D01*
X161554144Y-115030714D01*
X162316144Y-115030714D02*
X162316144Y-114268714D01*
X162606429Y-114268714D01*
X162679001Y-114305000D01*
X162715286Y-114341286D01*
X162751572Y-114413857D01*
X162751572Y-114522714D01*
X162715286Y-114595286D01*
X162679001Y-114631571D01*
X162606429Y-114667857D01*
X162316144Y-114667857D01*
X163005572Y-114268714D02*
X163187001Y-115030714D01*
X163332144Y-114486429D01*
X163477286Y-115030714D01*
X163658715Y-114268714D01*
X164384429Y-115030714D02*
X164130429Y-114667857D01*
X163949001Y-115030714D02*
X163949001Y-114268714D01*
X164239286Y-114268714D01*
X164311858Y-114305000D01*
X164348143Y-114341286D01*
X164384429Y-114413857D01*
X164384429Y-114522714D01*
X164348143Y-114595286D01*
X164311858Y-114631571D01*
X164239286Y-114667857D01*
X163949001Y-114667857D01*
D12*
X167220000Y-114038000D02*
X167220000Y-113038000D01*
X165520000Y-113038000D02*
X165520000Y-114038000D01*
X174441000Y-114035000D02*
X174441000Y-112035000D01*
X171491000Y-112035000D02*
X171491000Y-114035000D01*
X167259000Y-118711000D02*
X168259000Y-118711000D01*
X168259000Y-117011000D02*
X167259000Y-117011000D01*
X156710000Y-113924000D02*
X156710000Y-111384000D01*
X156430000Y-116744000D02*
X156430000Y-115194000D01*
X156710000Y-113924000D02*
X159250000Y-113924000D01*
X159530000Y-115194000D02*
X159530000Y-116744000D01*
X159530000Y-116744000D02*
X156430000Y-116744000D01*
X159250000Y-113924000D02*
X159250000Y-111384000D01*
X159250000Y-111384000D02*
X156710000Y-111384000D01*
X182245000Y-113792000D02*
X182245000Y-116332000D01*
X182525000Y-110972000D02*
X182525000Y-112522000D01*
X182245000Y-113792000D02*
X179705000Y-113792000D01*
X179425000Y-112522000D02*
X179425000Y-110972000D01*
X179425000Y-110972000D02*
X182525000Y-110972000D01*
X179705000Y-113792000D02*
X179705000Y-116332000D01*
X179705000Y-116332000D02*
X182245000Y-116332000D01*
X174738000Y-116494000D02*
X174738000Y-117694000D01*
X172988000Y-117694000D02*
X172988000Y-116494000D01*
X170702000Y-117694000D02*
X170702000Y-116494000D01*
X172452000Y-116494000D02*
X172452000Y-117694000D01*
X172550000Y-122292000D02*
X171350000Y-122292000D01*
X171350000Y-120542000D02*
X172550000Y-120542000D01*
X168359000Y-122800000D02*
X167159000Y-122800000D01*
X167159000Y-121050000D02*
X168359000Y-121050000D01*
X168359000Y-120768000D02*
X167159000Y-120768000D01*
X167159000Y-119018000D02*
X168359000Y-119018000D01*
X170464000Y-115854000D02*
X170464000Y-113254000D01*
X170464000Y-113254000D02*
X167864000Y-113254000D01*
X167864000Y-113254000D02*
X167864000Y-115854000D01*
X170464000Y-115854000D02*
X167864000Y-115854000D01*
X170905421Y-113354000D02*
G75*
G03X170905421Y-113354000I-141421J0D01*
G01*
X166651421Y-107720000D02*
G75*
G03X166651421Y-107720000I-141421J0D01*
G01*
D11*
X166108000Y-116228143D02*
X166071714Y-116264429D01*
X165962857Y-116300714D01*
X165890286Y-116300714D01*
X165781429Y-116264429D01*
X165708857Y-116191857D01*
X165672572Y-116119286D01*
X165636286Y-115974143D01*
X165636286Y-115865286D01*
X165672572Y-115720143D01*
X165708857Y-115647571D01*
X165781429Y-115575000D01*
X165890286Y-115538714D01*
X165962857Y-115538714D01*
X166071714Y-115575000D01*
X166108000Y-115611286D01*
X166833714Y-116300714D02*
X166398286Y-116300714D01*
X166616000Y-116300714D02*
X166616000Y-115538714D01*
X166543429Y-115647571D01*
X166470857Y-115720143D01*
X166398286Y-115756429D01*
X175938143Y-113162000D02*
X175974429Y-113198286D01*
X176010714Y-113307143D01*
X176010714Y-113379714D01*
X175974429Y-113488571D01*
X175901857Y-113561143D01*
X175829286Y-113597428D01*
X175684143Y-113633714D01*
X175575286Y-113633714D01*
X175430143Y-113597428D01*
X175357571Y-113561143D01*
X175285000Y-113488571D01*
X175248714Y-113379714D01*
X175248714Y-113307143D01*
X175285000Y-113198286D01*
X175321286Y-113162000D01*
X175321286Y-112871714D02*
X175285000Y-112835428D01*
X175248714Y-112762857D01*
X175248714Y-112581428D01*
X175285000Y-112508857D01*
X175321286Y-112472571D01*
X175393857Y-112436286D01*
X175466429Y-112436286D01*
X175575286Y-112472571D01*
X176010714Y-112908000D01*
X176010714Y-112436286D01*
X164965000Y-118260143D02*
X164928714Y-118296429D01*
X164819857Y-118332714D01*
X164747286Y-118332714D01*
X164638429Y-118296429D01*
X164565857Y-118223857D01*
X164529572Y-118151286D01*
X164493286Y-118006143D01*
X164493286Y-117897286D01*
X164529572Y-117752143D01*
X164565857Y-117679571D01*
X164638429Y-117607000D01*
X164747286Y-117570714D01*
X164819857Y-117570714D01*
X164928714Y-117607000D01*
X164965000Y-117643286D01*
X165219000Y-117570714D02*
X165690714Y-117570714D01*
X165436714Y-117861000D01*
X165545572Y-117861000D01*
X165618143Y-117897286D01*
X165654429Y-117933571D01*
X165690714Y-118006143D01*
X165690714Y-118187571D01*
X165654429Y-118260143D01*
X165618143Y-118296429D01*
X165545572Y-118332714D01*
X165327857Y-118332714D01*
X165255286Y-118296429D01*
X165219000Y-118260143D01*
X157290572Y-117824714D02*
X157290572Y-117062714D01*
X157580857Y-117062714D01*
X157653429Y-117099000D01*
X157689714Y-117135286D01*
X157726000Y-117207857D01*
X157726000Y-117316714D01*
X157689714Y-117389286D01*
X157653429Y-117425571D01*
X157580857Y-117461857D01*
X157290572Y-117461857D01*
X158451714Y-117824714D02*
X158016286Y-117824714D01*
X158234000Y-117824714D02*
X158234000Y-117062714D01*
X158161429Y-117171571D01*
X158088857Y-117244143D01*
X158016286Y-117280429D01*
X180531572Y-117697714D02*
X180531572Y-116935714D01*
X180821857Y-116935714D01*
X180894429Y-116972000D01*
X180930714Y-117008286D01*
X180967000Y-117080857D01*
X180967000Y-117189714D01*
X180930714Y-117262286D01*
X180894429Y-117298571D01*
X180821857Y-117334857D01*
X180531572Y-117334857D01*
X181257286Y-117008286D02*
X181293572Y-116972000D01*
X181366143Y-116935714D01*
X181547572Y-116935714D01*
X181620143Y-116972000D01*
X181656429Y-117008286D01*
X181692714Y-117080857D01*
X181692714Y-117153429D01*
X181656429Y-117262286D01*
X181221000Y-117697714D01*
X181692714Y-117697714D01*
X161100572Y-110331714D02*
X161100572Y-109569714D01*
X161390857Y-109569714D01*
X161463429Y-109606000D01*
X161499714Y-109642286D01*
X161536000Y-109714857D01*
X161536000Y-109823714D01*
X161499714Y-109896286D01*
X161463429Y-109932571D01*
X161390857Y-109968857D01*
X161100572Y-109968857D01*
X161790000Y-109569714D02*
X162261714Y-109569714D01*
X162007714Y-109860000D01*
X162116572Y-109860000D01*
X162189143Y-109896286D01*
X162225429Y-109932571D01*
X162261714Y-110005143D01*
X162261714Y-110186571D01*
X162225429Y-110259143D01*
X162189143Y-110295429D01*
X162116572Y-110331714D01*
X161898857Y-110331714D01*
X161826286Y-110295429D01*
X161790000Y-110259143D01*
X161600572Y-118591714D02*
X161600572Y-117829714D01*
X161890857Y-117829714D01*
X161963429Y-117866000D01*
X161999714Y-117902286D01*
X162036000Y-117974857D01*
X162036000Y-118083714D01*
X161999714Y-118156286D01*
X161963429Y-118192571D01*
X161890857Y-118228857D01*
X161600572Y-118228857D01*
X162689143Y-118083714D02*
X162689143Y-118591714D01*
X162507714Y-117793429D02*
X162326286Y-118337714D01*
X162798000Y-118337714D01*
X176721572Y-116554714D02*
X176721572Y-115792714D01*
X177011857Y-115792714D01*
X177084429Y-115829000D01*
X177120714Y-115865286D01*
X177157000Y-115937857D01*
X177157000Y-116046714D01*
X177120714Y-116119286D01*
X177084429Y-116155571D01*
X177011857Y-116191857D01*
X176721572Y-116191857D01*
X177846429Y-115792714D02*
X177483572Y-115792714D01*
X177447286Y-116155571D01*
X177483572Y-116119286D01*
X177556143Y-116083000D01*
X177737572Y-116083000D01*
X177810143Y-116119286D01*
X177846429Y-116155571D01*
X177882714Y-116228143D01*
X177882714Y-116409571D01*
X177846429Y-116482143D01*
X177810143Y-116518429D01*
X177737572Y-116554714D01*
X177556143Y-116554714D01*
X177483572Y-116518429D01*
X177447286Y-116482143D01*
X176340572Y-111347714D02*
X176340572Y-110585714D01*
X176630857Y-110585714D01*
X176703429Y-110622000D01*
X176739714Y-110658286D01*
X176776000Y-110730857D01*
X176776000Y-110839714D01*
X176739714Y-110912286D01*
X176703429Y-110948571D01*
X176630857Y-110984857D01*
X176340572Y-110984857D01*
X177429143Y-110585714D02*
X177284000Y-110585714D01*
X177211429Y-110622000D01*
X177175143Y-110658286D01*
X177102572Y-110767143D01*
X177066286Y-110912286D01*
X177066286Y-111202571D01*
X177102572Y-111275143D01*
X177138857Y-111311429D01*
X177211429Y-111347714D01*
X177356572Y-111347714D01*
X177429143Y-111311429D01*
X177465429Y-111275143D01*
X177501714Y-111202571D01*
X177501714Y-111021143D01*
X177465429Y-110948571D01*
X177429143Y-110912286D01*
X177356572Y-110876000D01*
X177211429Y-110876000D01*
X177138857Y-110912286D01*
X177102572Y-110948571D01*
X177066286Y-111021143D01*
X173736000Y-119597714D02*
X173482000Y-119234857D01*
X173300572Y-119597714D02*
X173300572Y-118835714D01*
X173590857Y-118835714D01*
X173663429Y-118872000D01*
X173699714Y-118908286D01*
X173736000Y-118980857D01*
X173736000Y-119089714D01*
X173699714Y-119162286D01*
X173663429Y-119198571D01*
X173590857Y-119234857D01*
X173300572Y-119234857D01*
X174461714Y-119597714D02*
X174026286Y-119597714D01*
X174244000Y-119597714D02*
X174244000Y-118835714D01*
X174171429Y-118944571D01*
X174098857Y-119017143D01*
X174026286Y-119053429D01*
X171577000Y-119597714D02*
X171323000Y-119234857D01*
X171141572Y-119597714D02*
X171141572Y-118835714D01*
X171431857Y-118835714D01*
X171504429Y-118872000D01*
X171540714Y-118908286D01*
X171577000Y-118980857D01*
X171577000Y-119089714D01*
X171540714Y-119162286D01*
X171504429Y-119198571D01*
X171431857Y-119234857D01*
X171141572Y-119234857D01*
X171867286Y-118908286D02*
X171903572Y-118872000D01*
X171976143Y-118835714D01*
X172157572Y-118835714D01*
X172230143Y-118872000D01*
X172266429Y-118908286D01*
X172302714Y-118980857D01*
X172302714Y-119053429D01*
X172266429Y-119162286D01*
X171831000Y-119597714D01*
X172302714Y-119597714D01*
X175633000Y-122142714D02*
X175379000Y-121779857D01*
X175197572Y-122142714D02*
X175197572Y-121380714D01*
X175487857Y-121380714D01*
X175560429Y-121417000D01*
X175596714Y-121453286D01*
X175633000Y-121525857D01*
X175633000Y-121634714D01*
X175596714Y-121707286D01*
X175560429Y-121743571D01*
X175487857Y-121779857D01*
X175197572Y-121779857D01*
X175887000Y-121380714D02*
X176358714Y-121380714D01*
X176104714Y-121671000D01*
X176213572Y-121671000D01*
X176286143Y-121707286D01*
X176322429Y-121743571D01*
X176358714Y-121816143D01*
X176358714Y-121997571D01*
X176322429Y-122070143D01*
X176286143Y-122106429D01*
X176213572Y-122142714D01*
X175995857Y-122142714D01*
X175923286Y-122106429D01*
X175887000Y-122070143D01*
X165219000Y-122269714D02*
X164965000Y-121906857D01*
X164783572Y-122269714D02*
X164783572Y-121507714D01*
X165073857Y-121507714D01*
X165146429Y-121544000D01*
X165182714Y-121580286D01*
X165219000Y-121652857D01*
X165219000Y-121761714D01*
X165182714Y-121834286D01*
X165146429Y-121870571D01*
X165073857Y-121906857D01*
X164783572Y-121906857D01*
X165872143Y-121761714D02*
X165872143Y-122269714D01*
X165690714Y-121471429D02*
X165509286Y-122015714D01*
X165981000Y-122015714D01*
X164965000Y-120364714D02*
X164711000Y-120001857D01*
X164529572Y-120364714D02*
X164529572Y-119602714D01*
X164819857Y-119602714D01*
X164892429Y-119639000D01*
X164928714Y-119675286D01*
X164965000Y-119747857D01*
X164965000Y-119856714D01*
X164928714Y-119929286D01*
X164892429Y-119965571D01*
X164819857Y-120001857D01*
X164529572Y-120001857D01*
X165654429Y-119602714D02*
X165291572Y-119602714D01*
X165255286Y-119965571D01*
X165291572Y-119929286D01*
X165364143Y-119893000D01*
X165545572Y-119893000D01*
X165618143Y-119929286D01*
X165654429Y-119965571D01*
X165690714Y-120038143D01*
X165690714Y-120219571D01*
X165654429Y-120292143D01*
X165618143Y-120328429D01*
X165545572Y-120364714D01*
X165364143Y-120364714D01*
X165291572Y-120328429D01*
X165255286Y-120292143D01*
X168575429Y-111728714D02*
X168575429Y-112345571D01*
X168611714Y-112418143D01*
X168648000Y-112454429D01*
X168720571Y-112490714D01*
X168865714Y-112490714D01*
X168938286Y-112454429D01*
X168974571Y-112418143D01*
X169010857Y-112345571D01*
X169010857Y-111728714D01*
X169772857Y-112490714D02*
X169337429Y-112490714D01*
X169555143Y-112490714D02*
X169555143Y-111728714D01*
X169482572Y-111837571D01*
X169410000Y-111910143D01*
X169337429Y-111946429D01*
X172077001Y-109569714D02*
X171714144Y-109569714D01*
X171714144Y-108807714D01*
X172730143Y-109569714D02*
X172294715Y-109569714D01*
X172512429Y-109569714D02*
X172512429Y-108807714D01*
X172439858Y-108916571D01*
X172367286Y-108989143D01*
X172294715Y-109025429D01*
M02*
